Trophy-Pro-Bd-It.ufo
<glyph name="exclam" format="1">
  <advance width="746"/>
  <unicode hex="0021"/>
  <outline>
    <contour>
      <point x="317" y="-58" type="qcurve" smooth="yes"/>
      <point x="239" y="-58"/>
      <point x="202" y="-21" type="qcurve" smooth="yes"/>
      <point x="173" y="9"/>
      <point x="173" y="57" type="qcurve"/>
      <point x="174" y="79" type="line"/>
      <point x="182" y="146"/>
      <point x="273" y="226"/>
      <point x="352" y="226" type="qcurve" smooth="yes"/>
      <point x="435" y="226"/>
      <point x="468" y="186" type="qcurve" smooth="yes"/>
      <point x="496" y="154"/>
      <point x="496" y="104" type="qcurve" smooth="yes"/>
      <point x="496" y="24"/>
      <point x="443" y="-21" type="qcurve" smooth="yes"/>
      <point x="399" y="-58"/>
    </contour>
    <contour>
      <point x="500" y="447" type="qcurve"/>
      <point x="264" y="447" type="line"/>
      <point x="312" y="695"/>
      <point x="360" y="1316"/>
      <point x="361" y="1570" type="qcurve"/>
      <point x="675" y="1570" type="line"/>
      <point x="616" y="1318"/>
      <point x="508" y="690"/>
    </contour>
  </outline>
</glyph>
<glyph name="quotedbl" format="1">
  <advance width="742"/>
  <unicode hex="0022"/>
  <outline>
    <contour>
      <point x="403" y="1108" type="line"/>
      <point x="304" y="1108" type="line"/>
      <point x="285" y="1473" type="line" smooth="yes"/>
      <point x="284" y="1493"/>
      <point x="285" y="1500" type="qcurve" smooth="yes"/>
      <point x="288" y="1527"/>
      <point x="346" y="1577"/>
      <point x="410" y="1577" type="qcurve" smooth="yes"/>
      <point x="472" y="1577"/>
      <point x="521" y="1528"/>
      <point x="517" y="1501" type="qcurve"/>
      <point x="517" y="1496"/>
      <point x="510" y="1472" type="qcurve" smooth="yes"/>
    </contour>
    <contour>
      <point x="715" y="1108" type="line"/>
      <point x="616" y="1108" type="line"/>
      <point x="597" y="1473" type="line" smooth="yes"/>
      <point x="596" y="1493"/>
      <point x="597" y="1500" type="qcurve" smooth="yes"/>
      <point x="600" y="1527"/>
      <point x="658" y="1577"/>
      <point x="722" y="1577" type="qcurve" smooth="yes"/>
      <point x="784" y="1577"/>
      <point x="833" y="1528"/>
      <point x="829" y="1501" type="qcurve"/>
      <point x="829" y="1496"/>
      <point x="822" y="1472" type="qcurve" smooth="yes"/>
    </contour>
  </outline>
</glyph>
<glyph name="numbersign" format="1">
  <advance width="1234"/>
  <unicode hex="0023"/>
  <outline>
    <contour>
      <point x="738" y="0" type="line"/>
      <point x="526" y="0" type="line"/>
      <point x="682" y="433" type="line"/>
      <point x="534" y="433" type="line"/>
      <point x="377" y="0" type="line"/>
      <point x="165" y="0" type="line"/>
      <point x="321" y="433" type="line"/>
      <point x="172" y="433" type="line"/>
      <point x="188" y="561" type="line"/>
      <point x="367" y="561" type="line"/>
      <point x="474" y="856" type="line"/>
      <point x="313" y="856" type="line"/>
      <point x="329" y="984" type="line"/>
      <point x="520" y="984" type="line"/>
      <point x="690" y="1454" type="line"/>
      <point x="903" y="1454" type="line"/>
      <point x="733" y="984" type="line"/>
      <point x="882" y="984" type="line"/>
      <point x="1052" y="1454" type="line"/>
      <point x="1264" y="1454" type="line"/>
      <point x="1094" y="984" type="line"/>
      <point x="1236" y="984" type="line"/>
      <point x="1221" y="856" type="line"/>
      <point x="1048" y="856" type="line"/>
      <point x="941" y="561" type="line"/>
      <point x="1095" y="561" type="line"/>
      <point x="1079" y="433" type="line"/>
      <point x="895" y="433" type="line"/>
    </contour>
    <contour>
      <point x="733" y="561" type="line"/>
      <point x="835" y="856" type="line"/>
      <point x="686" y="856" type="line"/>
      <point x="580" y="561" type="line"/>
    </contour>
  </outline>
</glyph>
<glyph name="dollar" format="1">
  <advance width="1119"/>
  <unicode hex="0024"/>
  <outline>
    <contour>
      <point x="593" y="-192" type="line"/>
      <point x="447" y="-192" type="line"/>
      <point x="468" y="-22" type="line"/>
      <point x="381" y="-22"/>
      <point x="164" y="35"/>
      <point x="105" y="79" type="qcurve"/>
      <point x="140" y="370" type="line"/>
      <point x="257" y="358"/>
      <point x="296" y="350" type="qcurve" smooth="yes"/>
      <point x="326" y="343"/>
      <point x="328" y="329" type="qcurve" smooth="yes"/>
      <point x="352" y="155" type="line"/>
      <point x="351" y="153" type="line"/>
      <point x="450" y="125"/>
      <point x="486" y="123" type="qcurve"/>
      <point x="560" y="721" type="line"/>
      <point x="469" y="760"/>
      <point x="323" y="861"/>
      <point x="284" y="935" type="qcurve" smooth="yes"/>
      <point x="253" y="992"/>
      <point x="253" y="1068" type="qcurve" smooth="yes"/>
      <point x="253" y="1091"/>
      <point x="256" y="1116" type="qcurve" smooth="yes"/>
      <point x="280" y="1283"/>
      <point x="495" y="1462"/>
      <point x="652" y="1477" type="qcurve"/>
      <point x="668" y="1608" type="line"/>
      <point x="814" y="1608" type="line"/>
      <point x="799" y="1484" type="line"/>
      <point x="768" y="1483" type="line"/>
      <point x="910" y="1483"/>
      <point x="1101" y="1457" type="qcurve"/>
      <point x="1082" y="1282"/>
      <point x="1070" y="1048" type="qcurve"/>
      <point x="1008" y="1055" type="line" smooth="yes"/>
      <point x="935" y="1063"/>
      <point x="874" y="1076"/>
      <point x="874" y="1089" type="qcurve"/>
      <point x="854" y="1324" type="line"/>
      <point x="854" y="1329"/>
      <point x="857" y="1329" type="qcurve"/>
      <point x="864" y="1327" type="line"/>
      <point x="781" y="1337" type="line"/>
      <point x="724" y="869" type="line"/>
      <point x="910" y="790"/>
      <point x="994" y="683" type="qcurve" smooth="yes"/>
      <point x="1063" y="596"/>
      <point x="1063" y="475" type="qcurve" smooth="yes"/>
      <point x="1063" y="448"/>
      <point x="1060" y="419" type="qcurve"/>
      <point x="1059" y="417"/>
      <point x="1058" y="417" type="qcurve"/>
      <point x="1058" y="412" type="line"/>
      <point x="1036" y="247"/>
      <point x="808" y="11"/>
      <point x="615" y="-14" type="qcurve"/>
    </contour>
    <contour>
      <point x="587" y="941" type="qcurve"/>
      <point x="634" y="1327" type="line"/>
      <point x="586" y="1320"/>
      <point x="497" y="1220"/>
      <point x="482" y="1120" type="qcurve"/>
      <point x="481" y="1095" type="line"/>
      <point x="481" y="1056"/>
      <point x="515" y="991"/>
      <point x="569" y="949"/>
    </contour>
    <contour>
      <point x="633" y="130" type="line"/>
      <point x="598" y="130" type="line"/>
      <point x="674" y="150"/>
      <point x="781" y="299"/>
      <point x="795" y="402" type="qcurve" smooth="yes"/>
      <point x="799" y="433"/>
      <point x="799" y="461" type="qcurve" smooth="yes"/>
      <point x="799" y="607"/>
      <point x="698" y="656" type="qcurve"/>
    </contour>
  </outline>
</glyph>
<glyph name="percent" format="1">
  <advance width="1680"/>
  <unicode hex="0025"/>
  <outline>
    <contour>
      <point x="663" y="1459" type="qcurve" smooth="yes"/>
      <point x="778" y="1459"/>
      <point x="969" y="1350"/>
      <point x="1050" y="1172"/>
      <point x="1039" y="1080" type="qcurve" smooth="yes"/>
      <point x="1027" y="989"/>
      <point x="906" y="813"/>
      <point x="688" y="701"/>
      <point x="570" y="701" type="qcurve" smooth="yes"/>
      <point x="453" y="701"/>
      <point x="262" y="813"/>
      <point x="183" y="989"/>
      <point x="195" y="1080" type="qcurve" smooth="yes"/>
      <point x="206" y="1172"/>
      <point x="330" y="1350"/>
      <point x="549" y="1459"/>
    </contour>
    <contour>
      <point x="407" y="1061" type="qcurve" smooth="yes"/>
      <point x="408" y="964"/>
      <point x="474" y="799"/>
      <point x="529" y="759" type="qcurve"/>
      <point x="569" y="728"/>
      <point x="606" y="728" type="qcurve"/>
      <point x="608" y="728"/>
      <point x="612" y="729" type="qcurve"/>
      <point x="657" y="731"/>
      <point x="761" y="820"/>
      <point x="794" y="910" type="qcurve" smooth="yes"/>
      <point x="815" y="968"/>
      <point x="822" y="1029" type="qcurve"/>
      <point x="827" y="1063"/>
      <point x="827" y="1098" type="qcurve"/>
      <point x="826" y="1196"/>
      <point x="757" y="1364"/>
      <point x="704" y="1403" type="qcurve" smooth="yes"/>
      <point x="663" y="1432"/>
      <point x="625" y="1432" type="qcurve" smooth="yes"/>
      <point x="616" y="1432" type="line"/>
      <point x="578" y="1430"/>
      <point x="475" y="1343"/>
      <point x="442" y="1253" type="qcurve"/>
      <point x="418" y="1191"/>
      <point x="411" y="1128" type="qcurve"/>
      <point x="406" y="1095"/>
    </contour>
    <contour>
      <point x="299" y="-29" type="line"/>
      <point x="1418" y="1432" type="line"/>
      <point x="1561" y="1432" type="line"/>
      <point x="444" y="-29" type="line"/>
    </contour>
    <contour>
      <point x="1287" y="738" type="qcurve" smooth="yes"/>
      <point x="1400" y="738"/>
      <point x="1593" y="628"/>
      <point x="1673" y="450"/>
      <point x="1662" y="359" type="qcurve" smooth="yes"/>
      <point x="1651" y="267"/>
      <point x="1530" y="91"/>
      <point x="1311" y="-20"/>
      <point x="1194" y="-20" type="qcurve" smooth="yes"/>
      <point x="1076" y="-20"/>
      <point x="886" y="91"/>
      <point x="807" y="267"/>
      <point x="818" y="359" type="qcurve" smooth="yes"/>
      <point x="829" y="450"/>
      <point x="954" y="628"/>
      <point x="1172" y="738"/>
    </contour>
    <contour>
      <point x="1030" y="339" type="qcurve"/>
      <point x="1032" y="242"/>
      <point x="1098" y="77"/>
      <point x="1152" y="37" type="qcurve" smooth="yes"/>
      <point x="1194" y="7"/>
      <point x="1232" y="7" type="qcurve" smooth="yes"/>
      <point x="1241" y="7" type="line"/>
      <point x="1281" y="9"/>
      <point x="1384" y="98"/>
      <point x="1417" y="188" type="qcurve" smooth="yes"/>
      <point x="1438" y="246"/>
      <point x="1446" y="307" type="qcurve" smooth="yes"/>
      <point x="1450" y="341"/>
      <point x="1450" y="376" type="qcurve"/>
      <point x="1449" y="474"/>
      <point x="1381" y="642"/>
      <point x="1327" y="681" type="qcurve" smooth="yes"/>
      <point x="1286" y="710"/>
      <point x="1248" y="710" type="qcurve" smooth="yes"/>
      <point x="1239" y="710" type="line"/>
      <point x="1201" y="708"/>
      <point x="1098" y="621"/>
      <point x="1065" y="531" type="qcurve" smooth="yes"/>
      <point x="1042" y="469"/>
      <point x="1034" y="406" type="qcurve" smooth="yes"/>
      <point x="1030" y="373"/>
    </contour>
  </outline>
</glyph>
<glyph name="ampersand" format="1">
  <advance width="1536"/>
  <unicode hex="0026"/>
  <outline>
    <contour>
      <point x="554" y="-20" type="qcurve"/>
      <point x="540" y="-20" type="line" smooth="yes"/>
      <point x="335" y="-20"/>
      <point x="214" y="88" type="qcurve" smooth="yes"/>
      <point x="110" y="181"/>
      <point x="110" y="341" type="qcurve" smooth="yes"/>
      <point x="110" y="621"/>
      <point x="498" y="812" type="qcurve"/>
      <point x="507" y="818" type="line"/>
      <point x="482" y="860"/>
      <point x="453" y="898" type="qcurve" smooth="yes"/>
      <point x="410" y="953"/>
      <point x="380" y="1018" type="qcurve" smooth="yes"/>
      <point x="358" y="1066"/>
      <point x="358" y="1131" type="qcurve" smooth="yes"/>
      <point x="358" y="1248"/>
      <point x="425" y="1334" type="qcurve" smooth="yes"/>
      <point x="479" y="1403"/>
      <point x="667" y="1486"/>
      <point x="797" y="1486" type="qcurve" smooth="yes"/>
      <point x="964" y="1486"/>
      <point x="1059" y="1405" type="qcurve" smooth="yes"/>
      <point x="1143" y="1335"/>
      <point x="1143" y="1223" type="qcurve" smooth="yes"/>
      <point x="1143" y="1207"/>
      <point x="1141" y="1190" type="qcurve" smooth="yes"/>
      <point x="1123" y="1064"/>
      <point x="931" y="869"/>
      <point x="787" y="806" type="qcurve"/>
      <point x="836" y="741"/>
      <point x="989" y="555" type="qcurve" smooth="yes"/>
      <point x="1078" y="447" type="line"/>
      <point x="1102" y="484"/>
      <point x="1161" y="651"/>
      <point x="1177" y="764" type="qcurve"/>
      <point x="1527" y="764" type="line"/>
      <point x="1509" y="682" type="line"/>
      <point x="1509" y="681"/>
      <point x="1499" y="674"/>
      <point x="1480" y="667"/>
      <point x="1466" y="665" type="qcurve" smooth="yes"/>
      <point x="1358" y="652" type="line"/>
      <point x="1367" y="654" type="line"/>
      <point x="1370" y="654"/>
      <point x="1370" y="648" type="qcurve"/>
      <point x="1326" y="449"/>
      <point x="1206" y="292" type="qcurve"/>
      <point x="1284" y="198"/>
      <point x="1325" y="144" type="qcurve"/>
      <point x="1324" y="144"/>
      <point x="1322" y="146"/>
      <point x="1321" y="147"/>
      <point x="1316" y="148" type="qcurve"/>
      <point x="1426" y="132" type="line" smooth="yes"/>
      <point x="1445" y="129"/>
      <point x="1464" y="118"/>
      <point x="1464" y="117" type="qcurve"/>
      <point x="1461" y="-6" type="line"/>
      <point x="1277" y="10"/>
      <point x="1160" y="10" type="qcurve"/>
      <point x="1065" y="96"/>
      <point x="1044" y="126" type="qcurve" smooth="yes"/>
      <point x="1039" y="132" type="line"/>
      <point x="958" y="68"/>
      <point x="693" y="-16"/>
    </contour>
    <contour>
      <point x="604" y="130" type="qcurve" smooth="yes"/>
      <point x="771" y="130"/>
      <point x="934" y="263" type="qcurve"/>
      <point x="717" y="525"/>
      <point x="587" y="700" type="qcurve"/>
      <point x="566" y="689"/>
      <point x="526" y="655" type="qcurve" smooth="yes"/>
      <point x="394" y="543"/>
      <point x="394" y="359" type="qcurve" smooth="yes"/>
      <point x="394" y="312"/>
      <point x="421" y="206"/>
      <point x="518" y="130"/>
    </contour>
    <contour>
      <point x="710" y="907" type="line"/>
      <point x="788" y="948"/>
      <point x="903" y="1072"/>
      <point x="917" y="1171" type="qcurve" smooth="yes"/>
      <point x="920" y="1191"/>
      <point x="920" y="1211" type="qcurve" smooth="yes"/>
      <point x="920" y="1239"/>
      <point x="906" y="1313"/>
      <point x="841" y="1378"/>
      <point x="775" y="1378" type="qcurve" smooth="yes"/>
      <point x="730" y="1378"/>
      <point x="659" y="1317"/>
      <point x="637" y="1271" type="qcurve" smooth="yes"/>
      <point x="606" y="1208"/>
      <point x="606" y="1155" type="qcurve" smooth="yes"/>
      <point x="606" y="1090"/>
      <point x="671" y="961"/>
      <point x="702" y="920" type="qcurve"/>
    </contour>
  </outline>
</glyph>
<glyph name="quotesingle" format="1">
  <advance width="416"/>
  <unicode hex="0027"/>
  <outline>
    <contour>
      <point x="403" y="1108" type="line"/>
      <point x="304" y="1108" type="line"/>
      <point x="285" y="1473" type="line" smooth="yes"/>
      <point x="284" y="1493"/>
      <point x="285" y="1500" type="qcurve" smooth="yes"/>
      <point x="288" y="1527"/>
      <point x="346" y="1577"/>
      <point x="410" y="1577" type="qcurve" smooth="yes"/>
      <point x="472" y="1577"/>
      <point x="521" y="1528"/>
      <point x="517" y="1501" type="qcurve"/>
      <point x="517" y="1496"/>
      <point x="510" y="1472" type="qcurve" smooth="yes"/>
    </contour>
  </outline>
</glyph>
<glyph name="parenleft" format="1">
  <advance width="720"/>
  <unicode hex="0028"/>
  <outline>
    <contour>
      <point x="441" y="-453" type="line"/>
      <point x="307" y="-309"/>
      <point x="174" y="83"/>
      <point x="160" y="287" type="qcurve" smooth="yes"/>
      <point x="154" y="370"/>
      <point x="154" y="447" type="qcurve" smooth="yes"/>
      <point x="154" y="560"/>
      <point x="167" y="661" type="qcurve"/>
      <point x="186" y="822"/>
      <point x="320" y="1218"/>
      <point x="548" y="1598"/>
      <point x="710" y="1736" type="qcurve"/>
      <point x="773" y="1587" type="line"/>
      <point x="734" y="1562"/>
      <point x="626" y="1414"/>
      <point x="571" y="1271" type="qcurve"/>
      <point x="467" y="980"/>
      <point x="425" y="622" type="qcurve"/>
      <point x="409" y="500"/>
      <point x="404" y="334" type="qcurve"/>
      <point x="403" y="259" type="line"/>
      <point x="403" y="132"/>
      <point x="416" y="11" type="qcurve"/>
      <point x="436" y="-132"/>
      <point x="506" y="-278"/>
      <point x="535" y="-299" type="qcurve"/>
    </contour>
  </outline>
</glyph>
<glyph name="parenright" format="1">
  <advance width="724"/>
  <unicode hex="0029"/>
  <outline>
    <contour>
      <point x="65" y="-453" type="qcurve"/>
      <point x="30" y="-299" type="line"/>
      <point x="34" y="-295"/>
      <point x="39" y="-288" type="qcurve"/>
      <point x="128" y="-188"/>
      <point x="204" y="11" type="qcurve"/>
      <point x="260" y="167"/>
      <point x="331" y="500"/>
      <point x="345" y="622" type="qcurve"/>
      <point x="363" y="759"/>
      <point x="371" y="927" type="qcurve" smooth="yes"/>
      <point x="373" y="975"/>
      <point x="373" y="1024" type="qcurve" smooth="yes"/>
      <point x="373" y="1145"/>
      <point x="359" y="1271" type="qcurve"/>
      <point x="339" y="1414"/>
      <point x="267" y="1562"/>
      <point x="234" y="1587" type="qcurve"/>
      <point x="334" y="1736" type="line"/>
      <point x="462" y="1598"/>
      <point x="530" y="1408" type="qcurve" smooth="yes"/>
      <point x="624" y="1143"/>
      <point x="624" y="841" type="qcurve" smooth="yes"/>
      <point x="624" y="746"/>
      <point x="613" y="661" type="qcurve"/>
      <point x="593" y="491"/>
      <point x="464" y="83"/>
      <point x="235" y="-309"/>
    </contour>
  </outline>
</glyph>
<glyph name="asterisk" format="1">
  <advance width="1094"/>
  <unicode hex="002A"/>
  <outline>
    <contour>
      <point x="658" y="1314" type="qcurve"/>
      <point x="662" y="1374"/>
      <point x="635" y="1437" type="qcurve" smooth="yes"/>
      <point x="608" y="1498"/>
      <point x="609" y="1508" type="qcurve" smooth="yes"/>
      <point x="612" y="1530"/>
      <point x="678" y="1579"/>
      <point x="739" y="1579" type="qcurve" smooth="yes"/>
      <point x="797" y="1579"/>
      <point x="854" y="1533"/>
      <point x="852" y="1514" type="qcurve" smooth="yes"/>
      <point x="850" y="1501"/>
      <point x="809" y="1438" type="qcurve" smooth="yes"/>
      <point x="766" y="1373"/>
      <point x="755" y="1313" type="qcurve"/>
      <point x="752" y="1312"/>
      <point x="800" y="1357" type="qcurve" smooth="yes"/>
      <point x="864" y="1418"/>
      <point x="896" y="1428" type="qcurve" smooth="yes"/>
      <point x="918" y="1434"/>
      <point x="937" y="1434" type="qcurve" smooth="yes"/>
      <point x="973" y="1434"/>
      <point x="1002" y="1416" type="qcurve"/>
      <point x="1030" y="1395"/>
      <point x="1038" y="1361" type="qcurve"/>
      <point x="1040" y="1347"/>
      <point x="1039" y="1335" type="qcurve" smooth="yes"/>
      <point x="1038" y="1325"/>
      <point x="1034" y="1317" type="qcurve" smooth="yes"/>
      <point x="1019" y="1284"/>
      <point x="974" y="1272" type="qcurve"/>
      <point x="959" y="1267"/>
      <point x="935" y="1267" type="qcurve" smooth="yes"/>
      <point x="903" y="1267"/>
      <point x="848" y="1277" type="qcurve" smooth="yes"/>
      <point x="826" y="1281"/>
      <point x="805" y="1281" type="qcurve" smooth="yes"/>
      <point x="774" y="1281"/>
      <point x="748" y="1274" type="qcurve"/>
      <point x="794" y="1206"/>
      <point x="844" y="1181" type="qcurve" smooth="yes"/>
      <point x="916" y="1145"/>
      <point x="927" y="1127" type="qcurve" smooth="yes"/>
      <point x="936" y="1113"/>
      <point x="934" y="1102" type="qcurve"/>
      <point x="934" y="1097"/>
      <point x="932" y="1093" type="qcurve" smooth="yes"/>
      <point x="922" y="1067"/>
      <point x="885" y="1042" type="qcurve" smooth="yes"/>
      <point x="839" y="1010"/>
      <point x="788" y="1010" type="qcurve" smooth="yes"/>
      <point x="752" y="1010"/>
      <point x="752" y="1011" type="qcurve"/>
      <point x="728" y="1011"/>
      <point x="706" y="1047" type="qcurve" smooth="yes"/>
      <point x="697" y="1062"/>
      <point x="697" y="1133" type="qcurve"/>
      <point x="695" y="1205"/>
      <point x="694" y="1208" type="qcurve"/>
      <point x="692" y="1205"/>
      <point x="674" y="1133" type="qcurve" smooth="yes"/>
      <point x="658" y="1065"/>
      <point x="647" y="1052" type="qcurve" smooth="yes"/>
      <point x="615" y="1016"/>
      <point x="558" y="1012" type="qcurve"/>
      <point x="550" y="1012" type="line" smooth="yes"/>
      <point x="502" y="1012"/>
      <point x="463" y="1043" type="qcurve" smooth="yes"/>
      <point x="433" y="1066"/>
      <point x="428" y="1094" type="qcurve"/>
      <point x="426" y="1100"/>
      <point x="427" y="1104" type="qcurve" smooth="yes"/>
      <point x="428" y="1112"/>
      <point x="437" y="1123" type="qcurve" smooth="yes"/>
      <point x="455" y="1143"/>
      <point x="538" y="1181" type="qcurve" smooth="yes"/>
      <point x="594" y="1207"/>
      <point x="658" y="1273" type="qcurve"/>
      <point x="632" y="1280"/>
      <point x="602" y="1280" type="qcurve" smooth="yes"/>
      <point x="582" y="1280"/>
      <point x="562" y="1276" type="qcurve" smooth="yes"/>
      <point x="500" y="1264"/>
      <point x="469" y="1264" type="qcurve" smooth="yes"/>
      <point x="447" y="1264"/>
      <point x="434" y="1270" type="qcurve"/>
      <point x="392" y="1283"/>
      <point x="383" y="1316" type="qcurve" smooth="yes"/>
      <point x="381" y="1324"/>
      <point x="382" y="1333" type="qcurve" smooth="yes"/>
      <point x="383" y="1345"/>
      <point x="390" y="1359" type="qcurve"/>
      <point x="404" y="1392"/>
      <point x="435" y="1412" type="qcurve" smooth="yes"/>
      <point x="468" y="1434"/>
      <point x="505" y="1434" type="qcurve" smooth="yes"/>
      <point x="525" y="1434"/>
      <point x="542" y="1428" type="qcurve"/>
      <point x="573" y="1419"/>
      <point x="625" y="1356" type="qcurve" smooth="yes"/>
      <point x="662" y="1312"/>
    </contour>
  </outline>
</glyph>
<glyph name="plus" format="1">
  <advance width="1084"/>
  <unicode hex="002B"/>
  <outline>
    <contour>
      <point x="516" y="647" type="line"/>
      <point x="166" y="647" type="line"/>
      <point x="189" y="827" type="line"/>
      <point x="539" y="827" type="line"/>
      <point x="578" y="1146" type="line"/>
      <point x="590" y="1157" type="line"/>
      <point x="789" y="1157" type="line"/>
      <point x="749" y="827" type="line"/>
      <point x="1087" y="827" type="line"/>
      <point x="1097" y="816" type="line"/>
      <point x="1076" y="647" type="line"/>
      <point x="726" y="647" type="line"/>
      <point x="681" y="277" type="line"/>
      <point x="471" y="277" type="line"/>
    </contour>
  </outline>
</glyph>
<glyph name="comma" format="1">
  <advance width="514"/>
  <unicode hex="002C"/>
  <outline>
    <contour>
      <point x="198" y="-216" type="qcurve" smooth="yes"/>
      <point x="112" y="-216" type="line"/>
      <point x="193" y="-20" type="line"/>
      <point x="154" y="-12"/>
      <point x="133" y="19" type="qcurve" smooth="yes"/>
      <point x="115" y="44"/>
      <point x="115" y="81" type="qcurve" smooth="yes"/>
      <point x="115" y="144"/>
      <point x="169" y="183" type="qcurve" smooth="yes"/>
      <point x="215" y="216"/>
      <point x="285" y="216" type="qcurve" smooth="yes"/>
      <point x="353" y="216"/>
      <point x="392" y="183" type="qcurve" smooth="yes"/>
      <point x="427" y="154"/>
      <point x="427" y="110" type="qcurve" smooth="yes"/>
      <point x="427" y="85"/>
      <point x="417" y="63" type="qcurve"/>
      <point x="398" y="3"/>
      <point x="315" y="-133"/>
      <point x="275" y="-190" type="qcurve"/>
      <point x="274" y="-193"/>
      <point x="272" y="-195" type="qcurve" smooth="yes"/>
      <point x="251" y="-216"/>
    </contour>
  </outline>
</glyph>
<glyph name="hyphen" format="1">
  <advance width="740"/>
  <unicode hex="002D"/>
  <unicode hex="00AD"/>
  <outline>
    <contour>
      <point x="241" y="409" type="line" smooth="yes"/>
      <point x="166" y="409"/>
      <point x="170" y="437" type="qcurve" smooth="yes"/>
      <point x="180" y="520" type="line" smooth="yes"/>
      <point x="183" y="549"/>
      <point x="259" y="549" type="qcurve" smooth="yes"/>
      <point x="615" y="549" type="line" smooth="yes"/>
      <point x="691" y="549"/>
      <point x="688" y="520" type="qcurve" smooth="yes"/>
      <point x="678" y="437" type="line" smooth="yes"/>
      <point x="674" y="409"/>
      <point x="599" y="409" type="qcurve" smooth="yes"/>
    </contour>
  </outline>
</glyph>
<glyph name="period" format="1">
  <advance width="409"/>
  <unicode hex="002E"/>
  <outline>
    <contour>
      <point x="196" y="-20" type="qcurve" smooth="yes"/>
      <point x="125" y="-20"/>
      <point x="88" y="15" type="qcurve" smooth="yes"/>
      <point x="56" y="44"/>
      <point x="56" y="91" type="qcurve" smooth="yes"/>
      <point x="56" y="153"/>
      <point x="110" y="192" type="qcurve" smooth="yes"/>
      <point x="156" y="225"/>
      <point x="226" y="225" type="qcurve" smooth="yes"/>
      <point x="294" y="225"/>
      <point x="333" y="192" type="qcurve" smooth="yes"/>
      <point x="368" y="163"/>
      <point x="368" y="118" type="qcurve"/>
      <point x="367" y="106" type="line" smooth="yes"/>
      <point x="359" y="49"/>
      <point x="264" y="-20"/>
    </contour>
  </outline>
</glyph>
<glyph name="slash" format="1">
  <advance width="750"/>
  <unicode hex="002F"/>
  <outline>
    <contour>
      <point x="183" y="-50" type="line"/>
      <point x="-33" y="-50" type="line"/>
      <point x="690" y="1434" type="line"/>
      <point x="906" y="1434" type="line"/>
    </contour>
  </outline>
</glyph>
<glyph name="zero" format="1">
  <advance width="1377"/>
  <unicode hex="0030"/>
  <outline>
    <contour>
      <point x="700" y="118" type="qcurve" smooth="yes"/>
      <point x="803" y="118"/>
      <point x="942" y="263"/>
      <point x="1030" y="538"/>
      <point x="1053" y="732" type="qcurve" smooth="yes"/>
      <point x="1069" y="861"/>
      <point x="1069" y="962" type="qcurve" smooth="yes"/>
      <point x="1069" y="1097"/>
      <point x="991" y="1339"/>
      <point x="850" y="1339" type="qcurve" smooth="yes"/>
      <point x="704" y="1339"/>
      <point x="520" y="1031"/>
      <point x="484" y="732" type="qcurve" smooth="yes"/>
      <point x="468" y="602"/>
      <point x="468" y="498" type="qcurve" smooth="yes"/>
      <point x="468" y="444"/>
      <point x="486" y="260"/>
      <point x="597" y="118"/>
    </contour>
    <contour>
      <point x="684" y="-20" type="qcurve" smooth="yes"/>
      <point x="386" y="-20"/>
      <point x="273" y="166" type="qcurve" smooth="yes"/>
      <point x="194" y="295"/>
      <point x="194" y="519" type="qcurve" smooth="yes"/>
      <point x="194" y="617"/>
      <point x="209" y="732" type="qcurve"/>
      <point x="253" y="1108"/>
      <point x="570" y="1478"/>
      <point x="867" y="1478" type="qcurve" smooth="yes"/>
      <point x="1164" y="1478"/>
      <point x="1270" y="1293" type="qcurve" smooth="yes"/>
      <point x="1344" y="1166"/>
      <point x="1344" y="947" type="qcurve" smooth="yes"/>
      <point x="1344" y="849"/>
      <point x="1329" y="732" type="qcurve"/>
      <point x="1284" y="351"/>
      <point x="980" y="-20"/>
    </contour>
  </outline>
</glyph>
<glyph name="one" format="1">
  <advance width="712"/>
  <unicode hex="0031"/>
  <outline>
    <contour>
      <point x="634" y="-20" type="line"/>
      <point x="475" y="-8"/>
      <point x="365" y="-6" type="qcurve"/>
      <point x="244" y="-8"/>
      <point x="82" y="-20" type="qcurve"/>
      <point x="106" y="92" type="line"/>
      <point x="111" y="96" type="line" smooth="yes"/>
      <point x="115" y="99"/>
      <point x="125" y="103" type="qcurve" smooth="yes"/>
      <point x="131" y="105"/>
      <point x="269" y="121" type="qcurve"/>
      <point x="273" y="121" type="line"/>
      <point x="270" y="121"/>
      <point x="268" y="120" type="qcurve"/>
      <point x="255" y="120"/>
      <point x="252" y="122"/>
      <point x="252" y="126" type="qcurve"/>
      <point x="383" y="1199" type="line"/>
      <point x="207" y="1199" type="line"/>
      <point x="230" y="1299" type="line"/>
      <point x="230" y="1302"/>
      <point x="253" y="1315"/>
      <point x="276" y="1318" type="qcurve" smooth="yes"/>
      <point x="392" y="1335" type="line"/>
      <point x="386" y="1335" type="line"/>
      <point x="384" y="1335"/>
      <point x="384" y="1336" type="qcurve"/>
      <point x="384" y="1340"/>
      <point x="386" y="1350" type="qcurve"/>
      <point x="414" y="1449" type="line"/>
      <point x="668" y="1449" type="line"/>
      <point x="504" y="113" type="line"/>
      <point x="494" y="118" type="line"/>
      <point x="493" y="118" type="line"/>
      <point x="495" y="119" type="line"/>
      <point x="542" y="114" type="line" smooth="yes"/>
      <point x="612" y="106"/>
      <point x="630" y="99"/>
      <point x="634" y="96" type="qcurve" smooth="yes"/>
      <point x="638" y="92" type="line"/>
    </contour>
  </outline>
</glyph>
<glyph name="two" format="1">
  <advance width="1128"/>
  <unicode hex="0032"/>
  <outline>
    <contour>
      <point x="1037" y="0" type="line"/>
      <point x="19" y="0" type="line"/>
      <point x="48" y="157" type="line"/>
      <point x="156" y="247"/>
      <point x="422" y="484"/>
      <point x="580" y="649" type="qcurve" smooth="yes"/>
      <point x="837" y="917"/>
      <point x="867" y="1122" type="qcurve" smooth="yes"/>
      <point x="869" y="1138"/>
      <point x="869" y="1153" type="qcurve" smooth="yes"/>
      <point x="869" y="1231"/>
      <point x="771" y="1338"/>
      <point x="678" y="1338" type="qcurve" smooth="yes"/>
      <point x="575" y="1338"/>
      <point x="428" y="1211"/>
      <point x="412" y="1109" type="qcurve"/>
      <point x="409" y="1107" type="line" smooth="yes"/>
      <point x="406" y="1105"/>
      <point x="384" y="1097"/>
      <point x="366" y="1095" type="qcurve" smooth="yes"/>
      <point x="258" y="1083" type="line"/>
      <point x="256" y="1083"/>
      <point x="250" y="1152"/>
      <point x="250" y="1202" type="qcurve" smooth="yes"/>
      <point x="250" y="1270"/>
      <point x="258" y="1321" type="qcurve"/>
      <point x="287" y="1348"/>
      <point x="348" y="1385" type="qcurve" smooth="yes"/>
      <point x="502" y="1478"/>
      <point x="683" y="1478" type="qcurve" smooth="yes"/>
      <point x="828" y="1478"/>
      <point x="1045" y="1399"/>
      <point x="1099" y="1319" type="qcurve" smooth="yes"/>
      <point x="1142" y="1255"/>
      <point x="1142" y="1164" type="qcurve" smooth="yes"/>
      <point x="1142" y="1141"/>
      <point x="1139" y="1116" type="qcurve" smooth="yes"/>
      <point x="1126" y="1018"/>
      <point x="1031" y="857"/>
      <point x="951" y="763" type="qcurve" smooth="yes"/>
      <point x="838" y="628"/>
      <point x="590" y="389"/>
      <point x="457" y="269" type="qcurve" smooth="yes"/>
      <point x="354" y="175" type="line"/>
      <point x="351" y="143" type="line"/>
      <point x="786" y="155" type="line"/>
      <point x="782" y="154" type="line"/>
      <point x="781" y="154"/>
      <point x="781" y="156" type="qcurve"/>
      <point x="783" y="164"/>
      <point x="881" y="390" type="qcurve"/>
      <point x="884" y="404"/>
      <point x="957" y="418"/>
      <point x="1041" y="427" type="qcurve" smooth="yes"/>
      <point x="1090" y="432" type="line"/>
    </contour>
  </outline>
</glyph>
<glyph name="three" format="1">
  <advance width="1136"/>
  <unicode hex="0033"/>
  <outline>
    <contour>
      <point x="509" y="-20" type="qcurve" smooth="yes"/>
      <point x="427" y="-20"/>
      <point x="301" y="5"/>
      <point x="201" y="42"/>
      <point x="122" y="77"/>
      <point x="88" y="89" type="qcurve"/>
      <point x="131" y="441" type="line"/>
      <point x="297" y="424" type="line" smooth="yes"/>
      <point x="311" y="422"/>
      <point x="331" y="415"/>
      <point x="336" y="412" type="qcurve" smooth="yes"/>
      <point x="341" y="409" type="line"/>
      <point x="338" y="384" type="line" smooth="yes"/>
      <point x="332" y="344"/>
      <point x="332" y="297" type="qcurve" smooth="yes"/>
      <point x="332" y="251"/>
      <point x="363" y="167"/>
      <point x="447" y="112"/>
      <point x="528" y="112" type="qcurve" smooth="yes"/>
      <point x="643" y="112"/>
      <point x="820" y="290"/>
      <point x="839" y="423" type="qcurve"/>
      <point x="842" y="451"/>
      <point x="842" y="475" type="qcurve" smooth="yes"/>
      <point x="842" y="537"/>
      <point x="795" y="637"/>
      <point x="695" y="693"/>
      <point x="579" y="709"/>
      <point x="531" y="709" type="qcurve"/>
      <point x="476" y="708" type="line"/>
      <point x="497" y="881" type="line"/>
      <point x="534" y="881" type="line" smooth="yes"/>
      <point x="574" y="881"/>
      <point x="678" y="892"/>
      <point x="777" y="937"/>
      <point x="850" y="1031"/>
      <point x="861" y="1113" type="qcurve"/>
      <point x="864" y="1144"/>
      <point x="864" y="1170" type="qcurve" smooth="yes"/>
      <point x="864" y="1227"/>
      <point x="823" y="1314"/>
      <point x="721" y="1349"/>
      <point x="654" y="1349" type="qcurve" smooth="yes"/>
      <point x="590" y="1349"/>
      <point x="500" y="1277"/>
      <point x="440" y="1180"/>
      <point x="421" y="1139" type="qcurve" smooth="yes"/>
      <point x="408" y="1112"/>
      <point x="389" y="1080"/>
      <point x="382" y="1080" type="qcurve"/>
      <point x="402" y="1080"/>
      <point x="402" y="1077" type="qcurve" smooth="yes"/>
      <point x="402" y="1070"/>
      <point x="369" y="1066" type="qcurve"/>
      <point x="216" y="1051" type="line"/>
      <point x="256" y="1374" type="line"/>
      <point x="290" y="1385"/>
      <point x="371" y="1419"/>
      <point x="471" y="1455"/>
      <point x="594" y="1479"/>
      <point x="671" y="1479" type="qcurve" smooth="yes"/>
      <point x="906" y="1479"/>
      <point x="1027" y="1389" type="qcurve" smooth="yes"/>
      <point x="1130" y="1313"/>
      <point x="1130" y="1166" type="qcurve" smooth="yes"/>
      <point x="1130" y="1140"/>
      <point x="1127" y="1111" type="qcurve"/>
      <point x="1116" y="1032"/>
      <point x="1013" y="903"/>
      <point x="876" y="825"/>
      <point x="819" y="825" type="qcurve"/>
      <point x="852" y="803" type="line"/>
      <point x="913" y="803"/>
      <point x="1040" y="698"/>
      <point x="1078" y="616" type="qcurve" smooth="yes"/>
      <point x="1109" y="550"/>
      <point x="1109" y="476" type="qcurve" smooth="yes"/>
      <point x="1109" y="459"/>
      <point x="1107" y="441" type="qcurve" smooth="yes"/>
      <point x="1085" y="246"/>
      <point x="953" y="123" type="qcurve" smooth="yes"/>
      <point x="801" y="-20"/>
    </contour>
  </outline>
</glyph>
<glyph name="four" format="1">
  <advance width="1178"/>
  <unicode hex="0034"/>
  <outline>
    <contour>
      <point x="1028" y="-20" type="line"/>
      <point x="867" y="-8"/>
      <point x="757" y="-6" type="qcurve"/>
      <point x="644" y="-8"/>
      <point x="485" y="-20" type="qcurve"/>
      <point x="508" y="92" type="line"/>
      <point x="513" y="95" type="line" smooth="yes"/>
      <point x="518" y="98"/>
      <point x="537" y="105"/>
      <point x="551" y="107" type="qcurve" smooth="yes"/>
      <point x="659" y="119" type="line"/>
      <point x="655" y="119"/>
      <point x="655" y="126" type="qcurve"/>
      <point x="687" y="390" type="line"/>
      <point x="67" y="390" type="line"/>
      <point x="79" y="490" type="line"/>
      <point x="822" y="1517" type="line"/>
      <point x="988" y="1408" type="line"/>
      <point x="363" y="534" type="line"/>
      <point x="705" y="534" type="line"/>
      <point x="759" y="981" type="line"/>
      <point x="1003" y="981" type="line"/>
      <point x="949" y="534" type="line"/>
      <point x="1151" y="534" type="line"/>
      <point x="1133" y="390" type="line"/>
      <point x="931" y="390" type="line"/>
      <point x="897" y="116" type="line"/>
      <point x="885" y="120" type="line"/>
      <point x="991" y="107" type="line" smooth="yes"/>
      <point x="1005" y="105"/>
      <point x="1023" y="98"/>
      <point x="1027" y="95" type="qcurve" smooth="yes"/>
      <point x="1030" y="92" type="line"/>
    </contour>
  </outline>
</glyph>
<glyph name="five" format="1">
  <advance width="1125"/>
  <unicode hex="0035"/>
  <outline>
    <contour>
      <point x="494" y="-20" type="qcurve" smooth="yes"/>
      <point x="411" y="-20"/>
      <point x="284" y="5"/>
      <point x="184" y="42"/>
      <point x="104" y="78"/>
      <point x="70" y="90" type="qcurve"/>
      <point x="113" y="440" type="line"/>
      <point x="280" y="424" type="line"/>
      <point x="292" y="422"/>
      <point x="311" y="415"/>
      <point x="317" y="412" type="qcurve" smooth="yes"/>
      <point x="322" y="409" type="line"/>
      <point x="320" y="389" type="line"/>
      <point x="314" y="348"/>
      <point x="314" y="295" type="qcurve" smooth="yes"/>
      <point x="314" y="112"/>
      <point x="513" y="112" type="qcurve" smooth="yes"/>
      <point x="792" y="112"/>
      <point x="833" y="471" type="qcurve" smooth="yes"/>
      <point x="837" y="505"/>
      <point x="837" y="536" type="qcurve" smooth="yes"/>
      <point x="837" y="608"/>
      <point x="784" y="730"/>
      <point x="657" y="796"/>
      <point x="577" y="796" type="qcurve" smooth="yes"/>
      <point x="507" y="796"/>
      <point x="400" y="772"/>
      <point x="339" y="749" type="qcurve"/>
      <point x="197" y="853" type="line"/>
      <point x="343" y="1449" type="line"/>
      <point x="1119" y="1449" type="line"/>
      <point x="1107" y="1095" type="line"/>
      <point x="933" y="1114" type="line"/>
      <point x="911" y="1118"/>
      <point x="890" y="1132"/>
      <point x="890" y="1137" type="qcurve"/>
      <point x="868" y="1299" type="line"/>
      <point x="869" y="1301"/>
      <point x="871" y="1301" type="qcurve"/>
      <point x="879" y="1300" type="line"/>
      <point x="819" y="1305"/>
      <point x="781" y="1305" type="qcurve" smooth="yes"/>
      <point x="551" y="1305" type="line"/>
      <point x="459" y="930" type="line"/>
      <point x="456" y="930" type="line"/>
      <point x="457" y="933"/>
      <point x="531" y="947"/>
      <point x="591" y="947" type="qcurve" smooth="yes"/>
      <point x="867" y="947"/>
      <point x="997" y="817" type="qcurve" smooth="yes"/>
      <point x="1103" y="710"/>
      <point x="1103" y="526" type="qcurve" smooth="yes"/>
      <point x="1103" y="271"/>
      <point x="942" y="123" type="qcurve" smooth="yes"/>
      <point x="788" y="-20"/>
    </contour>
  </outline>
</glyph>
<glyph name="six" format="1">
  <advance width="1228"/>
  <unicode hex="0036"/>
  <outline>
    <contour>
      <point x="651" y="121" type="line" smooth="yes"/>
      <point x="738" y="121"/>
      <point x="864" y="226"/>
      <point x="902" y="310" type="qcurve" smooth="yes"/>
      <point x="957" y="432"/>
      <point x="957" y="573" type="qcurve" smooth="yes"/>
      <point x="957" y="616"/>
      <point x="938" y="735"/>
      <point x="849" y="834"/>
      <point x="762" y="834" type="qcurve" smooth="yes"/>
      <point x="694" y="834"/>
      <point x="629" y="808" type="qcurve" smooth="yes"/>
      <point x="437" y="731"/>
      <point x="437" y="434" type="qcurve" smooth="yes"/>
      <point x="437" y="315"/>
      <point x="535" y="130"/>
      <point x="638" y="121" type="qcurve"/>
    </contour>
    <contour>
      <point x="646" y="-20" type="qcurve" smooth="yes"/>
      <point x="619" y="-20"/>
      <point x="591" y="-18" type="qcurve"/>
      <point x="394" y="1"/>
      <point x="210" y="224"/>
      <point x="191" y="381" type="qcurve"/>
      <point x="183" y="454"/>
      <point x="183" y="527" type="qcurve" smooth="yes"/>
      <point x="183" y="612"/>
      <point x="194" y="697" type="qcurve" smooth="yes"/>
      <point x="237" y="1047"/>
      <point x="382" y="1246" type="qcurve" smooth="yes"/>
      <point x="556" y="1485"/>
      <point x="894" y="1485" type="qcurve" smooth="yes"/>
      <point x="971" y="1485"/>
      <point x="1107" y="1442"/>
      <point x="1206" y="1379"/>
      <point x="1228" y="1348" type="qcurve"/>
      <point x="1208" y="1093" type="line"/>
      <point x="1051" y="1118" type="line"/>
      <point x="1040" y="1121"/>
      <point x="1023" y="1141"/>
      <point x="1023" y="1154" type="qcurve"/>
      <point x="1024" y="1172" type="line"/>
      <point x="1024" y="1201"/>
      <point x="997" y="1285"/>
      <point x="916" y="1359"/>
      <point x="846" y="1363" type="qcurve"/>
      <point x="753" y="1363"/>
      <point x="573" y="1146"/>
      <point x="517" y="950" type="qcurve"/>
      <point x="500" y="897"/>
      <point x="487" y="818" type="qcurve"/>
      <point x="436" y="822" type="line"/>
      <point x="475" y="880"/>
      <point x="679" y="973"/>
      <point x="790" y="973" type="qcurve" smooth="yes"/>
      <point x="1124" y="973"/>
      <point x="1192" y="735" type="qcurve"/>
      <point x="1213" y="666"/>
      <point x="1213" y="582" type="qcurve" smooth="yes"/>
      <point x="1213" y="374"/>
      <point x="1115" y="224" type="qcurve" smooth="yes"/>
      <point x="1042" y="112"/>
      <point x="803" y="-20"/>
    </contour>
  </outline>
</glyph>
<glyph name="seven" format="1">
  <advance width="1077"/>
  <unicode hex="0037"/>
  <outline>
    <contour>
      <point x="511" y="0" type="qcurve"/>
      <point x="226" y="0" type="line"/>
      <point x="262" y="253"/>
      <point x="509" y="695"/>
      <point x="664" y="910" type="qcurve" smooth="yes"/>
      <point x="794" y="1091"/>
      <point x="910" y="1283" type="qcurve"/>
      <point x="912" y="1304" type="line"/>
      <point x="639" y="1304" type="line" smooth="yes"/>
      <point x="579" y="1304"/>
      <point x="524" y="1300" type="qcurve" smooth="yes"/>
      <point x="488" y="1298" type="line"/>
      <point x="497" y="1299" type="line"/>
      <point x="499" y="1299"/>
      <point x="499" y="1297" type="qcurve"/>
      <point x="427" y="1126" type="line" smooth="yes"/>
      <point x="421" y="1110"/>
      <point x="356" y="1097"/>
      <point x="282" y="1091" type="qcurve"/>
      <point x="212" y="1084" type="line"/>
      <point x="259" y="1455" type="line"/>
      <point x="1180" y="1455" type="line"/>
      <point x="1200" y="1336" type="line"/>
      <point x="1107" y="1185"/>
      <point x="1007" y="1032" type="qcurve"/>
      <point x="892" y="859"/>
      <point x="682" y="512"/>
      <point x="533" y="168"/>
    </contour>
  </outline>
</glyph>
<glyph name="eight" format="1">
  <advance width="1239"/>
  <unicode hex="0038"/>
  <outline>
    <contour>
      <point x="629" y="114" type="qcurve" smooth="yes"/>
      <point x="702" y="114"/>
      <point x="828" y="164"/>
      <point x="870" y="218" type="qcurve" smooth="yes"/>
      <point x="922" y="285"/>
      <point x="924" y="393" type="qcurve"/>
      <point x="924" y="473"/>
      <point x="852" y="579"/>
      <point x="734" y="648"/>
      <point x="671" y="675" type="qcurve" smooth="yes"/>
      <point x="636" y="691" type="line"/>
      <point x="650" y="691" type="line"/>
      <point x="540" y="639"/>
      <point x="395" y="498"/>
      <point x="378" y="372" type="qcurve" smooth="yes"/>
      <point x="375" y="347"/>
      <point x="375" y="324" type="qcurve" smooth="yes"/>
      <point x="375" y="263"/>
      <point x="426" y="164"/>
      <point x="548" y="114"/>
    </contour>
    <contour>
      <point x="613" y="-20" type="qcurve" smooth="yes"/>
      <point x="484" y="-20"/>
      <point x="249" y="62"/>
      <point x="180" y="144" type="qcurve"/>
      <point x="122" y="215"/>
      <point x="122" y="314" type="qcurve" smooth="yes"/>
      <point x="122" y="332"/>
      <point x="124" y="350" type="qcurve" smooth="yes"/>
      <point x="143" y="487"/>
      <point x="336" y="690"/>
      <point x="486" y="767" type="qcurve"/>
      <point x="503" y="767" type="line"/>
      <point x="387" y="829"/>
      <point x="323" y="916" type="qcurve" smooth="yes"/>
      <point x="264" y="996"/>
      <point x="264" y="1117" type="qcurve"/>
      <point x="265" y="1140" type="line"/>
      <point x="291" y="1297"/>
      <point x="578" y="1489"/>
      <point x="756" y="1489" type="qcurve" smooth="yes"/>
      <point x="887" y="1489"/>
      <point x="1099" y="1413"/>
      <point x="1156" y="1336" type="qcurve" smooth="yes"/>
      <point x="1204" y="1272"/>
      <point x="1204" y="1181" type="qcurve" smooth="yes"/>
      <point x="1204" y="1164"/>
      <point x="1202" y="1145" type="qcurve" smooth="yes"/>
      <point x="1194" y="1064"/>
      <point x="1115" y="964" type="qcurve"/>
      <point x="1053" y="889"/>
      <point x="914" y="810" type="qcurve"/>
      <point x="1050" y="736"/>
      <point x="1124" y="631" type="qcurve" smooth="yes"/>
      <point x="1186" y="544"/>
      <point x="1186" y="432" type="qcurve" smooth="yes"/>
      <point x="1186" y="411"/>
      <point x="1184" y="389" type="qcurve"/>
      <point x="1166" y="263"/>
      <point x="1001" y="80"/>
      <point x="752" y="-20"/>
    </contour>
    <contour>
      <point x="762" y="883" type="qcurve"/>
      <point x="748" y="883" type="line"/>
      <point x="825" y="924"/>
      <point x="938" y="1043"/>
      <point x="955" y="1146" type="qcurve"/>
      <point x="958" y="1170"/>
      <point x="958" y="1191" type="qcurve" smooth="yes"/>
      <point x="958" y="1240"/>
      <point x="920" y="1320"/>
      <point x="817" y="1360"/>
      <point x="740" y="1360" type="qcurve" smooth="yes"/>
      <point x="669" y="1360"/>
      <point x="541" y="1265"/>
      <point x="526" y="1171" type="qcurve"/>
      <point x="525" y="1149" type="line"/>
      <point x="525" y="1093"/>
      <point x="591" y="991"/>
      <point x="705" y="908"/>
    </contour>
  </outline>
</glyph>
<glyph name="nine" format="1">
  <advance width="1158"/>
  <unicode hex="0039"/>
  <outline>
    <contour>
      <point x="577" y="593" type="qcurve" smooth="yes"/>
      <point x="688" y="593"/>
      <point x="868" y="774"/>
      <point x="891" y="921" type="qcurve"/>
      <point x="899" y="987"/>
      <point x="899" y="1041" type="qcurve" smooth="yes"/>
      <point x="899" y="1165"/>
      <point x="804" y="1356"/>
      <point x="695" y="1359" type="qcurve"/>
      <point x="616" y="1359"/>
      <point x="488" y="1242"/>
      <point x="447" y="1154" type="qcurve" smooth="yes"/>
      <point x="387" y="1026"/>
      <point x="387" y="889" type="qcurve" smooth="yes"/>
      <point x="387" y="837"/>
      <point x="412" y="704"/>
      <point x="502" y="593"/>
    </contour>
    <contour>
      <point x="469" y="-20" type="qcurve" smooth="yes"/>
      <point x="357" y="-20"/>
      <point x="131" y="66"/>
      <point x="91" y="112" type="qcurve"/>
      <point x="121" y="358" type="line"/>
      <point x="260" y="338" type="line"/>
      <point x="273" y="335"/>
      <point x="289" y="320"/>
      <point x="289" y="313" type="qcurve" smooth="yes"/>
      <point x="289" y="304" type="line" smooth="yes"/>
      <point x="289" y="280"/>
      <point x="324" y="196"/>
      <point x="411" y="121"/>
      <point x="480" y="118" type="qcurve"/>
      <point x="620" y="118"/>
      <point x="794" y="333"/>
      <point x="839" y="532" type="qcurve" smooth="yes"/>
      <point x="843" y="547"/>
      <point x="846" y="563" type="qcurve" smooth="yes"/>
      <point x="853" y="600"/>
      <point x="874" y="674" type="qcurve"/>
      <point x="911" y="639" type="line"/>
      <point x="900" y="615"/>
      <point x="835" y="546"/>
      <point x="735" y="479"/>
      <point x="608" y="434"/>
      <point x="535" y="434" type="qcurve" smooth="yes"/>
      <point x="406" y="434"/>
      <point x="234" y="525"/>
      <point x="186" y="601" type="qcurve" smooth="yes"/>
      <point x="113" y="714"/>
      <point x="113" y="876" type="qcurve" smooth="yes"/>
      <point x="113" y="920"/>
      <point x="118" y="964" type="qcurve" smooth="yes"/>
      <point x="137" y="1113"/>
      <point x="284" y="1349"/>
      <point x="534" y="1489"/>
      <point x="708" y="1489" type="qcurve" smooth="yes"/>
      <point x="885" y="1489"/>
      <point x="1105" y="1334"/>
      <point x="1147" y="1187" type="qcurve" smooth="yes"/>
      <point x="1174" y="1096"/>
      <point x="1174" y="981" type="qcurve" smooth="yes"/>
      <point x="1174" y="912"/>
      <point x="1164" y="834" type="qcurve" smooth="yes"/>
      <point x="1151" y="722"/>
      <point x="1133" y="621" type="qcurve" smooth="yes"/>
      <point x="1083" y="339"/>
      <point x="956" y="182" type="qcurve" smooth="yes"/>
      <point x="792" y="-20"/>
    </contour>
  </outline>
</glyph>
<glyph name="colon" format="1">
  <advance width="627"/>
  <unicode hex="003A"/>
  <outline>
    <contour>
      <point x="371" y="673" type="qcurve" smooth="yes"/>
      <point x="302" y="673"/>
      <point x="267" y="706" type="qcurve" smooth="yes"/>
      <point x="236" y="734"/>
      <point x="236" y="778" type="qcurve" smooth="yes"/>
      <point x="236" y="837"/>
      <point x="288" y="874" type="qcurve" smooth="yes"/>
      <point x="332" y="905"/>
      <point x="399" y="905" type="qcurve" smooth="yes"/>
      <point x="465" y="905"/>
      <point x="503" y="874" type="qcurve" smooth="yes"/>
      <point x="536" y="847"/>
      <point x="536" y="805" type="qcurve"/>
      <point x="535" y="793" type="line" smooth="yes"/>
      <point x="528" y="739"/>
      <point x="437" y="673"/>
    </contour>
    <contour>
      <point x="286" y="-20" type="qcurve" smooth="yes"/>
      <point x="217" y="-20"/>
      <point x="182" y="13" type="qcurve" smooth="yes"/>
      <point x="151" y="41"/>
      <point x="151" y="85" type="qcurve" smooth="yes"/>
      <point x="151" y="144"/>
      <point x="203" y="182" type="qcurve" smooth="yes"/>
      <point x="246" y="213"/>
      <point x="314" y="213" type="qcurve" smooth="yes"/>
      <point x="380" y="213"/>
      <point x="418" y="182" type="qcurve" smooth="yes"/>
      <point x="451" y="154"/>
      <point x="451" y="112" type="qcurve"/>
      <point x="450" y="100" type="line" smooth="yes"/>
      <point x="443" y="46"/>
      <point x="352" y="-20"/>
    </contour>
  </outline>
</glyph>
<glyph name="semicolon" format="1">
  <advance width="627"/>
  <unicode hex="003B"/>
  <outline>
    <contour>
      <point x="371" y="673" type="qcurve" smooth="yes"/>
      <point x="302" y="673"/>
      <point x="267" y="706" type="qcurve" smooth="yes"/>
      <point x="236" y="734"/>
      <point x="236" y="778" type="qcurve" smooth="yes"/>
      <point x="236" y="837"/>
      <point x="288" y="874" type="qcurve" smooth="yes"/>
      <point x="332" y="905"/>
      <point x="399" y="905" type="qcurve" smooth="yes"/>
      <point x="465" y="905"/>
      <point x="503" y="874" type="qcurve" smooth="yes"/>
      <point x="536" y="847"/>
      <point x="536" y="805" type="qcurve"/>
      <point x="535" y="793" type="line" smooth="yes"/>
      <point x="528" y="739"/>
      <point x="437" y="673"/>
    </contour>
    <contour>
      <point x="228" y="-216" type="qcurve" smooth="yes"/>
      <point x="142" y="-216" type="line"/>
      <point x="223" y="-20" type="line"/>
      <point x="184" y="-12"/>
      <point x="163" y="19" type="qcurve" smooth="yes"/>
      <point x="145" y="44"/>
      <point x="145" y="81" type="qcurve" smooth="yes"/>
      <point x="145" y="144"/>
      <point x="199" y="183" type="qcurve" smooth="yes"/>
      <point x="245" y="216"/>
      <point x="315" y="216" type="qcurve" smooth="yes"/>
      <point x="383" y="216"/>
      <point x="422" y="183" type="qcurve" smooth="yes"/>
      <point x="457" y="154"/>
      <point x="457" y="110" type="qcurve" smooth="yes"/>
      <point x="457" y="85"/>
      <point x="447" y="63" type="qcurve"/>
      <point x="428" y="3"/>
      <point x="345" y="-133"/>
      <point x="305" y="-190" type="qcurve"/>
      <point x="304" y="-193"/>
      <point x="302" y="-195" type="qcurve" smooth="yes"/>
      <point x="281" y="-216"/>
    </contour>
  </outline>
</glyph>
<glyph name="less" format="1">
  <advance width="1084"/>
  <unicode hex="003C"/>
  <outline>
    <contour>
      <point x="1125" y="1044" type="line"/>
      <point x="492" y="715" type="line"/>
      <point x="1045" y="390" type="line"/>
      <point x="1017" y="163" type="line"/>
      <point x="171" y="684" type="line"/>
      <point x="179" y="747" type="line"/>
      <point x="1153" y="1271" type="line"/>
    </contour>
  </outline>
</glyph>
<glyph name="equal" format="1">
  <advance width="1084"/>
  <unicode hex="003D"/>
  <outline>
    <contour>
      <point x="164" y="631" type="line"/>
      <point x="1074" y="631" type="line"/>
      <point x="1054" y="461" type="line"/>
      <point x="144" y="461" type="line"/>
    </contour>
    <contour>
      <point x="206" y="973" type="line"/>
      <point x="1116" y="973" type="line"/>
      <point x="1096" y="803" type="line"/>
      <point x="186" y="803" type="line"/>
    </contour>
  </outline>
</glyph>
<glyph name="greater" format="1">
  <advance width="1084"/>
  <unicode hex="003E"/>
  <outline>
    <contour>
      <point x="243" y="1271" type="line"/>
      <point x="1089" y="747" type="line"/>
      <point x="1081" y="684" type="line"/>
      <point x="107" y="163" type="line"/>
      <point x="135" y="390" type="line"/>
      <point x="777" y="715" type="line"/>
      <point x="215" y="1044" type="line"/>
    </contour>
  </outline>
</glyph>
<glyph name="question" format="1">
  <advance width="834"/>
  <unicode hex="003F"/>
  <outline>
    <contour>
      <point x="430" y="-138" type="qcurve" smooth="yes"/>
      <point x="351" y="-138"/>
      <point x="315" y="-99" type="qcurve" smooth="yes"/>
      <point x="286" y="-68"/>
      <point x="286" y="-19" type="qcurve" smooth="yes"/>
      <point x="286" y="58"/>
      <point x="340" y="101" type="qcurve" smooth="yes"/>
      <point x="385" y="136"/>
      <point x="464" y="136" type="qcurve" smooth="yes"/>
      <point x="546" y="136"/>
      <point x="581" y="100" type="qcurve" smooth="yes"/>
      <point x="609" y="72"/>
      <point x="609" y="26" type="qcurve" smooth="yes"/>
      <point x="609" y="-54"/>
      <point x="557" y="-99" type="qcurve" smooth="yes"/>
      <point x="513" y="-138"/>
    </contour>
    <contour>
      <point x="612" y="365" type="qcurve"/>
      <point x="373" y="365" type="line"/>
      <point x="394" y="472"/>
      <point x="411" y="600" type="qcurve"/>
      <point x="429" y="747" type="line"/>
      <point x="475" y="736"/>
      <point x="517" y="732"/>
      <point x="534" y="732" type="qcurve" smooth="yes"/>
      <point x="619" y="732"/>
      <point x="746" y="822"/>
      <point x="785" y="896" type="qcurve" smooth="yes"/>
      <point x="839" y="1000"/>
      <point x="839" y="1133" type="qcurve" smooth="yes"/>
      <point x="839" y="1181"/>
      <point x="815" y="1305"/>
      <point x="721" y="1406"/>
      <point x="634" y="1406" type="qcurve"/>
      <point x="540" y="1401"/>
      <point x="439" y="1303"/>
      <point x="415" y="1257" type="qcurve"/>
      <point x="404" y="1240" type="line"/>
      <point x="391" y="1211"/>
      <point x="371" y="1202" type="qcurve"/>
      <point x="250" y="1188" type="line"/>
      <point x="248" y="1188"/>
      <point x="245" y="1224" type="qcurve" smooth="yes"/>
      <point x="240" y="1272"/>
      <point x="240" y="1328" type="qcurve" smooth="yes"/>
      <point x="240" y="1375"/>
      <point x="245" y="1419" type="qcurve"/>
      <point x="299" y="1465"/>
      <point x="517" y="1533"/>
      <point x="643" y="1535" type="qcurve"/>
      <point x="808" y="1535"/>
      <point x="1023" y="1425"/>
      <point x="1069" y="1324" type="qcurve"/>
      <point x="1104" y="1251"/>
      <point x="1104" y="1157" type="qcurve" smooth="yes"/>
      <point x="1104" y="1123"/>
      <point x="1099" y="1086" type="qcurve" smooth="yes"/>
      <point x="1073" y="889"/>
      <point x="836" y="628"/>
      <point x="628" y="601" type="qcurve"/>
      <point x="613" y="467"/>
    </contour>
  </outline>
</glyph>
<glyph name="at" format="1">
  <advance width="2089"/>
  <unicode hex="0040"/>
  <outline>
    <contour>
      <point x="1094" y="623" type="qcurve"/>
      <point x="1027" y="615"/>
      <point x="882" y="482"/>
      <point x="865" y="343" type="qcurve" smooth="yes"/>
      <point x="851" y="227"/>
      <point x="952" y="62"/>
      <point x="1041" y="62" type="qcurve"/>
      <point x="1105" y="65"/>
      <point x="1154" y="226" type="qcurve"/>
      <point x="1204" y="633" type="line"/>
      <point x="1217" y="647"/>
    </contour>
    <contour>
      <point x="1398" y="29" type="qcurve"/>
      <point x="1321" y="30"/>
      <point x="1230" y="74"/>
      <point x="1237" y="61" type="qcurve"/>
      <point x="1248" y="74"/>
      <point x="1115" y="9"/>
      <point x="1019" y="9" type="qcurve" smooth="yes"/>
      <point x="852" y="9"/>
      <point x="641" y="220"/>
      <point x="656" y="343" type="qcurve"/>
      <point x="667" y="421"/>
      <point x="790" y="580"/>
      <point x="977" y="658"/>
      <point x="1078" y="673" type="qcurve"/>
      <point x="1134" y="686"/>
      <point x="1216" y="733"/>
      <point x="1223" y="792" type="qcurve"/>
      <point x="1230" y="869"/>
      <point x="1172" y="972"/>
      <point x="1110" y="972" type="qcurve" smooth="yes"/>
      <point x="1065" y="972"/>
      <point x="961" y="864"/>
      <point x="951" y="788" type="qcurve"/>
      <point x="836" y="788" type="line"/>
      <point x="855" y="947" type="line" smooth="yes"/>
      <point x="857" y="960"/>
      <point x="949" y="985" type="qcurve" smooth="yes"/>
      <point x="1033" y="1007"/>
      <point x="1148" y="1007" type="qcurve"/>
      <point x="1278" y="1005"/>
      <point x="1444" y="870"/>
      <point x="1433" y="785" type="qcurve" smooth="yes"/>
      <point x="1361" y="196" type="line" smooth="yes"/>
      <point x="1347" y="79"/>
      <point x="1399" y="79" type="qcurve"/>
      <point x="1561" y="109"/>
      <point x="1761" y="419"/>
      <point x="1790" y="654" type="qcurve"/>
      <point x="1812" y="999"/>
      <point x="1624" y="1205" type="qcurve"/>
      <point x="1461" y="1381"/>
      <point x="1203" y="1381" type="qcurve" smooth="yes"/>
      <point x="1018" y="1381"/>
      <point x="628" y="1118"/>
      <point x="518" y="899" type="qcurve" smooth="yes"/>
      <point x="427" y="716"/>
      <point x="404" y="527" type="qcurve" smooth="yes"/>
      <point x="364" y="205"/>
      <point x="575" y="-193"/>
      <point x="885" y="-367"/>
      <point x="1012" y="-367" type="qcurve" smooth="yes"/>
      <point x="1266" y="-367"/>
      <point x="1652" y="-121" type="qcurve"/>
      <point x="1640" y="-224" type="line"/>
      <point x="1338" y="-418"/>
      <point x="1010" y="-418" type="qcurve" smooth="yes"/>
      <point x="753" y="-418"/>
      <point x="322" y="-162"/>
      <point x="134" y="274"/>
      <point x="162" y="508" type="qcurve" smooth="yes"/>
      <point x="191" y="742"/>
      <point x="492" y="1184"/>
      <point x="985" y="1434"/>
      <point x="1237" y="1434" type="qcurve" smooth="yes"/>
      <point x="1623" y="1434"/>
      <point x="2070" y="964"/>
      <point x="2030" y="638" type="qcurve" smooth="yes"/>
      <point x="1998" y="378"/>
      <point x="1790" y="199" type="qcurve" smooth="yes"/>
      <point x="1594" y="31"/>
    </contour>
  </outline>
</glyph>
<glyph name="A" format="1">
  <advance width="1470"/>
  <unicode hex="0041"/>
  <outline>
    <contour>
      <point x="1448" y="-19" type="line"/>
      <point x="1270" y="-6"/>
      <point x="1145" y="-6" type="qcurve" smooth="yes"/>
      <point x="1021" y="-6"/>
      <point x="840" y="-19" type="qcurve"/>
      <point x="865" y="101" type="line"/>
      <point x="865" y="102"/>
      <point x="888" y="115"/>
      <point x="910" y="118" type="qcurve"/>
      <point x="1027" y="130" type="line"/>
      <point x="1023" y="130"/>
      <point x="1023" y="135" type="qcurve"/>
      <point x="1025" y="151" type="line"/>
      <point x="1024" y="162"/>
      <point x="962" y="428" type="qcurve"/>
      <point x="527" y="428" type="line"/>
      <point x="398" y="149" type="line"/>
      <point x="398" y="136" type="line" smooth="yes"/>
      <point x="398" y="131"/>
      <point x="393" y="131" type="qcurve"/>
      <point x="506" y="118" type="line"/>
      <point x="527" y="114"/>
      <point x="545" y="103"/>
      <point x="545" y="100" type="qcurve"/>
      <point x="543" y="-19" type="line"/>
      <point x="500" y="-17" type="line"/>
      <point x="357" y="-8"/>
      <point x="266" y="-6" type="qcurve"/>
      <point x="174" y="-8"/>
      <point x="28" y="-17" type="qcurve" smooth="yes"/>
      <point x="-12" y="-19" type="line"/>
      <point x="13" y="101" type="line"/>
      <point x="13" y="102"/>
      <point x="36" y="115"/>
      <point x="58" y="118" type="qcurve" smooth="yes"/>
      <point x="182" y="132" type="line"/>
      <point x="171" y="130" type="line"/>
      <point x="169" y="130"/>
      <point x="169" y="132" type="qcurve"/>
      <point x="171" y="138"/>
      <point x="324" y="445" type="qcurve"/>
      <point x="685" y="1230" type="line"/>
      <point x="705" y="1278"/>
      <point x="709" y="1292" type="qcurve"/>
      <point x="711" y="1309"/>
      <point x="716" y="1309" type="qcurve"/>
      <point x="597" y="1324" type="line" smooth="yes"/>
      <point x="578" y="1327"/>
      <point x="558" y="1339"/>
      <point x="558" y="1341" type="qcurve"/>
      <point x="559" y="1449" type="line"/>
      <point x="980" y="1449" type="line"/>
      <point x="1304" y="131" type="line"/>
      <point x="1304" y="130"/>
      <point x="1303" y="130" type="qcurve"/>
      <point x="1290" y="132" type="line"/>
      <point x="1410" y="118" type="line" smooth="yes"/>
      <point x="1425" y="116"/>
      <point x="1443" y="109"/>
      <point x="1451" y="103"/>
      <point x="1451" y="101" type="qcurve"/>
    </contour>
    <contour>
      <point x="932" y="556" type="line"/>
      <point x="815" y="1056" type="line"/>
      <point x="585" y="556" type="line"/>
    </contour>
  </outline>
</glyph>
<glyph name="B" format="1">
  <advance width="1355"/>
  <unicode hex="0042"/>
  <outline>
    <contour>
      <point x="42" y="-20" type="qcurve"/>
      <point x="68" y="101" type="line"/>
      <point x="68" y="102"/>
      <point x="78" y="108"/>
      <point x="97" y="116"/>
      <point x="111" y="118" type="qcurve" smooth="yes"/>
      <point x="239" y="133" type="line"/>
      <point x="235" y="132" type="line"/>
      <point x="231" y="132"/>
      <point x="227" y="133"/>
      <point x="227" y="141" type="qcurve"/>
      <point x="297" y="719" type="line" smooth="yes"/>
      <point x="368" y="1297"/>
      <point x="370" y="1304"/>
      <point x="375" y="1305"/>
      <point x="381" y="1305" type="qcurve"/>
      <point x="382" y="1304" type="line"/>
      <point x="241" y="1327"/>
      <point x="237" y="1329" type="qcurve" smooth="yes"/>
      <point x="220" y="1337"/>
      <point x="220" y="1341" type="qcurve"/>
      <point x="222" y="1449" type="line"/>
      <point x="857" y="1449" type="line" smooth="yes"/>
      <point x="1279" y="1449"/>
      <point x="1279" y="1146" type="qcurve" smooth="yes"/>
      <point x="1279" y="897"/>
      <point x="1047" y="799" type="qcurve"/>
      <point x="1312" y="718"/>
      <point x="1312" y="474" type="qcurve" smooth="yes"/>
      <point x="1312" y="443"/>
      <point x="1308" y="409" type="qcurve" smooth="yes"/>
      <point x="1289" y="255"/>
      <point x="1133" y="73"/>
      <point x="865" y="-5"/>
      <point x="676" y="-5" type="qcurve" smooth="yes"/>
      <point x="354" y="-5" type="line" smooth="yes"/>
      <point x="239" y="-5"/>
    </contour>
    <contour>
      <point x="808" y="833" type="line" smooth="yes"/>
      <point x="875" y="833"/>
      <point x="961" y="915"/>
      <point x="984" y="973" type="qcurve" smooth="yes"/>
      <point x="1015" y="1054"/>
      <point x="1015" y="1136" type="qcurve" smooth="yes"/>
      <point x="1015" y="1171"/>
      <point x="999" y="1256"/>
      <point x="929" y="1322"/>
      <point x="859" y="1322" type="qcurve"/>
      <point x="814" y="1323"/>
      <point x="627" y="1323" type="qcurve"/>
      <point x="567" y="833" type="line"/>
    </contour>
    <contour>
      <point x="720" y="128" type="line" smooth="yes"/>
      <point x="879" y="128"/>
      <point x="1025" y="258"/>
      <point x="1042" y="412" type="qcurve"/>
      <point x="1047" y="446"/>
      <point x="1047" y="477" type="qcurve" smooth="yes"/>
      <point x="1047" y="696"/>
      <point x="804" y="696" type="qcurve" smooth="yes"/>
      <point x="551" y="696" type="line"/>
      <point x="481" y="128" type="line"/>
    </contour>
  </outline>
</glyph>
<glyph name="C" format="1">
  <advance width="1327"/>
  <unicode hex="0043"/>
  <outline>
    <contour>
      <point x="735" y="-20" type="qcurve" smooth="yes"/>
      <point x="421" y="-20"/>
      <point x="273" y="166" type="qcurve" smooth="yes"/>
      <point x="159" y="309"/>
      <point x="159" y="567" type="qcurve" smooth="yes"/>
      <point x="159" y="645"/>
      <point x="169" y="733" type="qcurve"/>
      <point x="216" y="1108"/>
      <point x="587" y="1478"/>
      <point x="903" y="1478" type="qcurve" smooth="yes"/>
      <point x="987" y="1478"/>
      <point x="1166" y="1451"/>
      <point x="1324" y="1386"/>
      <point x="1379" y="1328" type="qcurve"/>
      <point x="1337" y="984" type="line"/>
      <point x="1184" y="1002" type="line" smooth="yes"/>
      <point x="1164" y="1004"/>
      <point x="1146" y="1020"/>
      <point x="1145" y="1026" type="qcurve" smooth="yes"/>
      <point x="1139" y="1063"/>
      <point x="1135" y="1095" type="qcurve" smooth="yes"/>
      <point x="1125" y="1179"/>
      <point x="1097" y="1275"/>
      <point x="1062" y="1295" type="qcurve"/>
      <point x="984" y="1335"/>
      <point x="885" y="1335" type="qcurve" smooth="yes"/>
      <point x="714" y="1335"/>
      <point x="484" y="1039"/>
      <point x="445" y="733" type="qcurve"/>
      <point x="434" y="640"/>
      <point x="434" y="561" type="qcurve" smooth="yes"/>
      <point x="434" y="381"/>
      <point x="573" y="121"/>
      <point x="753" y="121" type="qcurve" smooth="yes"/>
      <point x="816" y="121"/>
      <point x="926" y="134"/>
      <point x="975" y="165" type="qcurve" smooth="yes"/>
      <point x="996" y="179"/>
      <point x="1007" y="195"/>
      <point x="1077" y="345" type="qcurve" smooth="yes"/>
      <point x="1082" y="356"/>
      <point x="1108" y="374"/>
      <point x="1120" y="377" type="qcurve"/>
      <point x="1275" y="398" type="line"/>
      <point x="1244" y="139" type="line"/>
      <point x="1184" y="81"/>
      <point x="1013" y="11"/>
      <point x="822" y="-20"/>
    </contour>
  </outline>
</glyph>
<glyph name="D" format="1">
  <advance width="1492"/>
  <unicode hex="0044"/>
  <outline>
    <contour>
      <point x="97" y="-21" type="qcurve"/>
      <point x="123" y="100" type="line"/>
      <point x="123" y="102"/>
      <point x="145" y="114"/>
      <point x="167" y="117" type="qcurve" smooth="yes"/>
      <point x="290" y="131" type="line"/>
      <point x="286" y="131" type="line"/>
      <point x="285" y="131"/>
      <point x="281" y="131"/>
      <point x="281" y="135" type="qcurve" smooth="yes"/>
      <point x="281" y="139"/>
      <point x="423" y="1296"/>
      <point x="425" y="1304"/>
      <point x="428" y="1305"/>
      <point x="430" y="1305" type="qcurve"/>
      <point x="433" y="1304" type="line"/>
      <point x="375" y="1314" type="line"/>
      <point x="300" y="1325"/>
      <point x="283" y="1332"/>
      <point x="279" y="1336" type="qcurve" smooth="yes"/>
      <point x="275" y="1339" type="line"/>
      <point x="277" y="1448" type="line"/>
      <point x="880" y="1448" type="line" smooth="yes"/>
      <point x="1098" y="1448"/>
      <point x="1397" y="1296"/>
      <point x="1463" y="1136" type="qcurve" smooth="yes"/>
      <point x="1509" y="1026"/>
      <point x="1509" y="873" type="qcurve" smooth="yes"/>
      <point x="1509" y="804"/>
      <point x="1500" y="727" type="qcurve" smooth="yes"/>
      <point x="1468" y="472"/>
      <point x="1256" y="148"/>
      <point x="919" y="-7"/>
      <point x="701" y="-7" type="qcurve"/>
      <point x="399" y="-6" type="line"/>
      <point x="289" y="-8"/>
    </contour>
    <contour>
      <point x="776" y="127" type="line" smooth="yes"/>
      <point x="957" y="127"/>
      <point x="1183" y="417"/>
      <point x="1222" y="727" type="qcurve" smooth="yes"/>
      <point x="1234" y="824"/>
      <point x="1234" y="905" type="qcurve" smooth="yes"/>
      <point x="1234" y="998"/>
      <point x="1188" y="1201"/>
      <point x="1036" y="1323"/>
      <point x="923" y="1323" type="qcurve" smooth="yes"/>
      <point x="691" y="1323" type="line"/>
      <point x="544" y="127" type="line"/>
    </contour>
  </outline>
</glyph>
<glyph name="E" format="1">
  <advance width="1430"/>
  <unicode hex="0045"/>
  <outline>
    <contour>
      <point x="96" y="-20" type="qcurve"/>
      <point x="122" y="102" type="line" smooth="yes"/>
      <point x="125" y="116"/>
      <point x="168" y="119" type="qcurve"/>
      <point x="294" y="133" type="line"/>
      <point x="280" y="132"/>
      <point x="282" y="151" type="qcurve" smooth="yes"/>
      <point x="421" y="1286" type="line"/>
      <point x="425" y="1306"/>
      <point x="434" y="1305" type="qcurve"/>
      <point x="315" y="1323" type="line"/>
      <point x="274" y="1326"/>
      <point x="274" y="1339" type="qcurve"/>
      <point x="277" y="1448" type="line"/>
      <point x="1383" y="1448" type="line"/>
      <point x="1340" y="1097" type="line"/>
      <point x="1190" y="1113" type="line"/>
      <point x="1164" y="1117"/>
      <point x="1148" y="1133"/>
      <point x="1148" y="1135" type="qcurve"/>
      <point x="1119" y="1288" type="line"/>
      <point x="1119" y="1296"/>
      <point x="1131" y="1295" type="qcurve"/>
      <point x="964" y="1303"/>
      <point x="782" y="1309"/>
      <point x="683" y="1309" type="qcurve"/>
      <point x="622" y="817" type="line"/>
      <point x="1182" y="817" type="line"/>
      <point x="1165" y="673" type="line"/>
      <point x="605" y="673" type="line"/>
      <point x="538" y="134" type="line"/>
      <point x="611" y="134"/>
      <point x="742" y="136"/>
      <point x="901" y="142"/>
      <point x="1038" y="148" type="qcurve"/>
      <point x="1028" y="147"/>
      <point x="1030" y="150" type="qcurve" smooth="yes"/>
      <point x="1120" y="280" type="line" smooth="yes"/>
      <point x="1124" y="286"/>
      <point x="1148" y="304"/>
      <point x="1174" y="308" type="qcurve"/>
      <point x="1356" y="325" type="line"/>
      <point x="1234" y="-5" type="line"/>
      <point x="360" y="-5" type="line"/>
      <point x="258" y="-8"/>
    </contour>
  </outline>
</glyph>
<glyph name="F" format="1">
  <advance width="1209"/>
  <unicode hex="0046"/>
  <outline>
    <contour>
      <point x="675" y="-19" type="line"/>
      <point x="587" y="-13"/>
      <point x="485" y="-7"/>
      <point x="407" y="-5"/>
      <point x="350" y="-5" type="qcurve"/>
      <point x="246" y="-6"/>
      <point x="87" y="-19" type="qcurve"/>
      <point x="114" y="102" type="line"/>
      <point x="114" y="103"/>
      <point x="135" y="115"/>
      <point x="157" y="118" type="qcurve" smooth="yes"/>
      <point x="275" y="132" type="line"/>
      <point x="271" y="132"/>
      <point x="271" y="137" type="qcurve"/>
      <point x="342" y="714" type="line" smooth="yes"/>
      <point x="413" y="1298"/>
      <point x="416" y="1305"/>
      <point x="420" y="1305" type="qcurve"/>
      <point x="304" y="1323" type="line" smooth="yes"/>
      <point x="291" y="1325"/>
      <point x="273" y="1332"/>
      <point x="266" y="1338"/>
      <point x="266" y="1340" type="qcurve"/>
      <point x="268" y="1448" type="line"/>
      <point x="1295" y="1448" type="line"/>
      <point x="1252" y="1096" type="line"/>
      <point x="1102" y="1113" type="line"/>
      <point x="1078" y="1117"/>
      <point x="1058" y="1132"/>
      <point x="1058" y="1136" type="qcurve"/>
      <point x="1030" y="1294" type="line"/>
      <point x="1031" y="1297"/>
      <point x="1033" y="1297" type="qcurve"/>
      <point x="1042" y="1295" type="line"/>
      <point x="1002" y="1297" type="line" smooth="yes"/>
      <point x="792" y="1309"/>
      <point x="674" y="1309" type="qcurve"/>
      <point x="613" y="817" type="line"/>
      <point x="1081" y="817" type="line"/>
      <point x="1064" y="675" type="line"/>
      <point x="596" y="675" type="line"/>
      <point x="531" y="149" type="line" smooth="yes"/>
      <point x="529" y="132"/>
      <point x="524" y="132" type="qcurve"/>
      <point x="638" y="118" type="line" smooth="yes"/>
      <point x="653" y="116"/>
      <point x="670" y="109"/>
      <point x="679" y="103"/>
      <point x="679" y="102" type="qcurve"/>
    </contour>
  </outline>
</glyph>
<glyph name="G" format="1">
  <advance width="1360"/>
  <unicode hex="0047"/>
  <outline>
    <contour>
      <point x="751" y="-20" type="qcurve" smooth="yes"/>
      <point x="436" y="-20"/>
      <point x="288" y="166" type="qcurve" smooth="yes"/>
      <point x="174" y="310"/>
      <point x="174" y="567" type="qcurve" smooth="yes"/>
      <point x="174" y="645"/>
      <point x="184" y="733" type="qcurve"/>
      <point x="231" y="1108"/>
      <point x="602" y="1477"/>
      <point x="917" y="1477" type="qcurve" smooth="yes"/>
      <point x="1002" y="1477"/>
      <point x="1181" y="1450"/>
      <point x="1338" y="1385"/>
      <point x="1394" y="1327" type="qcurve"/>
      <point x="1352" y="984" type="line"/>
      <point x="1198" y="1002" type="line" smooth="yes"/>
      <point x="1190" y="1003"/>
      <point x="1174" y="1018"/>
      <point x="1171" y="1030" type="qcurve" smooth="yes"/>
      <point x="1160" y="1076"/>
      <point x="1151" y="1119" type="qcurve" smooth="yes"/>
      <point x="1130" y="1224"/>
      <point x="1113" y="1259" type="qcurve"/>
      <point x="1101" y="1281"/>
      <point x="1077" y="1294" type="qcurve" smooth="yes"/>
      <point x="999" y="1334"/>
      <point x="900" y="1334" type="qcurve" smooth="yes"/>
      <point x="729" y="1334"/>
      <point x="499" y="1039"/>
      <point x="460" y="733" type="qcurve"/>
      <point x="449" y="640"/>
      <point x="449" y="561" type="qcurve" smooth="yes"/>
      <point x="449" y="381"/>
      <point x="588" y="122"/>
      <point x="768" y="122" type="qcurve" smooth="yes"/>
      <point x="831" y="122"/>
      <point x="941" y="135"/>
      <point x="989" y="165" type="qcurve" smooth="yes"/>
      <point x="1004" y="175"/>
      <point x="1021" y="195"/>
      <point x="1033" y="217" type="qcurve"/>
      <point x="1070" y="524"/>
      <point x="1073" y="530"/>
      <point x="1078" y="530" type="qcurve"/>
      <point x="901" y="542" type="line"/>
      <point x="884" y="544"/>
      <point x="868" y="564"/>
      <point x="868" y="572" type="qcurve"/>
      <point x="872" y="673" type="line"/>
      <point x="1349" y="673" type="line"/>
      <point x="1283" y="136" type="line"/>
      <point x="1249" y="135"/>
      <point x="1217" y="132"/>
      <point x="1198" y="122"/>
      <point x="1185" y="112" type="qcurve" smooth="yes"/>
      <point x="1001" y="-20"/>
    </contour>
  </outline>
</glyph>
<glyph name="H" format="1">
  <advance width="1621"/>
  <unicode hex="0048"/>
  <outline>
    <contour>
      <point x="1510" y="-20" type="line"/>
      <point x="1504" y="-20"/>
      <point x="1499" y="-19" type="qcurve"/>
      <point x="1416" y="-14"/>
      <point x="1318" y="-8"/>
      <point x="1242" y="-6"/>
      <point x="1185" y="-6" type="qcurve"/>
      <point x="1113" y="-7"/>
      <point x="922" y="-20" type="qcurve"/>
      <point x="947" y="101" type="line"/>
      <point x="947" y="102"/>
      <point x="969" y="114"/>
      <point x="991" y="117" type="qcurve" smooth="yes"/>
      <point x="1110" y="130" type="line"/>
      <point x="1106" y="130"/>
      <point x="1106" y="135" type="qcurve"/>
      <point x="1172" y="672" type="line"/>
      <point x="632" y="672" type="line"/>
      <point x="566" y="141" type="line"/>
      <point x="566" y="130"/>
      <point x="560" y="130" type="qcurve"/>
      <point x="675" y="117" type="line" smooth="yes"/>
      <point x="690" y="115"/>
      <point x="707" y="108"/>
      <point x="715" y="103"/>
      <point x="715" y="101" type="qcurve"/>
      <point x="712" y="-20" type="line"/>
      <point x="624" y="-14"/>
      <point x="522" y="-8"/>
      <point x="444" y="-6"/>
      <point x="387" y="-6" type="qcurve"/>
      <point x="315" y="-7"/>
      <point x="124" y="-20" type="qcurve"/>
      <point x="150" y="101" type="line"/>
      <point x="150" y="102"/>
      <point x="172" y="114"/>
      <point x="194" y="117" type="qcurve" smooth="yes"/>
      <point x="318" y="131" type="line"/>
      <point x="310" y="131"/>
      <point x="309" y="137"/>
      <point x="309" y="140" type="qcurve"/>
      <point x="379" y="717" type="line" smooth="yes"/>
      <point x="450" y="1297"/>
      <point x="453" y="1304"/>
      <point x="456" y="1304" type="qcurve"/>
      <point x="340" y="1322" type="line" smooth="yes"/>
      <point x="327" y="1324"/>
      <point x="310" y="1331"/>
      <point x="302" y="1338"/>
      <point x="302" y="1339" type="qcurve"/>
      <point x="304" y="1448" type="line"/>
      <point x="892" y="1448" type="line"/>
      <point x="867" y="1339" type="line"/>
      <point x="867" y="1334"/>
      <point x="849" y="1328" type="qcurve" smooth="yes"/>
      <point x="840" y="1324"/>
      <point x="705" y="1304" type="qcurve"/>
      <point x="709" y="1304"/>
      <point x="709" y="1299" type="qcurve"/>
      <point x="646" y="794" type="line"/>
      <point x="1186" y="794" type="line"/>
      <point x="1248" y="1295" type="line"/>
      <point x="1248" y="1304"/>
      <point x="1253" y="1304" type="qcurve"/>
      <point x="1138" y="1322" type="line" smooth="yes"/>
      <point x="1125" y="1324"/>
      <point x="1107" y="1331"/>
      <point x="1099" y="1338"/>
      <point x="1099" y="1339" type="qcurve"/>
      <point x="1102" y="1448" type="line"/>
      <point x="1690" y="1448" type="line"/>
      <point x="1664" y="1339" type="line"/>
      <point x="1664" y="1334"/>
      <point x="1646" y="1328" type="qcurve" smooth="yes"/>
      <point x="1636" y="1324"/>
      <point x="1502" y="1304" type="qcurve"/>
      <point x="1506" y="1304"/>
      <point x="1506" y="1300" type="qcurve"/>
      <point x="1435" y="713" type="line" smooth="yes"/>
      <point x="1364" y="134"/>
      <point x="1361" y="130"/>
      <point x="1359" y="130" type="qcurve"/>
      <point x="1472" y="117" type="line" smooth="yes"/>
      <point x="1487" y="115"/>
      <point x="1504" y="108"/>
      <point x="1512" y="103"/>
      <point x="1512" y="101" type="qcurve"/>
    </contour>
  </outline>
</glyph>
<glyph name="I" format="1">
  <advance width="828"/>
  <unicode hex="0049"/>
  <outline>
    <contour>
      <point x="705" y="-20" type="line"/>
      <point x="535" y="-7"/>
      <point x="444" y="-5" type="qcurve"/>
      <point x="387" y="-5"/>
      <point x="310" y="-7"/>
      <point x="117" y="-20" type="qcurve"/>
      <point x="144" y="103" type="line"/>
      <point x="144" y="104"/>
      <point x="165" y="116"/>
      <point x="188" y="119" type="qcurve" smooth="yes"/>
      <point x="306" y="132" type="line"/>
      <point x="302" y="132"/>
      <point x="302" y="137"/>
      <point x="302" y="141" type="qcurve" smooth="yes"/>
      <point x="302" y="144"/>
      <point x="443" y="1295"/>
      <point x="446" y="1306"/>
      <point x="449" y="1306" type="qcurve"/>
      <point x="334" y="1324" type="line"/>
      <point x="320" y="1325"/>
      <point x="303" y="1332"/>
      <point x="299" y="1335" type="qcurve" smooth="yes"/>
      <point x="295" y="1338" type="line"/>
      <point x="297" y="1449" type="line"/>
      <point x="885" y="1449" type="line"/>
      <point x="859" y="1338" type="line"/>
      <point x="855" y="1335" type="line" smooth="yes"/>
      <point x="850" y="1332"/>
      <point x="841" y="1329" type="qcurve" smooth="yes"/>
      <point x="837" y="1327"/>
      <point x="698" y="1306" type="qcurve"/>
      <point x="701" y="1306"/>
      <point x="701" y="1299" type="qcurve"/>
      <point x="700" y="1287" type="line" smooth="yes"/>
      <point x="560" y="146"/>
      <point x="559" y="131"/>
      <point x="555" y="131" type="qcurve"/>
      <point x="544" y="133" type="line"/>
      <point x="668" y="119" type="line" smooth="yes"/>
      <point x="682" y="117"/>
      <point x="700" y="110"/>
      <point x="708" y="104"/>
      <point x="708" y="103" type="qcurve"/>
    </contour>
  </outline>
</glyph>
<glyph name="J" format="1">
  <advance width="1118"/>
  <unicode hex="004A"/>
  <outline>
    <contour>
      <point x="459" y="-21" type="qcurve" smooth="yes"/>
      <point x="320" y="-21"/>
      <point x="130" y="54"/>
      <point x="96" y="107" type="qcurve"/>
      <point x="128" y="363" type="line"/>
      <point x="254" y="350"/>
      <point x="318" y="338"/>
      <point x="318" y="325" type="qcurve"/>
      <point x="350" y="169" type="line"/>
      <point x="352" y="150"/>
      <point x="398" y="120"/>
      <point x="471" y="120" type="qcurve" smooth="yes"/>
      <point x="638" y="120"/>
      <point x="662" y="296" type="qcurve"/>
      <point x="786" y="1293"/>
      <point x="789" y="1305"/>
      <point x="792" y="1305" type="qcurve"/>
      <point x="676" y="1323" type="line" smooth="yes"/>
      <point x="663" y="1325"/>
      <point x="646" y="1332"/>
      <point x="638" y="1338"/>
      <point x="638" y="1339" type="qcurve"/>
      <point x="641" y="1448" type="line"/>
      <point x="1228" y="1448" type="line"/>
      <point x="1203" y="1339" type="line"/>
      <point x="1203" y="1338"/>
      <point x="1181" y="1326"/>
      <point x="1160" y="1323" type="qcurve" smooth="yes"/>
      <point x="1041" y="1305" type="line"/>
      <point x="1045" y="1305"/>
      <point x="1045" y="1301" type="qcurve" smooth="yes"/>
      <point x="1045" y="1295"/>
      <point x="924" y="312" type="qcurve"/>
      <point x="904" y="157"/>
      <point x="659" y="-21"/>
    </contour>
  </outline>
</glyph>
<glyph name="K" format="1">
  <advance width="1524"/>
  <unicode hex="004B"/>
  <outline>
    <contour>
      <point x="1482" y="-20" type="line"/>
      <point x="1373" y="-12"/>
      <point x="1214" y="-5"/>
      <point x="1123" y="-5" type="qcurve"/>
      <point x="787" y="712" type="line"/>
      <point x="572" y="508" type="line"/>
      <point x="528" y="137"/>
      <point x="525" y="132"/>
      <point x="522" y="132" type="qcurve"/>
      <point x="638" y="119" type="line"/>
      <point x="658" y="115"/>
      <point x="676" y="104"/>
      <point x="676" y="101" type="qcurve"/>
      <point x="674" y="-20" type="line"/>
      <point x="583" y="-13"/>
      <point x="464" y="-6"/>
      <point x="412" y="-5" type="qcurve"/>
      <point x="354" y="-5"/>
      <point x="276" y="-7"/>
      <point x="174" y="-14"/>
      <point x="86" y="-20" type="qcurve"/>
      <point x="112" y="102" type="line"/>
      <point x="112" y="103"/>
      <point x="134" y="116"/>
      <point x="157" y="119" type="qcurve" smooth="yes"/>
      <point x="273" y="131" type="line"/>
      <point x="270" y="131"/>
      <point x="270" y="141" type="qcurve" smooth="yes"/>
      <point x="270" y="146"/>
      <point x="410" y="1288" type="qcurve" smooth="yes"/>
      <point x="412" y="1305"/>
      <point x="418" y="1305" type="qcurve"/>
      <point x="303" y="1324" type="line"/>
      <point x="281" y="1326"/>
      <point x="267" y="1336" type="qcurve"/>
      <point x="264" y="1341" type="line"/>
      <point x="266" y="1449" type="line"/>
      <point x="854" y="1449" type="line"/>
      <point x="829" y="1341" type="line" smooth="yes"/>
      <point x="828" y="1339"/>
      <point x="807" y="1327"/>
      <point x="787" y="1324" type="qcurve" smooth="yes"/>
      <point x="666" y="1305" type="line"/>
      <point x="670" y="1305"/>
      <point x="670" y="1298" type="qcurve"/>
      <point x="602" y="748" type="line"/>
      <point x="838" y="980"/>
      <point x="1097" y="1271" type="qcurve" smooth="yes"/>
      <point x="1099" y="1273"/>
      <point x="1102" y="1282"/>
      <point x="1104" y="1288" type="qcurve"/>
      <point x="1107" y="1306"/>
      <point x="1113" y="1306" type="qcurve"/>
      <point x="1122" y="1305" type="line"/>
      <point x="1019" y="1324" type="line" smooth="yes"/>
      <point x="999" y="1327"/>
      <point x="982" y="1338"/>
      <point x="982" y="1341" type="qcurve"/>
      <point x="983" y="1449" type="line"/>
      <point x="1526" y="1449" type="line"/>
      <point x="1501" y="1341" type="line" smooth="yes"/>
      <point x="1500" y="1339"/>
      <point x="1479" y="1327"/>
      <point x="1459" y="1324" type="qcurve" smooth="yes"/>
      <point x="1357" y="1309" type="line"/>
      <point x="1355" y="1308"/>
      <point x="1353" y="1307"/>
      <point x="1351" y="1306"/>
      <point x="1347" y="1301"/>
      <point x="976" y="901" type="qcurve"/>
      <point x="1338" y="136"/>
      <point x="1339" y="130" type="qcurve"/>
      <point x="1328" y="132" type="line"/>
      <point x="1445" y="118" type="line" smooth="yes"/>
      <point x="1460" y="116"/>
      <point x="1477" y="109"/>
      <point x="1485" y="103"/>
      <point x="1485" y="101" type="qcurve"/>
    </contour>
  </outline>
</glyph>
<glyph name="L" format="1">
  <advance width="1312"/>
  <unicode hex="004C"/>
  <outline>
    <contour>
      <point x="88" y="-19" type="qcurve"/>
      <point x="114" y="102" type="line"/>
      <point x="114" y="103"/>
      <point x="135" y="115"/>
      <point x="157" y="118" type="qcurve" smooth="yes"/>
      <point x="276" y="131" type="line"/>
      <point x="272" y="131"/>
      <point x="272" y="140" type="qcurve" smooth="yes"/>
      <point x="272" y="145"/>
      <point x="412" y="1287" type="qcurve" smooth="yes"/>
      <point x="414" y="1305"/>
      <point x="419" y="1305" type="qcurve"/>
      <point x="304" y="1323" type="line" smooth="yes"/>
      <point x="291" y="1325"/>
      <point x="273" y="1332"/>
      <point x="266" y="1338"/>
      <point x="266" y="1340" type="qcurve"/>
      <point x="268" y="1449" type="line"/>
      <point x="855" y="1449" type="line"/>
      <point x="830" y="1336" type="line"/>
      <point x="825" y="1335" type="line"/>
      <point x="816" y="1328"/>
      <point x="787" y="1323" type="qcurve" smooth="yes"/>
      <point x="661" y="1304" type="line"/>
      <point x="670" y="1306" type="line"/>
      <point x="672" y="1306"/>
      <point x="673" y="1305" type="qcurve"/>
      <point x="673" y="1300"/>
      <point x="529" y="134" type="qcurve"/>
      <point x="646" y="134"/>
      <point x="960" y="148" type="qcurve"/>
      <point x="951" y="146" type="line"/>
      <point x="949" y="146"/>
      <point x="948" y="147"/>
      <point x="948" y="149" type="qcurve"/>
      <point x="1035" y="414" type="line"/>
      <point x="1044" y="453"/>
      <point x="1090" y="458" type="qcurve" smooth="yes"/>
      <point x="1256" y="476" type="line"/>
      <point x="1194" y="141"/>
      <point x="1174" y="-5" type="qcurve"/>
      <point x="351" y="-5" type="line"/>
      <point x="300" y="-6"/>
      <point x="179" y="-13"/>
    </contour>
  </outline>
</glyph>
<glyph name="M" format="1">
  <advance width="1853"/>
  <unicode hex="004D"/>
  <outline>
    <contour>
      <point x="613" y="-20" type="line"/>
      <point x="439" y="-7"/>
      <point x="346" y="-5" type="qcurve"/>
      <point x="250" y="-7"/>
      <point x="77" y="-20" type="qcurve"/>
      <point x="103" y="102" type="line"/>
      <point x="103" y="103"/>
      <point x="125" y="116"/>
      <point x="148" y="119" type="qcurve" smooth="yes"/>
      <point x="272" y="133" type="line"/>
      <point x="263" y="130"/>
      <point x="260" y="130" type="qcurve"/>
      <point x="258" y="130"/>
      <point x="258" y="132" type="qcurve"/>
      <point x="260" y="136"/>
      <point x="402" y="1299" type="qcurve"/>
      <point x="402" y="1307"/>
      <point x="405" y="1307" type="qcurve"/>
      <point x="409" y="1306" type="line" smooth="yes"/>
      <point x="412" y="1305"/>
      <point x="354" y="1315" type="qcurve"/>
      <point x="280" y="1325"/>
      <point x="262" y="1332"/>
      <point x="255" y="1338"/>
      <point x="255" y="1340" type="qcurve"/>
      <point x="257" y="1449" type="line"/>
      <point x="529" y="1449"/>
      <point x="546" y="1448" type="qcurve"/>
      <point x="625" y="1440"/>
      <point x="651" y="1411" type="qcurve" smooth="yes"/>
      <point x="673" y="1386"/>
      <point x="687" y="1347" type="qcurve"/>
      <point x="690" y="1342"/>
      <point x="980" y="438" type="qcurve"/>
      <point x="1459" y="1348" type="line" smooth="yes"/>
      <point x="1484" y="1396"/>
      <point x="1573" y="1449"/>
      <point x="1618" y="1449" type="qcurve" smooth="yes"/>
      <point x="1943" y="1449" type="line"/>
      <point x="1919" y="1340" type="line"/>
      <point x="1912" y="1333"/>
      <point x="1900" y="1329" type="qcurve" smooth="yes"/>
      <point x="1895" y="1327"/>
      <point x="1757" y="1306" type="qcurve"/>
      <point x="1760" y="1306"/>
      <point x="1760" y="1302" type="qcurve"/>
      <point x="1759" y="1287" type="line"/>
      <point x="1618" y="138"/>
      <point x="1616" y="132"/>
      <point x="1611" y="132" type="qcurve"/>
      <point x="1726" y="119" type="line" smooth="yes"/>
      <point x="1740" y="117"/>
      <point x="1758" y="110"/>
      <point x="1767" y="103"/>
      <point x="1767" y="102" type="qcurve"/>
      <point x="1763" y="-19" type="line"/>
      <point x="1628" y="-12" type="line"/>
      <point x="1488" y="-6"/>
      <point x="1470" y="-6" type="qcurve" smooth="yes"/>
      <point x="1371" y="-6"/>
      <point x="1176" y="-19" type="qcurve"/>
      <point x="1202" y="101" type="line" smooth="yes"/>
      <point x="1203" y="103"/>
      <point x="1224" y="115"/>
      <point x="1246" y="119" type="qcurve"/>
      <point x="1372" y="133" type="line"/>
      <point x="1363" y="130"/>
      <point x="1360" y="130" type="qcurve" smooth="yes"/>
      <point x="1357" y="130"/>
      <point x="1357" y="133" type="qcurve"/>
      <point x="1359" y="137"/>
      <point x="1457" y="937" type="qcurve"/>
      <point x="994" y="69" type="line"/>
      <point x="969" y="69"/>
      <point x="950" y="66"/>
      <point x="933" y="66" type="qcurve" smooth="yes"/>
      <point x="905" y="66"/>
      <point x="837" y="94"/>
      <point x="824" y="129" type="qcurve"/>
      <point x="561" y="907" type="line"/>
      <point x="467" y="138"/>
      <point x="465" y="132"/>
      <point x="460" y="132" type="qcurve"/>
      <point x="577" y="119" type="line"/>
      <point x="597" y="115"/>
      <point x="615" y="104"/>
      <point x="615" y="101" type="qcurve"/>
    </contour>
  </outline>
</glyph>
<glyph name="N" format="1">
  <advance width="1629"/>
  <unicode hex="004E"/>
  <outline>
    <contour>
      <point x="654" y="-20" type="line"/>
      <point x="498" y="-8"/>
      <point x="387" y="-6" type="qcurve"/>
      <point x="277" y="-8"/>
      <point x="117" y="-20" type="qcurve"/>
      <point x="143" y="101" type="line"/>
      <point x="143" y="102"/>
      <point x="165" y="114"/>
      <point x="187" y="118" type="qcurve"/>
      <point x="313" y="132" type="line"/>
      <point x="304" y="129"/>
      <point x="301" y="129" type="qcurve"/>
      <point x="299" y="129"/>
      <point x="299" y="132" type="qcurve"/>
      <point x="301" y="137" type="line"/>
      <point x="376" y="746"/>
      <point x="393" y="892" type="qcurve" smooth="yes"/>
      <point x="442" y="1308"/>
      <point x="446" y="1308" type="qcurve"/>
      <point x="456" y="1305" type="line"/>
      <point x="319" y="1326"/>
      <point x="312" y="1330" type="qcurve"/>
      <point x="296" y="1336"/>
      <point x="296" y="1341" type="qcurve"/>
      <point x="298" y="1450" type="line"/>
      <point x="545" y="1450"/>
      <point x="599" y="1449" type="qcurve"/>
      <point x="679" y="1446"/>
      <point x="751" y="1371"/>
      <point x="779" y="1309" type="qcurve"/>
      <point x="1214" y="393" type="line"/>
      <point x="1325" y="1300"/>
      <point x="1328" y="1306"/>
      <point x="1332" y="1306" type="qcurve"/>
      <point x="1202" y="1326"/>
      <point x="1195" y="1330" type="qcurve"/>
      <point x="1178" y="1336"/>
      <point x="1178" y="1341" type="qcurve"/>
      <point x="1180" y="1450" type="line"/>
      <point x="1716" y="1450" type="line"/>
      <point x="1692" y="1341" type="line"/>
      <point x="1692" y="1340"/>
      <point x="1682" y="1333"/>
      <point x="1663" y="1326"/>
      <point x="1529" y="1306" type="qcurve"/>
      <point x="1533" y="1306"/>
      <point x="1533" y="1299" type="qcurve"/>
      <point x="1373" y="-6" type="line"/>
      <point x="1210" y="-6" type="line" smooth="yes"/>
      <point x="1156" y="-6"/>
      <point x="1096" y="54"/>
      <point x="1073" y="110" type="qcurve"/>
      <point x="621" y="1061" type="line"/>
      <point x="509" y="149" type="line" smooth="yes"/>
      <point x="507" y="131"/>
      <point x="502" y="131" type="qcurve"/>
      <point x="616" y="118" type="line" smooth="yes"/>
      <point x="631" y="116"/>
      <point x="648" y="108"/>
      <point x="656" y="103"/>
      <point x="656" y="101" type="qcurve"/>
    </contour>
  </outline>
</glyph>
<glyph name="P" format="1">
  <advance width="1303"/>
  <unicode hex="0050"/>
  <outline>
    <contour>
      <point x="664" y="-21" type="line"/>
      <point x="565" y="-13"/>
      <point x="435" y="-6"/>
      <point x="373" y="-6" type="qcurve" smooth="yes"/>
      <point x="312" y="-6"/>
      <point x="179" y="-13"/>
      <point x="78" y="-21" type="qcurve"/>
      <point x="106" y="102" type="line"/>
      <point x="106" y="103"/>
      <point x="127" y="115"/>
      <point x="149" y="118" type="qcurve"/>
      <point x="267" y="130" type="line"/>
      <point x="264" y="130"/>
      <point x="264" y="140" type="qcurve" smooth="yes"/>
      <point x="264" y="145"/>
      <point x="404" y="1288" type="qcurve" smooth="yes"/>
      <point x="406" y="1307"/>
      <point x="411" y="1307" type="qcurve"/>
      <point x="280" y="1328"/>
      <point x="275" y="1330" type="qcurve" smooth="yes"/>
      <point x="266" y="1333"/>
      <point x="262" y="1336" type="qcurve" smooth="yes"/>
      <point x="257" y="1339" type="line"/>
      <point x="259" y="1450" type="line"/>
      <point x="815" y="1450" type="line" smooth="yes"/>
      <point x="1005" y="1450"/>
      <point x="1130" y="1406" type="qcurve" smooth="yes"/>
      <point x="1349" y="1328"/>
      <point x="1349" y="1092" type="qcurve" smooth="yes"/>
      <point x="1349" y="1057"/>
      <point x="1344" y="1017" type="qcurve" smooth="yes"/>
      <point x="1317" y="806"/>
      <point x="991" y="586"/>
      <point x="713" y="586" type="qcurve" smooth="yes"/>
      <point x="574" y="586" type="line"/>
      <point x="519" y="141"/>
      <point x="516" y="130"/>
      <point x="513" y="130" type="qcurve"/>
      <point x="627" y="118" type="line" smooth="yes"/>
      <point x="642" y="116"/>
      <point x="660" y="109"/>
      <point x="668" y="103"/>
      <point x="668" y="101" type="qcurve"/>
    </contour>
    <contour>
      <point x="766" y="706" type="line" smooth="yes"/>
      <point x="903" y="706"/>
      <point x="1059" y="869"/>
      <point x="1077" y="1014" type="qcurve" smooth="yes"/>
      <point x="1082" y="1055"/>
      <point x="1082" y="1090" type="qcurve" smooth="yes"/>
      <point x="1082" y="1188"/>
      <point x="984" y="1316"/>
      <point x="827" y="1316" type="qcurve" smooth="yes"/>
      <point x="664" y="1316" type="line"/>
      <point x="589" y="706" type="line"/>
    </contour>
  </outline>
</glyph>
<glyph name="Q" format="1">
  <advance width="1434"/>
  <unicode hex="0051"/>
  <outline>
    <contour>
      <point x="1151" y="-275" type="qcurve"/>
      <point x="1133" y="-273" type="line"/>
      <point x="1004" y="-246"/>
      <point x="799" y="-177"/>
      <point x="683" y="-122" type="qcurve"/>
      <point x="666" y="-115" type="line"/>
      <point x="693" y="-21" type="line"/>
      <point x="706" y="-21" type="line"/>
      <point x="393" y="-21"/>
      <point x="253" y="165" type="qcurve" smooth="yes"/>
      <point x="148" y="305"/>
      <point x="148" y="555" type="qcurve" smooth="yes"/>
      <point x="148" y="637"/>
      <point x="159" y="731" type="qcurve" smooth="yes"/>
      <point x="205" y="1105"/>
      <point x="577" y="1475"/>
      <point x="890" y="1475" type="qcurve" smooth="yes"/>
      <point x="1205" y="1475"/>
      <point x="1345" y="1290" type="qcurve" smooth="yes"/>
      <point x="1450" y="1150"/>
      <point x="1450" y="903" type="qcurve" smooth="yes"/>
      <point x="1450" y="822"/>
      <point x="1439" y="731" type="qcurve" smooth="yes"/>
      <point x="1358" y="77"/>
      <point x="868" y="-7" type="qcurve"/>
      <point x="971" y="-46"/>
      <point x="1148" y="-102"/>
      <point x="1263" y="-132" type="qcurve"/>
      <point x="1204" y="-255" type="line" smooth="yes"/>
      <point x="1202" y="-258"/>
      <point x="1174" y="-275"/>
    </contour>
    <contour>
      <point x="722" y="121" type="qcurve" smooth="yes"/>
      <point x="855" y="121"/>
      <point x="1035" y="264"/>
      <point x="1144" y="537"/>
      <point x="1167" y="732" type="qcurve" smooth="yes"/>
      <point x="1179" y="829"/>
      <point x="1179" y="911" type="qcurve" smooth="yes"/>
      <point x="1179" y="1332"/>
      <point x="871" y="1332" type="qcurve" smooth="yes"/>
      <point x="503" y="1332"/>
      <point x="431" y="732" type="qcurve" smooth="yes"/>
      <point x="417" y="620"/>
      <point x="417" y="527" type="qcurve" smooth="yes"/>
      <point x="417" y="457"/>
      <point x="444" y="262"/>
      <point x="587" y="121"/>
    </contour>
  </outline>
</glyph>
<glyph name="R" format="1">
  <advance width="1428"/>
  <unicode hex="0052"/>
  <outline>
    <contour>
      <point x="624" y="-20" type="line"/>
      <point x="436" y="-7"/>
      <point x="332" y="-5" type="qcurve"/>
      <point x="227" y="-7"/>
      <point x="38" y="-20" type="qcurve"/>
      <point x="64" y="102" type="line"/>
      <point x="64" y="103"/>
      <point x="87" y="115"/>
      <point x="107" y="118" type="qcurve" smooth="yes"/>
      <point x="226" y="132" type="line"/>
      <point x="223" y="132"/>
      <point x="223" y="141" type="qcurve"/>
      <point x="293" y="719" type="line"/>
      <point x="365" y="1302"/>
      <point x="369" y="1305"/>
      <point x="377" y="1305" type="qcurve"/>
      <point x="255" y="1325" type="line"/>
      <point x="236" y="1327"/>
      <point x="216" y="1339"/>
      <point x="216" y="1341" type="qcurve"/>
      <point x="218" y="1449" type="line"/>
      <point x="796" y="1449" type="line" smooth="yes"/>
      <point x="984" y="1449"/>
      <point x="1231" y="1361"/>
      <point x="1285" y="1266" type="qcurve" smooth="yes"/>
      <point x="1325" y="1194"/>
      <point x="1325" y="1091" type="qcurve" smooth="yes"/>
      <point x="1325" y="1056"/>
      <point x="1320" y="1017" type="qcurve" smooth="yes"/>
      <point x="1277" y="699"/>
      <point x="946" y="616" type="qcurve"/>
      <point x="1166" y="153" type="line"/>
      <point x="1168" y="153" type="line"/>
      <point x="1183" y="117" type="line"/>
      <point x="1296" y="104" type="line" smooth="yes"/>
      <point x="1310" y="102"/>
      <point x="1328" y="95"/>
      <point x="1336" y="88"/>
      <point x="1336" y="87" type="qcurve"/>
      <point x="1334" y="-19" type="line"/>
      <point x="1202" y="-11"/>
      <point x="1135" y="-8" type="qcurve" smooth="yes"/>
      <point x="1041" y="-5"/>
      <point x="946" y="-5" type="qcurve"/>
      <point x="699" y="586" type="line"/>
      <point x="533" y="586" type="line"/>
      <point x="478" y="138"/>
      <point x="476" y="132"/>
      <point x="471" y="132" type="qcurve"/>
      <point x="587" y="118" type="line" smooth="yes"/>
      <point x="602" y="116"/>
      <point x="619" y="109"/>
      <point x="626" y="103"/>
      <point x="626" y="102" type="qcurve"/>
    </contour>
    <contour>
      <point x="742" y="707" type="line" smooth="yes"/>
      <point x="879" y="707"/>
      <point x="1035" y="869"/>
      <point x="1053" y="1014" type="qcurve"/>
      <point x="1059" y="1056"/>
      <point x="1059" y="1092" type="qcurve" smooth="yes"/>
      <point x="1059" y="1189"/>
      <point x="961" y="1316"/>
      <point x="803" y="1316" type="qcurve" smooth="yes"/>
      <point x="623" y="1316" type="line"/>
      <point x="548" y="707" type="line"/>
    </contour>
  </outline>
</glyph>
<glyph name="S" format="1">
  <advance width="1173"/>
  <unicode hex="0053"/>
  <outline>
    <contour>
      <point x="522" y="-20" type="qcurve" smooth="yes"/>
      <point x="397" y="-20"/>
      <point x="149" y="37"/>
      <point x="84" y="81" type="qcurve"/>
      <point x="120" y="371" type="line"/>
      <point x="154" y="367"/>
      <point x="181" y="365" type="qcurve"/>
      <point x="256" y="357"/>
      <point x="319" y="345"/>
      <point x="321" y="330" type="qcurve" smooth="yes"/>
      <point x="348" y="161" type="line"/>
      <point x="348" y="155" type="line"/>
      <point x="349" y="155" type="line"/>
      <point x="453" y="130"/>
      <point x="549" y="130" type="qcurve" smooth="yes"/>
      <point x="672" y="130"/>
      <point x="828" y="284"/>
      <point x="843" y="403" type="qcurve" smooth="yes"/>
      <point x="847" y="430"/>
      <point x="847" y="454" type="qcurve" smooth="yes"/>
      <point x="847" y="528"/>
      <point x="766" y="653"/>
      <point x="643" y="700" type="qcurve" smooth="yes"/>
      <point x="524" y="745"/>
      <point x="331" y="850"/>
      <point x="278" y="925" type="qcurve"/>
      <point x="236" y="987"/>
      <point x="236" y="1074" type="qcurve" smooth="yes"/>
      <point x="236" y="1094"/>
      <point x="238" y="1116" type="qcurve"/>
      <point x="255" y="1242"/>
      <point x="404" y="1405"/>
      <point x="644" y="1483"/>
      <point x="795" y="1483" type="qcurve" smooth="yes"/>
      <point x="951" y="1483"/>
      <point x="1159" y="1457" type="qcurve"/>
      <point x="1138" y="1264"/>
      <point x="1129" y="1048" type="qcurve"/>
      <point x="963" y="1067" type="line"/>
      <point x="939" y="1071"/>
      <point x="920" y="1085"/>
      <point x="920" y="1089" type="qcurve"/>
      <point x="895" y="1324" type="line"/>
      <point x="895" y="1328"/>
      <point x="898" y="1328" type="qcurve"/>
      <point x="903" y="1327" type="line"/>
      <point x="832" y="1334"/>
      <point x="747" y="1334" type="qcurve" smooth="yes"/>
      <point x="600" y="1334"/>
      <point x="540" y="1224" type="qcurve" smooth="yes"/>
      <point x="506" y="1162"/>
      <point x="506" y="1094" type="qcurve" smooth="yes"/>
      <point x="506" y="1013"/>
      <point x="643" y="914"/>
      <point x="782" y="862" type="qcurve" smooth="yes"/>
      <point x="792" y="858" type="line" smooth="yes"/>
      <point x="1129" y="723"/>
      <point x="1129" y="472" type="qcurve" smooth="yes"/>
      <point x="1129" y="321"/>
      <point x="1038" y="199" type="qcurve" smooth="yes"/>
      <point x="964" y="100"/>
      <point x="704" y="-20"/>
    </contour>
  </outline>
</glyph>
<glyph name="T" format="1">
  <advance width="1424"/>
  <unicode hex="0054"/>
  <outline>
    <contour>
      <point x="1012" y="-20" type="line"/>
      <point x="892" y="-11"/>
      <point x="774" y="-6"/>
      <point x="685" y="-6" type="qcurve" smooth="yes"/>
      <point x="632" y="-6"/>
      <point x="514" y="-13"/>
      <point x="424" y="-19" type="qcurve" smooth="yes"/>
      <point x="416" y="-20" type="line"/>
      <point x="441" y="101" type="line"/>
      <point x="441" y="102"/>
      <point x="463" y="115"/>
      <point x="485" y="118" type="qcurve" smooth="yes"/>
      <point x="604" y="131" type="line"/>
      <point x="600" y="131"/>
      <point x="600" y="136" type="qcurve"/>
      <point x="744" y="1310" type="line"/>
      <point x="685" y="1310"/>
      <point x="589" y="1303" type="qcurve"/>
      <point x="493" y="1298" type="line"/>
      <point x="496" y="1298"/>
      <point x="502" y="1300"/>
      <point x="503" y="1300" type="qcurve"/>
      <point x="505" y="1300"/>
      <point x="505" y="1297" type="qcurve"/>
      <point x="411" y="1007" type="line" smooth="yes"/>
      <point x="410" y="1003"/>
      <point x="387" y="989"/>
      <point x="363" y="985" type="qcurve"/>
      <point x="218" y="970" type="line"/>
      <point x="277" y="1449" type="line"/>
      <point x="1511" y="1449" type="line"/>
      <point x="1452" y="970" type="line"/>
      <point x="1311" y="985" type="line"/>
      <point x="1288" y="989"/>
      <point x="1269" y="1003"/>
      <point x="1269" y="1007" type="qcurve"/>
      <point x="1245" y="1297" type="line"/>
      <point x="1246" y="1300"/>
      <point x="1248" y="1300" type="qcurve"/>
      <point x="1250" y="1300"/>
      <point x="1254" y="1298"/>
      <point x="1257" y="1298" type="qcurve"/>
      <point x="1207" y="1300"/>
      <point x="1156" y="1304" type="qcurve" smooth="yes"/>
      <point x="1067" y="1310"/>
      <point x="1011" y="1310" type="qcurve"/>
      <point x="867" y="137"/>
      <point x="864" y="131"/>
      <point x="860" y="131" type="qcurve"/>
      <point x="975" y="118" type="line" smooth="yes"/>
      <point x="990" y="116"/>
      <point x="1007" y="109"/>
      <point x="1015" y="103"/>
      <point x="1015" y="101" type="qcurve"/>
    </contour>
  </outline>
</glyph>
<glyph name="U" format="1">
  <advance width="1527"/>
  <unicode hex="0055"/>
  <outline>
    <contour>
      <point x="763" y="-23" type="qcurve" smooth="yes"/>
      <point x="402" y="-23"/>
      <point x="301" y="207" type="qcurve" smooth="yes"/>
      <point x="264" y="291"/>
      <point x="264" y="411" type="qcurve" smooth="yes"/>
      <point x="264" y="465"/>
      <point x="271" y="526" type="qcurve"/>
      <point x="270" y="526" type="line"/>
      <point x="364" y="1300" type="line"/>
      <point x="366" y="1306"/>
      <point x="368" y="1306" type="qcurve"/>
      <point x="256" y="1324" type="line"/>
      <point x="242" y="1325"/>
      <point x="224" y="1332"/>
      <point x="217" y="1338"/>
      <point x="217" y="1340" type="qcurve"/>
      <point x="218" y="1449" type="line"/>
      <point x="815" y="1449" type="line"/>
      <point x="790" y="1340" type="line"/>
      <point x="790" y="1336"/>
      <point x="773" y="1330" type="qcurve" smooth="yes"/>
      <point x="764" y="1326"/>
      <point x="629" y="1306" type="qcurve"/>
      <point x="632" y="1306"/>
      <point x="632" y="1299" type="qcurve"/>
      <point x="525" y="433" type="line" smooth="yes"/>
      <point x="522" y="407"/>
      <point x="522" y="383" type="qcurve" smooth="yes"/>
      <point x="522" y="311"/>
      <point x="580" y="187"/>
      <point x="710" y="114"/>
      <point x="790" y="114" type="qcurve" smooth="yes"/>
      <point x="871" y="114"/>
      <point x="1019" y="184"/>
      <point x="1119" y="326"/>
      <point x="1133" y="434" type="qcurve"/>
      <point x="1239" y="1299" type="line"/>
      <point x="1239" y="1306"/>
      <point x="1243" y="1306" type="qcurve"/>
      <point x="1130" y="1324" type="line"/>
      <point x="1116" y="1325"/>
      <point x="1098" y="1332"/>
      <point x="1091" y="1338"/>
      <point x="1091" y="1340" type="qcurve"/>
      <point x="1093" y="1449" type="line"/>
      <point x="1630" y="1449" type="line"/>
      <point x="1605" y="1340" type="line"/>
      <point x="1598" y="1333"/>
      <point x="1586" y="1329" type="qcurve" smooth="yes"/>
      <point x="1581" y="1327"/>
      <point x="1443" y="1306" type="qcurve"/>
      <point x="1446" y="1306"/>
      <point x="1446" y="1302" type="qcurve" smooth="yes"/>
      <point x="1446" y="1295"/>
      <point x="1348" y="496" type="qcurve"/>
      <point x="1314" y="231"/>
      <point x="1011" y="-23"/>
    </contour>
  </outline>
</glyph>
<glyph name="V" format="1">
  <advance width="1652"/>
  <unicode hex="0056"/>
  <outline>
    <contour>
      <point x="940" y="0" type="line"/>
      <point x="719" y="0" type="line"/>
      <point x="722" y="6" type="line"/>
      <point x="649" y="281" type="line" smooth="yes"/>
      <point x="594" y="485"/>
      <point x="538" y="695"/>
      <point x="491" y="872"/>
      <point x="449" y="1026" type="qcurve"/>
      <point x="421" y="1133"/>
      <point x="375" y="1303" type="qcurve" smooth="yes"/>
      <point x="374" y="1309" type="line"/>
      <point x="374" y="1312"/>
      <point x="375" y="1313" type="qcurve"/>
      <point x="381" y="1311" type="line"/>
      <point x="261" y="1328" type="line" smooth="yes"/>
      <point x="240" y="1331"/>
      <point x="220" y="1347"/>
      <point x="219" y="1351" type="qcurve" smooth="yes"/>
      <point x="204" y="1454" type="line"/>
      <point x="851" y="1454" type="line"/>
      <point x="826" y="1346" type="line"/>
      <point x="826" y="1344"/>
      <point x="804" y="1331"/>
      <point x="783" y="1329" type="qcurve"/>
      <point x="663" y="1310" type="line"/>
      <point x="667" y="1310"/>
      <point x="784" y="835" type="qcurve" smooth="yes"/>
      <point x="901" y="360" type="line"/>
      <point x="1366" y="1282" type="line"/>
      <point x="1370" y="1294"/>
      <point x="1372" y="1306"/>
      <point x="1375" y="1311"/>
      <point x="1378" y="1311" type="qcurve"/>
      <point x="1244" y="1332"/>
      <point x="1240" y="1334" type="qcurve" smooth="yes"/>
      <point x="1223" y="1342"/>
      <point x="1223" y="1346" type="qcurve"/>
      <point x="1225" y="1454" type="line"/>
      <point x="1821" y="1454" type="line"/>
      <point x="1769" y="1352" type="line" smooth="yes"/>
      <point x="1766" y="1346"/>
      <point x="1739" y="1331"/>
      <point x="1719" y="1329" type="qcurve"/>
      <point x="1594" y="1310"/>
      <point x="1589" y="1310" type="qcurve"/>
      <point x="1591" y="1310"/>
      <point x="1596" y="1312"/>
      <point x="1602" y="1314"/>
      <point x="1604" y="1316" type="qcurve"/>
    </contour>
  </outline>
</glyph>
<glyph name="W" format="1">
  <advance width="2026"/>
  <unicode hex="0057"/>
  <outline>
    <contour>
      <point x="1485" y="0" type="qcurve"/>
      <point x="1277" y="0" type="line"/>
      <point x="1134" y="803" type="line"/>
      <point x="808" y="0" type="line"/>
      <point x="599" y="0" type="line"/>
      <point x="361" y="1306" type="line"/>
      <point x="363" y="1308" type="line"/>
      <point x="368" y="1306" type="line"/>
      <point x="250" y="1324" type="line" smooth="yes"/>
      <point x="228" y="1327"/>
      <point x="208" y="1341"/>
      <point x="208" y="1345" type="qcurve"/>
      <point x="197" y="1449" type="line"/>
      <point x="844" y="1449" type="line"/>
      <point x="815" y="1342" type="line"/>
      <point x="815" y="1340"/>
      <point x="793" y="1327"/>
      <point x="772" y="1324" type="qcurve" smooth="yes"/>
      <point x="650" y="1306" type="line"/>
      <point x="655" y="1306"/>
      <point x="655" y="1297" type="qcurve"/>
      <point x="654" y="1288" type="line"/>
      <point x="779" y="439" type="line"/>
      <point x="1069" y="1157" type="line"/>
      <point x="1039" y="1305" type="line"/>
      <point x="1041" y="1308" type="line"/>
      <point x="1041" y="1307" type="line"/>
      <point x="921" y="1330"/>
      <point x="921" y="1345" type="qcurve"/>
      <point x="910" y="1449" type="line"/>
      <point x="1522" y="1449" type="line"/>
      <point x="1493" y="1342" type="line"/>
      <point x="1493" y="1340"/>
      <point x="1471" y="1327"/>
      <point x="1450" y="1324" type="qcurve" smooth="yes"/>
      <point x="1328" y="1306" type="line"/>
      <point x="1333" y="1306"/>
      <point x="1333" y="1297" type="qcurve"/>
      <point x="1332" y="1288" type="line"/>
      <point x="1338" y="1237"/>
      <point x="1455" y="447" type="qcurve"/>
      <point x="1785" y="1285" type="line"/>
      <point x="1787" y="1301"/>
      <point x="1791" y="1305"/>
      <point x="1799" y="1305" type="qcurve"/>
      <point x="1674" y="1324" type="line" smooth="yes"/>
      <point x="1655" y="1327"/>
      <point x="1635" y="1340"/>
      <point x="1635" y="1343" type="qcurve"/>
      <point x="1626" y="1449" type="line"/>
      <point x="2223" y="1449" type="line"/>
      <point x="2180" y="1347" type="line"/>
      <point x="2168" y="1323"/>
      <point x="2061" y="1313" type="qcurve"/>
      <point x="2012" y="1306" type="line"/>
      <point x="2014" y="1306"/>
      <point x="2014" y="1303" type="qcurve"/>
      <point x="2012" y="1294"/>
      <point x="2010" y="1292" type="qcurve" smooth="yes"/>
      <point x="2006" y="1284"/>
    </contour>
  </outline>
</glyph>
<glyph name="X" format="1">
  <advance width="1456"/>
  <unicode hex="0058"/>
  <outline>
    <contour>
      <point x="1454" y="-20" type="line"/>
      <point x="1264" y="-5"/>
      <point x="1132" y="-5" type="qcurve" smooth="yes"/>
      <point x="1002" y="-5"/>
      <point x="809" y="-20" type="qcurve"/>
      <point x="833" y="101" type="line"/>
      <point x="833" y="102"/>
      <point x="856" y="115"/>
      <point x="878" y="118" type="qcurve"/>
      <point x="1001" y="131" type="line"/>
      <point x="1001" y="134" type="line" smooth="yes"/>
      <point x="1001" y="141"/>
      <point x="998" y="149"/>
      <point x="996" y="155" type="qcurve" smooth="yes"/>
      <point x="992" y="164"/>
      <point x="762" y="600" type="qcurve"/>
      <point x="416" y="164"/>
      <point x="402" y="142"/>
      <point x="402" y="136" type="qcurve" smooth="yes"/>
      <point x="402" y="132"/>
      <point x="404" y="130" type="qcurve"/>
      <point x="518" y="118" type="line" smooth="yes"/>
      <point x="533" y="116"/>
      <point x="551" y="109"/>
      <point x="559" y="103"/>
      <point x="559" y="101" type="qcurve"/>
      <point x="558" y="-20" type="line"/>
      <point x="382" y="-7"/>
      <point x="279" y="-6" type="qcurve"/>
      <point x="177" y="-7"/>
      <point x="-2" y="-20" type="qcurve"/>
      <point x="24" y="103" type="line"/>
      <point x="29" y="106" type="line" smooth="yes"/>
      <point x="33" y="109"/>
      <point x="52" y="116"/>
      <point x="66" y="118" type="qcurve" smooth="yes"/>
      <point x="183" y="131" type="line"/>
      <point x="179" y="130" type="line"/>
      <point x="178" y="130"/>
      <point x="178" y="131" type="qcurve"/>
      <point x="676" y="759" type="line"/>
      <point x="398" y="1282"/>
      <point x="388" y="1298" type="qcurve" smooth="yes"/>
      <point x="384" y="1303"/>
      <point x="384" y="1305" type="qcurve"/>
      <point x="388" y="1305" type="line"/>
      <point x="359" y="1310"/>
      <point x="334" y="1313" type="qcurve" smooth="yes"/>
      <point x="234" y="1324"/>
      <point x="229" y="1345" type="qcurve"/>
      <point x="212" y="1449" type="line"/>
      <point x="874" y="1449" type="line"/>
      <point x="849" y="1339" type="line"/>
      <point x="849" y="1336"/>
      <point x="831" y="1329" type="qcurve" smooth="yes"/>
      <point x="827" y="1327"/>
      <point x="677" y="1303" type="qcurve"/>
      <point x="686" y="1304" type="line"/>
      <point x="871" y="938" type="line"/>
      <point x="1160" y="1303" type="line"/>
      <point x="1160" y="1304"/>
      <point x="1158" y="1306" type="qcurve"/>
      <point x="1024" y="1327"/>
      <point x="1019" y="1329" type="qcurve" smooth="yes"/>
      <point x="1003" y="1336"/>
      <point x="1003" y="1340" type="qcurve" smooth="yes"/>
      <point x="1003" y="1449" type="line"/>
      <point x="1605" y="1449" type="line"/>
      <point x="1553" y="1348" type="line" smooth="yes"/>
      <point x="1549" y="1341"/>
      <point x="1523" y="1326"/>
      <point x="1504" y="1324" type="qcurve"/>
      <point x="1385" y="1307" type="line"/>
      <point x="955" y="782" type="line"/>
      <point x="1298" y="145" type="line" smooth="yes"/>
      <point x="1302" y="137"/>
      <point x="1302" y="133" type="qcurve"/>
      <point x="1301" y="131"/>
      <point x="1299" y="131" type="qcurve"/>
      <point x="1414" y="118" type="line" smooth="yes"/>
      <point x="1429" y="116"/>
      <point x="1447" y="109"/>
      <point x="1455" y="103"/>
      <point x="1455" y="101" type="qcurve"/>
    </contour>
  </outline>
</glyph>
<glyph name="Y" format="1">
  <advance width="1517"/>
  <unicode hex="0059"/>
  <outline>
    <contour>
      <point x="1096" y="-20" type="line"/>
      <point x="908" y="-7"/>
      <point x="805" y="-5" type="qcurve"/>
      <point x="700" y="-7"/>
      <point x="511" y="-20" type="qcurve"/>
      <point x="537" y="102" type="line"/>
      <point x="537" y="103"/>
      <point x="559" y="116"/>
      <point x="582" y="119" type="qcurve" smooth="yes"/>
      <point x="700" y="132" type="line"/>
      <point x="696" y="132"/>
      <point x="696" y="137"/>
      <point x="696" y="141" type="qcurve"/>
      <point x="735" y="464" type="line"/>
      <point x="600" y="806"/>
      <point x="580" y="860" type="qcurve" smooth="yes"/>
      <point x="539" y="968"/>
      <point x="500" y="1065" type="qcurve" smooth="yes"/>
      <point x="405" y="1298"/>
      <point x="404" y="1305" type="qcurve"/>
      <point x="406" y="1306" type="line"/>
      <point x="412" y="1304" type="line"/>
      <point x="287" y="1324" type="line"/>
      <point x="269" y="1326"/>
      <point x="244" y="1341"/>
      <point x="243" y="1348" type="qcurve"/>
      <point x="214" y="1449" type="line"/>
      <point x="860" y="1449" type="line"/>
      <point x="849" y="1334" type="line"/>
      <point x="848" y="1335" type="line"/>
      <point x="842" y="1327"/>
      <point x="810" y="1324" type="qcurve"/>
      <point x="693" y="1306" type="line"/>
      <point x="691" y="1303"/>
      <point x="691" y="1300" type="qcurve" smooth="yes"/>
      <point x="691" y="1297"/>
      <point x="909" y="746" type="qcurve"/>
      <point x="1228" y="1302"/>
      <point x="1230" y="1304" type="qcurve"/>
      <point x="1112" y="1324" type="line"/>
      <point x="1092" y="1326"/>
      <point x="1081" y="1333" type="qcurve" smooth="yes"/>
      <point x="1073" y="1339" type="line"/>
      <point x="1086" y="1449" type="line"/>
      <point x="1682" y="1449" type="line"/>
      <point x="1623" y="1350" type="line" smooth="yes"/>
      <point x="1618" y="1343"/>
      <point x="1590" y="1326"/>
      <point x="1569" y="1323" type="qcurve" smooth="yes"/>
      <point x="1446" y="1306" type="line"/>
      <point x="1447" y="1306"/>
      <point x="1447" y="1305" type="qcurve"/>
      <point x="998" y="524" type="line"/>
      <point x="951" y="138"/>
      <point x="949" y="132"/>
      <point x="944" y="132" type="qcurve"/>
      <point x="1059" y="119" type="line" smooth="yes"/>
      <point x="1073" y="117"/>
      <point x="1091" y="110"/>
      <point x="1100" y="103"/>
      <point x="1100" y="102" type="qcurve"/>
    </contour>
  </outline>
</glyph>
<glyph name="Z" format="1">
  <advance width="1217"/>
  <unicode hex="005A"/>
  <outline>
    <contour>
      <point x="1166" y="0" type="line"/>
      <point x="27" y="0" type="line"/>
      <point x="42" y="120" type="line"/>
      <point x="970" y="1307" type="line"/>
      <point x="874" y="1307"/>
      <point x="755" y="1305"/>
      <point x="608" y="1299"/>
      <point x="479" y="1292" type="qcurve"/>
      <point x="487" y="1294" type="line"/>
      <point x="490" y="1294"/>
      <point x="490" y="1290" type="qcurve"/>
      <point x="418" y="1099" type="line" smooth="yes"/>
      <point x="413" y="1084"/>
      <point x="384" y="1078" type="qcurve" smooth="yes"/>
      <point x="350" y="1070"/>
      <point x="225" y="1056" type="qcurve"/>
      <point x="273" y="1452" type="line"/>
      <point x="1323" y="1452" type="line"/>
      <point x="1312" y="1357" type="line"/>
      <point x="378" y="150" type="line"/>
      <point x="595" y="150" type="line"/>
      <point x="915" y="156" type="line"/>
      <point x="905" y="155" type="line"/>
      <point x="903" y="155"/>
      <point x="903" y="156" type="qcurve"/>
      <point x="999" y="391" type="line" smooth="yes"/>
      <point x="1011" y="420"/>
      <point x="1038" y="445"/>
      <point x="1064" y="448" type="qcurve" smooth="yes"/>
      <point x="1221" y="466" type="line"/>
    </contour>
  </outline>
</glyph>
<glyph name="bracketleft" format="1">
  <advance width="688"/>
  <unicode hex="005B"/>
  <outline>
    <contour>
      <point x="497" y="-335" type="line"/>
      <point x="49" y="-335" type="line"/>
      <point x="297" y="1690" type="line"/>
      <point x="745" y="1690" type="line"/>
      <point x="727" y="1607" type="line"/>
      <point x="727" y="1606"/>
      <point x="705" y="1593"/>
      <point x="682" y="1590" type="qcurve"/>
      <point x="514" y="1576" type="line"/>
      <point x="517" y="1577" type="line"/>
      <point x="522" y="1577"/>
      <point x="526" y="1576"/>
      <point x="527" y="1573" type="qcurve"/>
      <point x="527" y="1569"/>
      <point x="308" y="-214"/>
      <point x="306" y="-222"/>
      <point x="302" y="-222"/>
      <point x="300" y="-222" type="qcurve"/>
      <point x="293" y="-222" type="line"/>
      <point x="458" y="-235" type="line"/>
      <point x="472" y="-237"/>
      <point x="491" y="-245"/>
      <point x="495" y="-248" type="qcurve" smooth="yes"/>
      <point x="499" y="-252" type="line"/>
    </contour>
  </outline>
</glyph>
<glyph name="bracketright" format="1">
  <advance width="728"/>
  <unicode hex="005D"/>
  <outline>
    <contour>
      <point x="497" y="-335" type="line"/>
      <point x="49" y="-335" type="line"/>
      <point x="67" y="-252" type="line"/>
      <point x="80" y="-239"/>
      <point x="112" y="-235" type="qcurve"/>
      <point x="274" y="-222" type="line"/>
      <point x="272" y="-222"/>
      <point x="268" y="-222"/>
      <point x="268" y="-218" type="qcurve" smooth="yes"/>
      <point x="268" y="-214"/>
      <point x="487" y="1569"/>
      <point x="489" y="1576"/>
      <point x="494" y="1577"/>
      <point x="499" y="1577" type="qcurve"/>
      <point x="501" y="1576" type="line"/>
      <point x="337" y="1590" type="line"/>
      <point x="322" y="1592"/>
      <point x="304" y="1600"/>
      <point x="296" y="1606"/>
      <point x="296" y="1607" type="qcurve"/>
      <point x="298" y="1690" type="line"/>
      <point x="746" y="1690" type="line"/>
    </contour>
  </outline>
</glyph>
<glyph name="underscore" format="1">
  <advance width="1094"/>
  <unicode hex="005F"/>
  <outline>
    <contour>
      <point x="-15" y="-120" type="line"/>
      <point x="1079" y="-120" type="line"/>
      <point x="1062" y="-260" type="line"/>
      <point x="-32" y="-260" type="line"/>
    </contour>
  </outline>
</glyph>
<glyph name="grave" format="1">
  <advance width="1069"/>
  <unicode hex="0060"/>
  <outline>
    <contour>
      <point x="720" y="1245" type="qcurve" smooth="yes"/>
      <point x="702" y="1245"/>
      <point x="672" y="1259"/>
      <point x="664" y="1267" type="qcurve" smooth="yes"/>
      <point x="426" y="1490" type="line"/>
      <point x="627" y="1563" type="line"/>
      <point x="644" y="1571"/>
      <point x="664" y="1571" type="qcurve" smooth="yes"/>
      <point x="682" y="1571"/>
      <point x="713" y="1554"/>
      <point x="718" y="1545" type="qcurve" smooth="yes"/>
      <point x="859" y="1289" type="line"/>
      <point x="751" y="1249" type="line"/>
      <point x="749" y="1249" type="line"/>
      <point x="747" y="1248"/>
      <point x="729" y="1245"/>
    </contour>
  </outline>
</glyph>
<glyph name="b" format="1">
  <advance width="1319"/>
  <unicode hex="0062"/>
  <outline>
    <contour>
      <point x="769" y="-20" type="qcurve" smooth="yes"/>
      <point x="667" y="-20"/>
      <point x="520" y="51"/>
      <point x="438" y="163"/>
      <point x="434" y="227" type="qcurve"/>
      <point x="488" y="227" type="line"/>
      <point x="460" y="1" type="line"/>
      <point x="352" y="1" type="line" smooth="yes"/>
      <point x="247" y="1"/>
      <point x="63" y="-12" type="qcurve"/>
      <point x="86" y="99" type="line"/>
      <point x="97" y="105" type="line" smooth="yes"/>
      <point x="108" y="111"/>
      <point x="129" y="115" type="qcurve"/>
      <point x="236" y="127" type="line"/>
      <point x="233" y="127"/>
      <point x="232" y="131"/>
      <point x="232" y="136" type="qcurve"/>
      <point x="390" y="1415" type="line"/>
      <point x="390" y="1425"/>
      <point x="397" y="1425" type="qcurve"/>
      <point x="296" y="1438" type="line" smooth="yes"/>
      <point x="282" y="1440"/>
      <point x="265" y="1447"/>
      <point x="256" y="1454"/>
      <point x="256" y="1455" type="qcurve"/>
      <point x="258" y="1538" type="line"/>
      <point x="649" y="1538" type="line"/>
      <point x="567" y="868" type="line"/>
      <point x="513" y="868" type="line"/>
      <point x="539" y="926"/>
      <point x="645" y="1028"/>
      <point x="801" y="1093"/>
      <point x="900" y="1093" type="qcurve" smooth="yes"/>
      <point x="1118" y="1093"/>
      <point x="1227" y="953" type="qcurve" smooth="yes"/>
      <point x="1311" y="846"/>
      <point x="1311" y="655" type="qcurve" smooth="yes"/>
      <point x="1311" y="598"/>
      <point x="1303" y="532" type="qcurve" smooth="yes"/>
      <point x="1284" y="370"/>
      <point x="1155" y="122"/>
      <point x="931" y="-20"/>
    </contour>
    <contour>
      <point x="740" y="115" type="qcurve" smooth="yes"/>
      <point x="864" y="115"/>
      <point x="1009" y="316"/>
      <point x="1035" y="533" type="qcurve"/>
      <point x="1045" y="610"/>
      <point x="1045" y="674" type="qcurve" smooth="yes"/>
      <point x="1045" y="784"/>
      <point x="968" y="956"/>
      <point x="840" y="956" type="qcurve" smooth="yes"/>
      <point x="728" y="956"/>
      <point x="570" y="741"/>
      <point x="543" y="533" type="qcurve" smooth="yes"/>
      <point x="536" y="474"/>
      <point x="536" y="424" type="qcurve" smooth="yes"/>
      <point x="536" y="301"/>
      <point x="631" y="115"/>
    </contour>
  </outline>
</glyph>
<glyph name="c" format="1">
  <advance width="1125"/>
  <unicode hex="0063"/>
  <outline>
    <contour>
      <point x="615" y="-20" type="qcurve" smooth="yes"/>
      <point x="354" y="-20"/>
      <point x="233" y="119" type="qcurve" smooth="yes"/>
      <point x="138" y="228"/>
      <point x="138" y="424" type="qcurve" smooth="yes"/>
      <point x="138" y="478"/>
      <point x="145" y="538" type="qcurve" smooth="yes"/>
      <point x="180" y="813"/>
      <point x="485" y="1088"/>
      <point x="746" y="1088" type="qcurve" smooth="yes"/>
      <point x="866" y="1088"/>
      <point x="1086" y="1015"/>
      <point x="1119" y="952" type="qcurve"/>
      <point x="1119" y="945"/>
      <point x="1089" y="699" type="qcurve"/>
      <point x="1025" y="711" type="line" smooth="yes"/>
      <point x="961" y="722"/>
      <point x="903" y="737"/>
      <point x="901" y="750" type="qcurve"/>
      <point x="869" y="900" type="line" smooth="yes"/>
      <point x="864" y="921"/>
      <point x="853" y="926" type="qcurve"/>
      <point x="808" y="959"/>
      <point x="730" y="959" type="qcurve" smooth="yes"/>
      <point x="649" y="959"/>
      <point x="517" y="871"/>
      <point x="429" y="685"/>
      <point x="410" y="538" type="qcurve"/>
      <point x="403" y="476"/>
      <point x="403" y="423" type="qcurve" smooth="yes"/>
      <point x="403" y="288"/>
      <point x="513" y="104"/>
      <point x="642" y="104" type="qcurve" smooth="yes"/>
      <point x="776" y="104"/>
      <point x="856" y="213" type="qcurve" smooth="yes"/>
      <point x="913" y="291"/>
      <point x="933" y="382" type="qcurve"/>
      <point x="1087" y="354" type="line"/>
      <point x="1062" y="250"/>
      <point x="933" y="82"/>
      <point x="738" y="-20"/>
    </contour>
  </outline>
</glyph>
<glyph name="d" format="1">
  <advance width="1310"/>
  <unicode hex="0064"/>
  <outline>
    <contour>
      <point x="544" y="-20" type="qcurve" smooth="yes"/>
      <point x="382" y="-20"/>
      <point x="288" y="51" type="qcurve" smooth="yes"/>
      <point x="137" y="164"/>
      <point x="137" y="417" type="qcurve" smooth="yes"/>
      <point x="137" y="472"/>
      <point x="144" y="532" type="qcurve"/>
      <point x="181" y="814"/>
      <point x="467" y="1093"/>
      <point x="685" y="1093" type="qcurve" smooth="yes"/>
      <point x="785" y="1093"/>
      <point x="925" y="1028"/>
      <point x="1006" y="926"/>
      <point x="1019" y="868" type="qcurve"/>
      <point x="965" y="868" type="line"/>
      <point x="1032" y="1419"/>
      <point x="1035" y="1425"/>
      <point x="1040" y="1425" type="qcurve"/>
      <point x="938" y="1438" type="line" smooth="yes"/>
      <point x="924" y="1440"/>
      <point x="907" y="1447"/>
      <point x="899" y="1454"/>
      <point x="899" y="1455" type="qcurve"/>
      <point x="901" y="1538" type="line"/>
      <point x="1291" y="1538" type="line"/>
      <point x="1117" y="120" type="line"/>
      <point x="1113" y="123"/>
      <point x="1108" y="125" type="qcurve" smooth="yes"/>
      <point x="1099" y="128" type="line"/>
      <point x="1212" y="115" type="line"/>
      <point x="1248" y="109"/>
      <point x="1249" y="89" type="qcurve"/>
      <point x="1250" y="90" type="line"/>
      <point x="1248" y="-12" type="line"/>
      <point x="1150" y="-5"/>
      <point x="1022" y="1"/>
      <point x="858" y="1" type="qcurve"/>
      <point x="886" y="227" type="line"/>
      <point x="940" y="227" type="line"/>
      <point x="920" y="163"/>
      <point x="810" y="51"/>
      <point x="646" y="-20"/>
    </contour>
    <contour>
      <point x="606" y="115" type="qcurve" smooth="yes"/>
      <point x="715" y="115"/>
      <point x="879" y="332"/>
      <point x="905" y="533" type="qcurve" smooth="yes"/>
      <point x="913" y="600"/>
      <point x="913" y="656" type="qcurve" smooth="yes"/>
      <point x="913" y="776"/>
      <point x="825" y="956"/>
      <point x="713" y="956" type="qcurve" smooth="yes"/>
      <point x="584" y="956"/>
      <point x="439" y="745"/>
      <point x="414" y="533" type="qcurve" smooth="yes"/>
      <point x="404" y="454"/>
      <point x="404" y="390" type="qcurve" smooth="yes"/>
      <point x="404" y="279"/>
      <point x="482" y="115"/>
    </contour>
  </outline>
</glyph>
<glyph name="e" format="1">
  <advance width="1164"/>
  <unicode hex="0065"/>
  <outline>
    <contour>
      <point x="627" y="-20" type="qcurve" smooth="yes"/>
      <point x="367" y="-20"/>
      <point x="240" y="119" type="qcurve" smooth="yes"/>
      <point x="139" y="230"/>
      <point x="139" y="431" type="qcurve" smooth="yes"/>
      <point x="139" y="482"/>
      <point x="145" y="538" type="qcurve" smooth="yes"/>
      <point x="173" y="785"/>
      <point x="455" y="1084"/>
      <point x="734" y="1088" type="qcurve"/>
      <point x="1081" y="1084"/>
      <point x="1141" y="801" type="qcurve" smooth="yes"/>
      <point x="1156" y="729"/>
      <point x="1156" y="649" type="qcurve" smooth="yes"/>
      <point x="1156" y="588"/>
      <point x="1147" y="523" type="qcurve"/>
      <point x="408" y="523" type="line"/>
      <point x="403" y="470"/>
      <point x="403" y="424" type="qcurve" smooth="yes"/>
      <point x="403" y="285"/>
      <point x="515" y="104"/>
      <point x="641" y="104" type="qcurve" smooth="yes"/>
      <point x="868" y="104"/>
      <point x="951" y="319" type="qcurve"/>
      <point x="1114" y="319" type="line"/>
      <point x="1085" y="224"/>
      <point x="954" y="71"/>
      <point x="756" y="-20"/>
    </contour>
    <contour>
      <point x="891" y="629" type="line"/>
      <point x="893" y="663"/>
      <point x="893" y="697" type="qcurve" smooth="yes"/>
      <point x="893" y="722"/>
      <point x="890" y="805"/>
      <point x="856" y="900"/>
      <point x="775" y="958"/>
      <point x="701" y="958" type="qcurve"/>
      <point x="615" y="956"/>
      <point x="509" y="862"/>
      <point x="447" y="713"/>
      <point x="428" y="629" type="qcurve"/>
    </contour>
  </outline>
</glyph>
<glyph name="f" format="1">
  <advance width="848"/>
  <unicode hex="0066"/>
  <outline>
    <contour>
      <point x="637" y="-19" type="line"/>
      <point x="459" y="-5"/>
      <point x="352" y="-5" type="qcurve" smooth="yes"/>
      <point x="255" y="-5"/>
      <point x="74" y="-19" type="qcurve"/>
      <point x="98" y="92" type="line"/>
      <point x="98" y="93"/>
      <point x="106" y="99"/>
      <point x="125" y="107"/>
      <point x="140" y="109" type="qcurve" smooth="yes"/>
      <point x="249" y="121" type="line"/>
      <point x="245" y="121"/>
      <point x="244" y="124" type="qcurve"/>
      <point x="245" y="137" type="line"/>
      <point x="344" y="944" type="line"/>
      <point x="193" y="944" type="line"/>
      <point x="207" y="1061" type="line"/>
      <point x="358" y="1061" type="line"/>
      <point x="385" y="1279" type="line"/>
      <point x="401" y="1421"/>
      <point x="577" y="1569"/>
      <point x="748" y="1571" type="qcurve"/>
      <point x="800" y="1571"/>
      <point x="926" y="1543"/>
      <point x="963" y="1518" type="qcurve"/>
      <point x="883" y="1369" type="line"/>
      <point x="826" y="1404" type="line" smooth="yes"/>
      <point x="797" y="1422"/>
      <point x="766" y="1437"/>
      <point x="748" y="1437" type="qcurve" smooth="yes"/>
      <point x="712" y="1437"/>
      <point x="657" y="1374"/>
      <point x="647" y="1300" type="qcurve" smooth="yes"/>
      <point x="617" y="1061" type="line"/>
      <point x="822" y="1061" type="line"/>
      <point x="808" y="944" type="line"/>
      <point x="603" y="944" type="line"/>
      <point x="504" y="135"/>
      <point x="502" y="120"/>
      <point x="498" y="120" type="qcurve"/>
      <point x="488" y="122" type="line"/>
      <point x="601" y="109" type="line" smooth="yes"/>
      <point x="616" y="107"/>
      <point x="633" y="99"/>
      <point x="639" y="93"/>
      <point x="639" y="92" type="qcurve"/>
    </contour>
  </outline>
</glyph>
<glyph name="g" format="1">
  <advance width="1153"/>
  <unicode hex="0067"/>
  <outline>
    <contour>
      <point x="455" y="-486" type="qcurve" smooth="yes"/>
      <point x="238" y="-486"/>
      <point x="114" y="-409" type="qcurve" smooth="yes"/>
      <point x="2" y="-339"/>
      <point x="2" y="-229" type="qcurve"/>
      <point x="3" y="-205" type="line"/>
      <point x="23" y="-73"/>
      <point x="185" y="27" type="qcurve"/>
      <point x="125" y="35"/>
      <point x="88" y="74" type="qcurve" smooth="yes"/>
      <point x="55" y="109"/>
      <point x="55" y="156" type="qcurve"/>
      <point x="56" y="169" type="line"/>
      <point x="68" y="234"/>
      <point x="204" y="375"/>
      <point x="281" y="424" type="qcurve"/>
      <point x="169" y="516"/>
      <point x="169" y="667" type="qcurve" smooth="yes"/>
      <point x="169" y="692"/>
      <point x="172" y="719" type="qcurve"/>
      <point x="197" y="902"/>
      <point x="463" y="1090"/>
      <point x="668" y="1090" type="qcurve" smooth="yes"/>
      <point x="1178" y="1090" type="line"/>
      <point x="1162" y="1018" type="line"/>
      <point x="1159" y="1017" type="line"/>
      <point x="1151" y="1011"/>
      <point x="1123" y="1006" type="qcurve"/>
      <point x="985" y="990" type="line"/>
      <point x="956" y="1001" type="line"/>
      <point x="954" y="998" type="line"/>
      <point x="1008" y="980"/>
      <point x="1036" y="932" type="qcurve"/>
      <point x="1080" y="862"/>
      <point x="1080" y="762" type="qcurve" smooth="yes"/>
      <point x="1080" y="741"/>
      <point x="1078" y="719" type="qcurve"/>
      <point x="1053" y="534"/>
      <point x="782" y="345"/>
      <point x="576" y="345" type="qcurve" smooth="yes"/>
      <point x="438" y="345"/>
      <point x="388" y="368" type="qcurve"/>
      <point x="363" y="356"/>
      <point x="294" y="281"/>
      <point x="284" y="225" type="qcurve"/>
      <point x="283" y="205" type="line"/>
      <point x="283" y="165"/>
      <point x="325" y="165" type="qcurve" smooth="yes"/>
      <point x="728" y="165" type="line" smooth="yes"/>
      <point x="974" y="165"/>
      <point x="1067" y="56" type="qcurve"/>
      <point x="1109" y="5"/>
      <point x="1109" y="-79" type="qcurve" smooth="yes"/>
      <point x="1109" y="-98"/>
      <point x="1107" y="-119" type="qcurve" smooth="yes"/>
      <point x="1099" y="-181"/>
      <point x="999" y="-309"/>
      <point x="827" y="-418"/>
      <point x="595" y="-486"/>
    </contour>
    <contour>
      <point x="588" y="433" type="qcurve" smooth="yes"/>
      <point x="675" y="433"/>
      <point x="790" y="572"/>
      <point x="809" y="719" type="qcurve" smooth="yes"/>
      <point x="814" y="762"/>
      <point x="814" y="798" type="qcurve" smooth="yes"/>
      <point x="814" y="847"/>
      <point x="789" y="945"/>
      <point x="712" y="1002"/>
      <point x="658" y="1002" type="qcurve" smooth="yes"/>
      <point x="574" y="1002"/>
      <point x="457" y="869"/>
      <point x="438" y="719" type="qcurve" smooth="yes"/>
      <point x="432" y="673"/>
      <point x="432" y="634" type="qcurve" smooth="yes"/>
      <point x="432" y="433"/>
    </contour>
    <contour>
      <point x="508" y="-366" type="qcurve" smooth="yes"/>
      <point x="677" y="-366"/>
      <point x="783" y="-309" type="qcurve" smooth="yes"/>
      <point x="902" y="-246"/>
      <point x="902" y="-147" type="qcurve" smooth="yes"/>
      <point x="902" y="-100"/>
      <point x="854" y="-37"/>
      <point x="767" y="-9"/>
      <point x="726" y="-9" type="qcurve" smooth="yes"/>
      <point x="348" y="-9" type="line"/>
      <point x="346" y="-11"/>
      <point x="342" y="-13" type="qcurve" smooth="yes"/>
      <point x="317" y="-24"/>
      <point x="238" y="-100"/>
      <point x="224" y="-179" type="qcurve"/>
      <point x="223" y="-201" type="line"/>
      <point x="223" y="-256"/>
      <point x="290" y="-331"/>
      <point x="425" y="-366"/>
    </contour>
  </outline>
</glyph>
<glyph name="h" format="1">
  <advance width="1408"/>
  <unicode hex="0068"/>
  <outline>
    <contour>
      <point x="1345" y="-19" type="line"/>
      <point x="1170" y="-6"/>
      <point x="1072" y="-6" type="qcurve" smooth="yes"/>
      <point x="972" y="-6"/>
      <point x="796" y="-19" type="qcurve"/>
      <point x="820" y="93" type="line"/>
      <point x="825" y="96" type="line" smooth="yes"/>
      <point x="830" y="99"/>
      <point x="849" y="106"/>
      <point x="863" y="108" type="qcurve" smooth="yes"/>
      <point x="971" y="120" type="line"/>
      <point x="967" y="120"/>
      <point x="967" y="125" type="qcurve"/>
      <point x="1041" y="729" type="line" smooth="yes"/>
      <point x="1043" y="750"/>
      <point x="1043" y="768" type="qcurve" smooth="yes"/>
      <point x="1043" y="927"/>
      <point x="881" y="927" type="qcurve" smooth="yes"/>
      <point x="763" y="927"/>
      <point x="674" y="844" type="qcurve"/>
      <point x="571" y="756"/>
      <point x="550" y="606" type="qcurve"/>
      <point x="493" y="137" type="line" smooth="yes"/>
      <point x="491" y="120"/>
      <point x="484" y="120" type="qcurve"/>
      <point x="589" y="108" type="line" smooth="yes"/>
      <point x="603" y="106"/>
      <point x="620" y="99"/>
      <point x="624" y="96" type="qcurve" smooth="yes"/>
      <point x="628" y="93" type="line"/>
      <point x="626" y="-19" type="line"/>
      <point x="451" y="-6"/>
      <point x="352" y="-6" type="qcurve" smooth="yes"/>
      <point x="253" y="-6"/>
      <point x="77" y="-19" type="qcurve"/>
      <point x="101" y="92" type="line"/>
      <point x="101" y="93"/>
      <point x="122" y="105"/>
      <point x="144" y="108" type="qcurve" smooth="yes"/>
      <point x="252" y="120" type="line"/>
      <point x="247" y="120"/>
      <point x="247" y="127" type="qcurve"/>
      <point x="326" y="770" type="line" smooth="yes"/>
      <point x="404" y="1413"/>
      <point x="407" y="1420"/>
      <point x="411" y="1420" type="qcurve"/>
      <point x="311" y="1433" type="line" smooth="yes"/>
      <point x="297" y="1435"/>
      <point x="279" y="1442"/>
      <point x="275" y="1446" type="qcurve" smooth="yes"/>
      <point x="271" y="1449" type="line"/>
      <point x="273" y="1532" type="line"/>
      <point x="664" y="1532" type="line"/>
      <point x="582" y="862" type="line"/>
      <point x="527" y="862" type="line"/>
      <point x="543" y="910"/>
      <point x="649" y="1013"/>
      <point x="819" y="1088"/>
      <point x="930" y="1088" type="qcurve" smooth="yes"/>
      <point x="1136" y="1088"/>
      <point x="1222" y="1000" type="qcurve" smooth="yes"/>
      <point x="1290" y="929"/>
      <point x="1290" y="808" type="qcurve" smooth="yes"/>
      <point x="1290" y="776"/>
      <point x="1286" y="742" type="qcurve" smooth="yes"/>
      <point x="1210" y="123"/>
      <point x="1208" y="120"/>
      <point x="1205" y="120" type="qcurve"/>
      <point x="1308" y="108" type="line" smooth="yes"/>
      <point x="1323" y="106"/>
      <point x="1340" y="99"/>
      <point x="1344" y="96" type="qcurve" smooth="yes"/>
      <point x="1347" y="93" type="line"/>
    </contour>
  </outline>
</glyph>
<glyph name="i" format="1">
  <advance width="683"/>
  <unicode hex="0069"/>
  <outline>
    <contour>
      <point x="625" y="-20" type="line"/>
      <point x="450" y="-7"/>
      <point x="352" y="-7" type="qcurve" smooth="yes"/>
      <point x="253" y="-7"/>
      <point x="77" y="-20" type="qcurve"/>
      <point x="100" y="91" type="line"/>
      <point x="100" y="92"/>
      <point x="122" y="104"/>
      <point x="143" y="107" type="qcurve"/>
      <point x="252" y="119" type="line"/>
      <point x="247" y="119"/>
      <point x="247" y="126" type="qcurve"/>
      <point x="297" y="533" type="line" smooth="yes"/>
      <point x="346" y="940"/>
      <point x="349" y="947"/>
      <point x="352" y="947" type="qcurve"/>
      <point x="252" y="960" type="line" smooth="yes"/>
      <point x="238" y="962"/>
      <point x="221" y="969"/>
      <point x="213" y="976"/>
      <point x="213" y="977" type="qcurve"/>
      <point x="214" y="1059" type="line"/>
      <point x="605" y="1059" type="line"/>
      <point x="491" y="124" type="line"/>
      <point x="489" y="118"/>
      <point x="486" y="118" type="qcurve"/>
      <point x="477" y="120" type="line"/>
      <point x="589" y="107" type="line" smooth="yes"/>
      <point x="603" y="105"/>
      <point x="620" y="98"/>
      <point x="624" y="95" type="qcurve" smooth="yes"/>
      <point x="628" y="92" type="line"/>
    </contour>
    <contour>
      <point x="496" y="1272" type="qcurve" smooth="yes"/>
      <point x="362" y="1272"/>
      <point x="362" y="1382" type="qcurve" smooth="yes"/>
      <point x="362" y="1457"/>
      <point x="411" y="1498" type="qcurve" smooth="yes"/>
      <point x="451" y="1531"/>
      <point x="527" y="1531" type="qcurve" smooth="yes"/>
      <point x="601" y="1531"/>
      <point x="635" y="1497" type="qcurve" smooth="yes"/>
      <point x="663" y="1470"/>
      <point x="663" y="1425" type="qcurve"/>
      <point x="662" y="1406" type="line"/>
      <point x="654" y="1345"/>
      <point x="570" y="1272"/>
    </contour>
  </outline>
</glyph>
<glyph name="j" format="1">
  <advance width="710"/>
  <unicode hex="006A"/>
  <outline>
    <contour>
      <point x="530" y="1275" type="qcurve" smooth="yes"/>
      <point x="399" y="1275"/>
      <point x="399" y="1381" type="qcurve" smooth="yes"/>
      <point x="399" y="1454"/>
      <point x="448" y="1494" type="qcurve" smooth="yes"/>
      <point x="487" y="1527"/>
      <point x="561" y="1527" type="qcurve" smooth="yes"/>
      <point x="633" y="1527"/>
      <point x="666" y="1494" type="qcurve" smooth="yes"/>
      <point x="694" y="1466"/>
      <point x="694" y="1422" type="qcurve"/>
      <point x="693" y="1405" type="line"/>
      <point x="685" y="1346"/>
      <point x="603" y="1275"/>
    </contour>
    <contour>
      <point x="-80" y="-405" type="qcurve"/>
      <point x="-64" y="-280" type="line"/>
      <point x="-28" y="-280" type="line" smooth="yes"/>
      <point x="108" y="-280"/>
      <point x="245" y="-117"/>
      <point x="266" y="63" type="qcurve"/>
      <point x="271" y="114"/>
      <point x="372" y="940" type="qcurve" smooth="yes"/>
      <point x="373" y="950"/>
      <point x="379" y="950" type="qcurve"/>
      <point x="282" y="963" type="line"/>
      <point x="268" y="964"/>
      <point x="250" y="971"/>
      <point x="242" y="978"/>
      <point x="242" y="979" type="qcurve"/>
      <point x="244" y="1059" type="line"/>
      <point x="636" y="1059" type="line"/>
      <point x="517" y="90" type="line"/>
      <point x="493" y="-136"/>
      <point x="214" y="-400"/>
    </contour>
  </outline>
</glyph>
<glyph name="k" format="1">
  <advance width="1239"/>
  <unicode hex="006B"/>
  <outline>
    <contour>
      <point x="610" y="-19" type="line"/>
      <point x="447" y="-5"/>
      <point x="337" y="-5" type="qcurve"/>
      <point x="222" y="-7"/>
      <point x="62" y="-19" type="qcurve"/>
      <point x="86" y="92" type="line"/>
      <point x="86" y="93"/>
      <point x="94" y="99"/>
      <point x="113" y="107"/>
      <point x="128" y="109" type="qcurve" smooth="yes"/>
      <point x="237" y="121" type="line"/>
      <point x="233" y="121"/>
      <point x="233" y="129" type="qcurve" smooth="yes"/>
      <point x="233" y="137" type="line"/>
      <point x="389" y="1414"/>
      <point x="391" y="1419"/>
      <point x="395" y="1419" type="qcurve"/>
      <point x="296" y="1432" type="line" smooth="yes"/>
      <point x="282" y="1434"/>
      <point x="264" y="1441"/>
      <point x="256" y="1449"/>
      <point x="256" y="1450" type="qcurve"/>
      <point x="258" y="1532" type="line"/>
      <point x="648" y="1532" type="line"/>
      <point x="539" y="643" type="line"/>
      <point x="605" y="702"/>
      <point x="670" y="760"/>
      <point x="704" y="791"/>
      <point x="739" y="823"/>
      <point x="801" y="878"/>
      <point x="856" y="927" type="qcurve"/>
      <point x="862" y="935"/>
      <point x="862" y="942" type="qcurve"/>
      <point x="861" y="948"/>
      <point x="857" y="950" type="qcurve"/>
      <point x="768" y="961" type="line"/>
      <point x="729" y="967"/>
      <point x="729" y="991" type="qcurve"/>
      <point x="730" y="1060" type="line"/>
      <point x="1243" y="1060" type="line"/>
      <point x="1224" y="978" type="line"/>
      <point x="1224" y="976"/>
      <point x="1201" y="964"/>
      <point x="1182" y="962" type="qcurve" smooth="yes"/>
      <point x="1070" y="947" type="line"/>
      <point x="1072" y="947"/>
      <point x="1076" y="949"/>
      <point x="1078" y="949"/>
      <point x="1080" y="950" type="qcurve"/>
      <point x="1079" y="949"/>
      <point x="1078" y="948"/>
      <point x="769" y="670"/>
      <point x="762" y="657"/>
      <point x="761" y="648" type="qcurve"/>
      <point x="761" y="637"/>
      <point x="763" y="628"/>
      <point x="1060" y="129" type="qcurve"/>
      <point x="1060" y="126"/>
      <point x="1061" y="125"/>
      <point x="1064" y="121" type="qcurve"/>
      <point x="1063" y="120" type="line"/>
      <point x="1051" y="122" type="line"/>
      <point x="1164" y="109" type="line" smooth="yes"/>
      <point x="1179" y="107"/>
      <point x="1196" y="99"/>
      <point x="1202" y="93"/>
      <point x="1202" y="92" type="qcurve"/>
      <point x="1200" y="-18" type="line"/>
      <point x="1094" y="-11"/>
      <point x="958" y="-5"/>
      <point x="866" y="-5" type="qcurve"/>
      <point x="572" y="495" type="line"/>
      <point x="515" y="442" type="line"/>
      <point x="476" y="124" type="line"/>
      <point x="474" y="119" type="line"/>
      <point x="471" y="119"/>
      <point x="465" y="121"/>
      <point x="461" y="122" type="qcurve"/>
      <point x="574" y="109" type="line" smooth="yes"/>
      <point x="588" y="107"/>
      <point x="605" y="99"/>
      <point x="613" y="93"/>
      <point x="613" y="92" type="qcurve"/>
    </contour>
  </outline>
</glyph>
<glyph name="l" format="1">
  <advance width="673"/>
  <unicode hex="006C"/>
  <outline>
    <contour>
      <point x="620" y="-20" type="line"/>
      <point x="459" y="-8"/>
      <point x="347" y="-6" type="qcurve"/>
      <point x="225" y="-8"/>
      <point x="62" y="-20" type="qcurve"/>
      <point x="85" y="92" type="line"/>
      <point x="90" y="95" type="line" smooth="yes"/>
      <point x="95" y="98"/>
      <point x="114" y="105"/>
      <point x="128" y="107" type="qcurve" smooth="yes"/>
      <point x="236" y="120" type="line"/>
      <point x="232" y="120"/>
      <point x="232" y="126" type="qcurve" smooth="yes"/>
      <point x="232" y="129"/>
      <point x="389" y="1411"/>
      <point x="392" y="1418"/>
      <point x="396" y="1418" type="qcurve"/>
      <point x="295" y="1432" type="line" smooth="yes"/>
      <point x="281" y="1434"/>
      <point x="264" y="1441"/>
      <point x="256" y="1447"/>
      <point x="256" y="1448" type="qcurve"/>
      <point x="258" y="1531" type="line"/>
      <point x="658" y="1531" type="line"/>
      <point x="487" y="136" type="line" smooth="yes"/>
      <point x="485" y="120"/>
      <point x="480" y="120" type="qcurve"/>
      <point x="584" y="107" type="line"/>
      <point x="598" y="106"/>
      <point x="615" y="99"/>
      <point x="619" y="96" type="qcurve" smooth="yes"/>
      <point x="623" y="92" type="line"/>
    </contour>
  </outline>
</glyph>
<glyph name="m" format="1">
  <advance width="1988"/>
  <unicode hex="006D"/>
  <outline>
    <contour>
      <point x="1925" y="-20" type="line"/>
      <point x="1764" y="-8"/>
      <point x="1652" y="-6" type="qcurve"/>
      <point x="1537" y="-8"/>
      <point x="1377" y="-20" type="qcurve"/>
      <point x="1400" y="92" type="line"/>
      <point x="1405" y="96" type="line" smooth="yes"/>
      <point x="1410" y="99"/>
      <point x="1426" y="105"/>
      <point x="1550" y="120" type="qcurve"/>
      <point x="1547" y="120"/>
      <point x="1547" y="126" type="qcurve"/>
      <point x="1620" y="728" type="line" smooth="yes"/>
      <point x="1623" y="752"/>
      <point x="1623" y="773" type="qcurve" smooth="yes"/>
      <point x="1623" y="836"/>
      <point x="1561" y="926"/>
      <point x="1484" y="926" type="qcurve" smooth="yes"/>
      <point x="1420" y="926"/>
      <point x="1299" y="852"/>
      <point x="1210" y="691"/>
      <point x="1193" y="563" type="qcurve"/>
      <point x="1141" y="136" type="line" smooth="yes"/>
      <point x="1139" y="120"/>
      <point x="1134" y="120" type="qcurve"/>
      <point x="1238" y="107" type="line"/>
      <point x="1252" y="106"/>
      <point x="1269" y="99"/>
      <point x="1273" y="96" type="qcurve" smooth="yes"/>
      <point x="1277" y="92" type="line"/>
      <point x="1274" y="-20" type="line"/>
      <point x="1113" y="-8"/>
      <point x="1001" y="-6" type="qcurve"/>
      <point x="888" y="-8"/>
      <point x="726" y="-20" type="qcurve"/>
      <point x="750" y="92" type="line"/>
      <point x="755" y="96" type="line" smooth="yes"/>
      <point x="760" y="99"/>
      <point x="775" y="105"/>
      <point x="900" y="120" type="qcurve"/>
      <point x="896" y="120"/>
      <point x="896" y="126" type="qcurve"/>
      <point x="969" y="728" type="line" smooth="yes"/>
      <point x="972" y="755"/>
      <point x="972" y="778" type="qcurve" smooth="yes"/>
      <point x="972" y="926"/>
      <point x="842" y="926" type="qcurve" smooth="yes"/>
      <point x="792" y="926"/>
      <point x="710" y="889"/>
      <point x="629" y="814"/>
      <point x="558" y="666"/>
      <point x="544" y="563" type="qcurve"/>
      <point x="492" y="136" type="line" smooth="yes"/>
      <point x="491" y="126"/>
      <point x="488" y="120"/>
      <point x="485" y="120" type="qcurve"/>
      <point x="589" y="107" type="line"/>
      <point x="603" y="106"/>
      <point x="620" y="99"/>
      <point x="624" y="96" type="qcurve" smooth="yes"/>
      <point x="628" y="92" type="line"/>
      <point x="625" y="-20" type="line"/>
      <point x="464" y="-8"/>
      <point x="352" y="-6" type="qcurve"/>
      <point x="239" y="-8"/>
      <point x="77" y="-20" type="qcurve"/>
      <point x="101" y="92" type="line"/>
      <point x="106" y="96" type="line" smooth="yes"/>
      <point x="111" y="99"/>
      <point x="127" y="105"/>
      <point x="251" y="120" type="qcurve"/>
      <point x="247" y="120"/>
      <point x="247" y="126" type="qcurve"/>
      <point x="348" y="950" type="line"/>
      <point x="273" y="960" type="line" smooth="yes"/>
      <point x="259" y="962"/>
      <point x="242" y="969"/>
      <point x="234" y="976"/>
      <point x="234" y="977" type="qcurve"/>
      <point x="236" y="1059" type="line"/>
      <point x="605" y="1059" type="line"/>
      <point x="581" y="861" type="line"/>
      <point x="525" y="861" type="line"/>
      <point x="540" y="909"/>
      <point x="635" y="1012"/>
      <point x="787" y="1087"/>
      <point x="886" y="1087" type="qcurve" smooth="yes"/>
      <point x="1035" y="1087"/>
      <point x="1205" y="968"/>
      <point x="1217" y="861" type="qcurve"/>
      <point x="1161" y="861" type="line"/>
      <point x="1176" y="909"/>
      <point x="1274" y="1012"/>
      <point x="1429" y="1087"/>
      <point x="1528" y="1087" type="qcurve" smooth="yes"/>
      <point x="1711" y="1087"/>
      <point x="1799" y="999" type="qcurve" smooth="yes"/>
      <point x="1870" y="927"/>
      <point x="1870" y="801" type="qcurve" smooth="yes"/>
      <point x="1870" y="773"/>
      <point x="1866" y="741" type="qcurve" smooth="yes"/>
      <point x="1792" y="136" type="line" smooth="yes"/>
      <point x="1790" y="120"/>
      <point x="1785" y="120" type="qcurve"/>
      <point x="1888" y="107" type="line"/>
      <point x="1902" y="106"/>
      <point x="1920" y="99"/>
      <point x="1924" y="96" type="qcurve" smooth="yes"/>
      <point x="1927" y="92" type="line"/>
    </contour>
  </outline>
</glyph>
<glyph name="n" format="1">
  <advance width="1402"/>
  <unicode hex="006E"/>
  <outline>
    <contour>
      <point x="1345" y="-20" type="line"/>
      <point x="1185" y="-8"/>
      <point x="1071" y="-6" type="qcurve"/>
      <point x="957" y="-8"/>
      <point x="796" y="-20" type="qcurve"/>
      <point x="820" y="92" type="line"/>
      <point x="825" y="96" type="line" smooth="yes"/>
      <point x="830" y="99"/>
      <point x="846" y="105"/>
      <point x="970" y="120" type="qcurve"/>
      <point x="966" y="120"/>
      <point x="966" y="126" type="qcurve"/>
      <point x="1040" y="728" type="line" smooth="yes"/>
      <point x="1043" y="750"/>
      <point x="1043" y="770" type="qcurve" smooth="yes"/>
      <point x="1043" y="926"/>
      <point x="881" y="926" type="qcurve" smooth="yes"/>
      <point x="805" y="926"/>
      <point x="660" y="832"/>
      <point x="561" y="686"/>
      <point x="550" y="605" type="qcurve"/>
      <point x="492" y="125"/>
      <point x="489" y="120"/>
      <point x="485" y="120" type="qcurve"/>
      <point x="589" y="107" type="line"/>
      <point x="603" y="106"/>
      <point x="620" y="99"/>
      <point x="624" y="96" type="qcurve" smooth="yes"/>
      <point x="628" y="92" type="line"/>
      <point x="626" y="-20" type="line"/>
      <point x="466" y="-8"/>
      <point x="353" y="-6" type="qcurve"/>
      <point x="239" y="-8"/>
      <point x="77" y="-20" type="qcurve"/>
      <point x="101" y="92" type="line"/>
      <point x="106" y="96" type="line" smooth="yes"/>
      <point x="111" y="99"/>
      <point x="127" y="105"/>
      <point x="251" y="120" type="qcurve"/>
      <point x="248" y="120"/>
      <point x="248" y="125" type="qcurve"/>
      <point x="248" y="127"/>
      <point x="347" y="943"/>
      <point x="351" y="947"/>
      <point x="354" y="947" type="qcurve"/>
      <point x="253" y="960" type="line" smooth="yes"/>
      <point x="239" y="962"/>
      <point x="221" y="969"/>
      <point x="213" y="976"/>
      <point x="213" y="977" type="qcurve"/>
      <point x="215" y="1059" type="line"/>
      <point x="606" y="1059" type="line"/>
      <point x="582" y="861" type="line"/>
      <point x="527" y="861" type="line"/>
      <point x="543" y="909"/>
      <point x="649" y="1012"/>
      <point x="818" y="1087"/>
      <point x="929" y="1087" type="qcurve" smooth="yes"/>
      <point x="1136" y="1087"/>
      <point x="1222" y="999" type="qcurve" smooth="yes"/>
      <point x="1290" y="928"/>
      <point x="1290" y="807" type="qcurve" smooth="yes"/>
      <point x="1290" y="775"/>
      <point x="1286" y="741" type="qcurve" smooth="yes"/>
      <point x="1211" y="125"/>
      <point x="1208" y="120"/>
      <point x="1204" y="120" type="qcurve"/>
      <point x="1308" y="107" type="line"/>
      <point x="1322" y="106"/>
      <point x="1339" y="99"/>
      <point x="1343" y="96" type="qcurve" smooth="yes"/>
      <point x="1347" y="92" type="line"/>
    </contour>
  </outline>
</glyph>
<glyph name="o" format="1">
  <advance width="1212"/>
  <unicode hex="006F"/>
  <outline>
    <contour>
      <point x="602" y="-20" type="qcurve" smooth="yes"/>
      <point x="137" y="-20"/>
      <point x="137" y="416" type="qcurve" smooth="yes"/>
      <point x="137" y="473"/>
      <point x="145" y="538" type="qcurve" smooth="yes"/>
      <point x="212" y="1090"/>
      <point x="739" y="1090" type="qcurve" smooth="yes"/>
      <point x="1004" y="1090"/>
      <point x="1118" y="952" type="qcurve" smooth="yes"/>
      <point x="1205" y="846"/>
      <point x="1205" y="658" type="qcurve" smooth="yes"/>
      <point x="1205" y="602"/>
      <point x="1197" y="538" type="qcurve"/>
      <point x="1133" y="-20"/>
    </contour>
    <contour>
      <point x="619" y="113" type="qcurve" smooth="yes"/>
      <point x="893" y="113"/>
      <point x="946" y="538" type="qcurve"/>
      <point x="953" y="602"/>
      <point x="953" y="656" type="qcurve" smooth="yes"/>
      <point x="953" y="726"/>
      <point x="920" y="873"/>
      <point x="807" y="962"/>
      <point x="723" y="962" type="qcurve" smooth="yes"/>
      <point x="455" y="962"/>
      <point x="401" y="538" type="qcurve" smooth="yes"/>
      <point x="392" y="466"/>
      <point x="392" y="407" type="qcurve" smooth="yes"/>
      <point x="392" y="286"/>
      <point x="485" y="113"/>
    </contour>
  </outline>
</glyph>
<glyph name="p" format="1">
  <advance width="1293"/>
  <unicode hex="0070"/>
  <outline>
    <contour>
      <point x="554" y="-463" type="line"/>
      <point x="533" y="-462"/>
      <point x="514" y="-460" type="qcurve" smooth="yes"/>
      <point x="383" y="-450"/>
      <point x="283" y="-450" type="qcurve" smooth="yes"/>
      <point x="181" y="-450"/>
      <point x="47" y="-460" type="qcurve" smooth="yes"/>
      <point x="28" y="-462"/>
      <point x="7" y="-463" type="qcurve"/>
      <point x="31" y="-353" type="line"/>
      <point x="36" y="-349" type="line" smooth="yes"/>
      <point x="40" y="-346"/>
      <point x="59" y="-339"/>
      <point x="74" y="-337" type="qcurve" smooth="yes"/>
      <point x="180" y="-325" type="line"/>
      <point x="176" y="-325"/>
      <point x="176" y="-320" type="qcurve"/>
      <point x="177" y="-311" type="line" smooth="yes"/>
      <point x="229" y="107"/>
      <point x="276" y="532" type="qcurve"/>
      <point x="330" y="941"/>
      <point x="332" y="947"/>
      <point x="336" y="947" type="qcurve"/>
      <point x="236" y="960" type="line" smooth="yes"/>
      <point x="222" y="962"/>
      <point x="205" y="969"/>
      <point x="197" y="975"/>
      <point x="197" y="976" type="qcurve"/>
      <point x="199" y="1058" type="line"/>
      <point x="585" y="1058" type="line"/>
      <point x="561" y="861" type="line"/>
      <point x="512" y="861" type="line"/>
      <point x="535" y="919"/>
      <point x="643" y="1021"/>
      <point x="801" y="1085"/>
      <point x="897" y="1085" type="qcurve" smooth="yes"/>
      <point x="1058" y="1085"/>
      <point x="1152" y="1015" type="qcurve" smooth="yes"/>
      <point x="1301" y="902"/>
      <point x="1301" y="651" type="qcurve" smooth="yes"/>
      <point x="1301" y="597"/>
      <point x="1294" y="538" type="qcurve"/>
      <point x="1257" y="258"/>
      <point x="973" y="-19"/>
      <point x="757" y="-19" type="qcurve" smooth="yes"/>
      <point x="657" y="-19"/>
      <point x="521" y="45"/>
      <point x="444" y="146"/>
      <point x="432" y="204" type="qcurve"/>
      <point x="486" y="204" type="line"/>
      <point x="423" y="-309" type="line" smooth="yes"/>
      <point x="421" y="-325"/>
      <point x="416" y="-325" type="qcurve"/>
      <point x="519" y="-337" type="line" smooth="yes"/>
      <point x="532" y="-339"/>
      <point x="550" y="-346"/>
      <point x="554" y="-349" type="qcurve" smooth="yes"/>
      <point x="558" y="-353" type="line"/>
    </contour>
    <contour>
      <point x="728" y="109" type="qcurve" smooth="yes"/>
      <point x="842" y="109"/>
      <point x="999" y="324"/>
      <point x="1026" y="536" type="qcurve" smooth="yes"/>
      <point x="1034" y="604"/>
      <point x="1034" y="661" type="qcurve" smooth="yes"/>
      <point x="1034" y="724"/>
      <point x="1005" y="862"/>
      <point x="906" y="946"/>
      <point x="835" y="946" type="qcurve" smooth="yes"/>
      <point x="727" y="946"/>
      <point x="565" y="735"/>
      <point x="539" y="536" type="qcurve" smooth="yes"/>
      <point x="531" y="469"/>
      <point x="531" y="412" type="qcurve" smooth="yes"/>
      <point x="531" y="293"/>
      <point x="618" y="109"/>
    </contour>
  </outline>
</glyph>
<glyph name="q" format="1">
  <advance width="1298"/>
  <unicode hex="0071"/>
  <outline>
    <contour>
      <point x="1188" y="-464" type="line"/>
      <point x="1018" y="-453"/>
      <point x="925" y="-451" type="qcurve"/>
      <point x="793" y="-451" type="line"/>
      <point x="873" y="204" type="line"/>
      <point x="926" y="204" type="line"/>
      <point x="900" y="146"/>
      <point x="797" y="45"/>
      <point x="646" y="-20"/>
      <point x="547" y="-20" type="qcurve" smooth="yes"/>
      <point x="329" y="-20"/>
      <point x="221" y="119" type="qcurve" smooth="yes"/>
      <point x="138" y="226"/>
      <point x="138" y="418" type="qcurve" smooth="yes"/>
      <point x="138" y="475"/>
      <point x="145" y="539" type="qcurve"/>
      <point x="165" y="699"/>
      <point x="293" y="946"/>
      <point x="515" y="1087"/>
      <point x="676" y="1087" type="qcurve" smooth="yes"/>
      <point x="773" y="1087"/>
      <point x="916" y="1023"/>
      <point x="999" y="921"/>
      <point x="1008" y="863" type="qcurve"/>
      <point x="959" y="863" type="line"/>
      <point x="983" y="1060" type="line"/>
      <point x="1370" y="1060" type="line"/>
      <point x="1352" y="978" type="line"/>
      <point x="1352" y="977"/>
      <point x="1330" y="964"/>
      <point x="1308" y="961" type="qcurve" smooth="yes"/>
      <point x="1205" y="949" type="line"/>
      <point x="1209" y="949"/>
      <point x="1209" y="942" type="qcurve"/>
      <point x="1162" y="533" type="line"/>
      <point x="1107" y="111"/>
      <point x="1056" y="-309" type="qcurve" smooth="yes"/>
      <point x="1055" y="-319"/>
      <point x="1052" y="-326"/>
      <point x="1048" y="-326" type="qcurve"/>
      <point x="1152" y="-338" type="line" smooth="yes"/>
      <point x="1166" y="-340"/>
      <point x="1183" y="-347"/>
      <point x="1187" y="-350" type="qcurve" smooth="yes"/>
      <point x="1191" y="-353" type="line"/>
    </contour>
    <contour>
      <point x="606" y="109" type="qcurve" smooth="yes"/>
      <point x="716" y="109"/>
      <point x="874" y="330"/>
      <point x="901" y="537" type="qcurve" smooth="yes"/>
      <point x="908" y="595"/>
      <point x="908" y="645" type="qcurve" smooth="yes"/>
      <point x="908" y="767"/>
      <point x="813" y="948"/>
      <point x="705" y="948" type="qcurve" smooth="yes"/>
      <point x="634" y="948"/>
      <point x="514" y="864"/>
      <point x="431" y="682"/>
      <point x="413" y="537" type="qcurve" smooth="yes"/>
      <point x="405" y="468"/>
      <point x="405" y="410" type="qcurve" smooth="yes"/>
      <point x="405" y="290"/>
      <point x="492" y="109"/>
    </contour>
  </outline>
</glyph>
<glyph name="r" format="1">
  <advance width="979"/>
  <unicode hex="0072"/>
  <outline>
    <contour>
      <point x="610" y="-20" type="line"/>
      <point x="435" y="-7"/>
      <point x="337" y="-7" type="qcurve" smooth="yes"/>
      <point x="237" y="-7"/>
      <point x="62" y="-20" type="qcurve"/>
      <point x="85" y="91" type="line"/>
      <point x="85" y="92"/>
      <point x="107" y="104"/>
      <point x="128" y="107" type="qcurve" smooth="yes"/>
      <point x="236" y="119" type="line"/>
      <point x="232" y="119"/>
      <point x="232" y="125" type="qcurve"/>
      <point x="282" y="532" type="line" smooth="yes"/>
      <point x="331" y="939"/>
      <point x="334" y="946"/>
      <point x="339" y="946" type="qcurve"/>
      <point x="237" y="959" type="line" smooth="yes"/>
      <point x="223" y="961"/>
      <point x="205" y="968"/>
      <point x="198" y="975"/>
      <point x="198" y="976" type="qcurve"/>
      <point x="199" y="1059" type="line"/>
      <point x="590" y="1059" type="line"/>
      <point x="566" y="860" type="line"/>
      <point x="515" y="860" type="line"/>
      <point x="539" y="920"/>
      <point x="623" y="1022"/>
      <point x="754" y="1085"/>
      <point x="847" y="1085" type="qcurve" smooth="yes"/>
      <point x="975" y="1085"/>
      <point x="1046" y="1039" type="qcurve"/>
      <point x="1006" y="720" type="line"/>
      <point x="960" y="725" type="line" smooth="yes"/>
      <point x="889" y="733"/>
      <point x="827" y="745"/>
      <point x="824" y="758" type="qcurve" smooth="yes"/>
      <point x="794" y="897" type="line"/>
      <point x="794" y="908" type="line"/>
      <point x="796" y="916" type="line"/>
      <point x="796" y="918"/>
      <point x="790" y="918" type="qcurve"/>
      <point x="712" y="916"/>
      <point x="602" y="798"/>
      <point x="536" y="623"/>
      <point x="524" y="533" type="qcurve"/>
      <point x="476" y="125"/>
      <point x="473" y="119"/>
      <point x="469" y="119" type="qcurve"/>
      <point x="574" y="107" type="line" smooth="yes"/>
      <point x="588" y="105"/>
      <point x="605" y="98"/>
      <point x="609" y="95" type="qcurve" smooth="yes"/>
      <point x="612" y="92" type="line"/>
    </contour>
  </outline>
</glyph>
<glyph name="s" format="1">
  <advance width="1031"/>
  <unicode hex="0073"/>
  <outline>
    <contour>
      <point x="485" y="-20" type="qcurve" smooth="yes"/>
      <point x="381" y="-20"/>
      <point x="237" y="20"/>
      <point x="147" y="73"/>
      <point x="125" y="95" type="qcurve" smooth="yes"/>
      <point x="112" y="108" type="line"/>
      <point x="136" y="304" type="line"/>
      <point x="206" y="291" type="line" smooth="yes"/>
      <point x="259" y="282"/>
      <point x="305" y="268"/>
      <point x="310" y="256" type="qcurve" smooth="yes"/>
      <point x="348" y="152" type="line"/>
      <point x="363" y="120"/>
      <point x="463" y="95"/>
      <point x="493" y="95" type="qcurve" smooth="yes"/>
      <point x="588" y="95"/>
      <point x="720" y="197"/>
      <point x="732" y="289" type="qcurve"/>
      <point x="733" y="311" type="line"/>
      <point x="733" y="372"/>
      <point x="636" y="461"/>
      <point x="532" y="496" type="qcurve" smooth="yes"/>
      <point x="369" y="552"/>
      <point x="283" y="623" type="qcurve" smooth="yes"/>
      <point x="208" y="686"/>
      <point x="208" y="778" type="qcurve"/>
      <point x="209" y="802" type="line"/>
      <point x="247" y="1092"/>
      <point x="675" y="1092" type="qcurve" smooth="yes"/>
      <point x="767" y="1092"/>
      <point x="957" y="1024"/>
      <point x="998" y="959" type="qcurve"/>
      <point x="973" y="761" type="line"/>
      <point x="848" y="775"/>
      <point x="822" y="781" type="qcurve" smooth="yes"/>
      <point x="791" y="787"/>
      <point x="789" y="801" type="qcurve"/>
      <point x="762" y="914" type="line" smooth="yes"/>
      <point x="756" y="940"/>
      <point x="689" y="981"/>
      <point x="649" y="983" type="qcurve"/>
      <point x="570" y="983"/>
      <point x="469" y="918"/>
      <point x="458" y="837" type="qcurve"/>
      <point x="457" y="818" type="line"/>
      <point x="457" y="757"/>
      <point x="558" y="690"/>
      <point x="648" y="662" type="qcurve"/>
      <point x="705" y="641" type="line" smooth="yes"/>
      <point x="852" y="587"/>
      <point x="923" y="508" type="qcurve" smooth="yes"/>
      <point x="983" y="441"/>
      <point x="983" y="345" type="qcurve" smooth="yes"/>
      <point x="983" y="326"/>
      <point x="981" y="306" type="qcurve" smooth="yes"/>
      <point x="969" y="210"/>
      <point x="848" y="63"/>
      <point x="635" y="-20"/>
    </contour>
  </outline>
</glyph>
<glyph name="t" format="1">
  <advance width="878"/>
  <unicode hex="0074"/>
  <outline>
    <contour>
      <point x="501" y="-20" type="qcurve" smooth="yes"/>
      <point x="340" y="-20"/>
      <point x="270" y="66" type="qcurve" smooth="yes"/>
      <point x="215" y="133"/>
      <point x="215" y="244" type="qcurve" smooth="yes"/>
      <point x="215" y="273"/>
      <point x="219" y="305" type="qcurve" smooth="yes"/>
      <point x="298" y="945" type="line"/>
      <point x="130" y="945" type="line"/>
      <point x="144" y="1059" type="line"/>
      <point x="312" y="1059" type="line"/>
      <point x="350" y="1368" type="line"/>
      <point x="606" y="1457" type="line"/>
      <point x="557" y="1059" type="line"/>
      <point x="880" y="1059" type="line"/>
      <point x="866" y="945" type="line"/>
      <point x="543" y="945" type="line"/>
      <point x="461" y="264"/>
      <point x="461" y="249" type="qcurve" smooth="yes"/>
      <point x="461" y="121"/>
      <point x="614" y="121" type="qcurve" smooth="yes"/>
      <point x="669" y="121"/>
      <point x="808" y="182" type="qcurve"/>
      <point x="829" y="53" type="line"/>
      <point x="694" y="-20"/>
    </contour>
  </outline>
</glyph>
<glyph name="u" format="1">
  <advance width="1322"/>
  <unicode hex="0075"/>
  <outline>
    <contour>
      <point x="554" y="-20" type="qcurve" smooth="yes"/>
      <point x="347" y="-20"/>
      <point x="261" y="68" type="qcurve" smooth="yes"/>
      <point x="193" y="137"/>
      <point x="193" y="258" type="qcurve" smooth="yes"/>
      <point x="193" y="289"/>
      <point x="197" y="323" type="qcurve" smooth="yes"/>
      <point x="272" y="937" type="line"/>
      <point x="274" y="947"/>
      <point x="279" y="947" type="qcurve"/>
      <point x="178" y="961" type="line" smooth="yes"/>
      <point x="164" y="963"/>
      <point x="146" y="970"/>
      <point x="138" y="976"/>
      <point x="138" y="977" type="qcurve"/>
      <point x="140" y="1059" type="line"/>
      <point x="531" y="1059" type="line"/>
      <point x="442" y="337" type="line"/>
      <point x="440" y="316"/>
      <point x="440" y="297" type="qcurve" smooth="yes"/>
      <point x="440" y="140"/>
      <point x="601" y="140" type="qcurve" smooth="yes"/>
      <point x="678" y="140"/>
      <point x="822" y="234"/>
      <point x="921" y="378"/>
      <point x="932" y="459" type="qcurve"/>
      <point x="991" y="942"/>
      <point x="994" y="948"/>
      <point x="998" y="948" type="qcurve"/>
      <point x="897" y="961" type="line" smooth="yes"/>
      <point x="883" y="963"/>
      <point x="866" y="970"/>
      <point x="858" y="976"/>
      <point x="858" y="977" type="qcurve"/>
      <point x="859" y="1059" type="line"/>
      <point x="1250" y="1059" type="line"/>
      <point x="1136" y="131"/>
      <point x="1134" y="126"/>
      <point x="1130" y="126" type="qcurve"/>
      <point x="1234" y="114" type="line" smooth="yes"/>
      <point x="1248" y="112"/>
      <point x="1265" y="105"/>
      <point x="1269" y="102" type="qcurve" smooth="yes"/>
      <point x="1273" y="98" type="line"/>
      <point x="1271" y="-12" type="line"/>
      <point x="1136" y="-3"/>
      <point x="1001" y="1"/>
      <point x="876" y="1" type="qcurve"/>
      <point x="901" y="205" type="line"/>
      <point x="956" y="205" type="line"/>
      <point x="939" y="157"/>
      <point x="833" y="54"/>
      <point x="664" y="-20"/>
    </contour>
  </outline>
</glyph>
<glyph name="v" format="1">
  <advance width="1285"/>
  <unicode hex="0076"/>
  <outline>
    <contour>
      <point x="731" y="0" type="line"/>
      <point x="525" y="0" type="line"/>
      <point x="245" y="948" type="line"/>
      <point x="245" y="950"/>
      <point x="246" y="950" type="qcurve"/>
      <point x="249" y="950"/>
      <point x="253" y="947"/>
      <point x="254" y="947" type="qcurve"/>
      <point x="153" y="960" type="line"/>
      <point x="114" y="966"/>
      <point x="114" y="990" type="qcurve"/>
      <point x="115" y="1059" type="line"/>
      <point x="668" y="1059" type="line"/>
      <point x="654" y="996" type="line"/>
      <point x="649" y="964"/>
      <point x="606" y="960" type="qcurve"/>
      <point x="502" y="947" type="line"/>
      <point x="500" y="946"/>
      <point x="500" y="940" type="qcurve" smooth="yes"/>
      <point x="500" y="935"/>
      <point x="503" y="927" type="qcurve" smooth="yes"/>
      <point x="507" y="917" type="line"/>
      <point x="689" y="302" type="line"/>
      <point x="1019" y="925" type="line" smooth="yes"/>
      <point x="1025" y="935"/>
      <point x="1025" y="940" type="qcurve" smooth="yes"/>
      <point x="1025" y="945"/>
      <point x="1020" y="948" type="qcurve"/>
      <point x="927" y="960" type="line"/>
      <point x="887" y="968"/>
      <point x="887" y="987" type="qcurve"/>
      <point x="889" y="1059" type="line"/>
      <point x="1390" y="1059" type="line"/>
      <point x="1373" y="989" type="line" smooth="yes"/>
      <point x="1369" y="974"/>
      <point x="1349" y="962"/>
      <point x="1328" y="960" type="qcurve"/>
      <point x="1253" y="950" type="line" smooth="yes"/>
      <point x="1238" y="948"/>
      <point x="1227" y="934" type="qcurve"/>
    </contour>
  </outline>
</glyph>
<glyph name="w" format="1">
  <advance width="1847"/>
  <unicode hex="0077"/>
  <outline>
    <contour>
      <point x="1386" y="0" type="line"/>
      <point x="1142" y="0" type="line"/>
      <point x="996" y="626" type="line"/>
      <point x="721" y="0" type="line"/>
      <point x="477" y="0" type="line"/>
      <point x="257" y="940" type="line"/>
      <point x="254" y="948"/>
      <point x="245" y="950" type="qcurve"/>
      <point x="167" y="961" type="line" smooth="yes"/>
      <point x="141" y="965"/>
      <point x="132" y="973" type="qcurve" smooth="yes"/>
      <point x="128" y="976" type="line"/>
      <point x="135" y="1059" type="line"/>
      <point x="688" y="1059" type="line"/>
      <point x="664" y="978" type="line"/>
      <point x="664" y="976"/>
      <point x="640" y="964"/>
      <point x="620" y="961" type="qcurve" smooth="yes"/>
      <point x="517" y="946" type="line" smooth="yes"/>
      <point x="514" y="945"/>
      <point x="514" y="940" type="qcurve"/>
      <point x="515" y="931" type="line"/>
      <point x="657" y="320" type="line"/>
      <point x="927" y="935"/>
      <point x="927" y="938" type="qcurve"/>
      <point x="927" y="940"/>
      <point x="925" y="948"/>
      <point x="917" y="949" type="qcurve" smooth="yes"/>
      <point x="832" y="961" type="line" smooth="yes"/>
      <point x="818" y="963"/>
      <point x="800" y="970"/>
      <point x="797" y="973" type="qcurve" smooth="yes"/>
      <point x="793" y="976" type="line"/>
      <point x="800" y="1059" type="line"/>
      <point x="1353" y="1059" type="line"/>
      <point x="1329" y="978" type="line"/>
      <point x="1329" y="976"/>
      <point x="1305" y="964"/>
      <point x="1285" y="961" type="qcurve" smooth="yes"/>
      <point x="1188" y="948" type="line"/>
      <point x="1182" y="945"/>
      <point x="1182" y="935" type="qcurve"/>
      <point x="1183" y="918" type="line"/>
      <point x="1323" y="320" type="line"/>
      <point x="1400" y="496" type="line"/>
      <point x="1399" y="495" type="line"/>
      <point x="1587" y="923" type="line" smooth="yes"/>
      <point x="1590" y="931"/>
      <point x="1590" y="939" type="qcurve"/>
      <point x="1589" y="946"/>
      <point x="1584" y="949" type="qcurve"/>
      <point x="1493" y="961" type="line"/>
      <point x="1476" y="964"/>
      <point x="1453" y="976"/>
      <point x="1453" y="979" type="qcurve"/>
      <point x="1447" y="1059" type="line"/>
      <point x="1947" y="1059" type="line"/>
      <point x="1936" y="974" type="line"/>
      <point x="1921" y="967" type="line" smooth="yes"/>
      <point x="1911" y="963"/>
      <point x="1857" y="956" type="qcurve" smooth="yes"/>
      <point x="1817" y="951"/>
      <point x="1800" y="942"/>
      <point x="1796" y="934" type="qcurve" smooth="yes"/>
    </contour>
  </outline>
</glyph>
<glyph name="x" format="1">
  <advance width="1296"/>
  <unicode hex="0078"/>
  <outline>
    <contour>
      <point x="684" y="-20" type="qcurve"/>
      <point x="704" y="72" type="line"/>
      <point x="709" y="75" type="line" smooth="yes"/>
      <point x="721" y="83"/>
      <point x="746" y="87" type="qcurve" smooth="yes"/>
      <point x="819" y="97" type="line"/>
      <point x="824" y="97"/>
      <point x="836" y="106"/>
      <point x="836" y="109" type="qcurve" smooth="yes"/>
      <point x="836" y="112"/>
      <point x="673" y="404" type="qcurve"/>
      <point x="558" y="261"/>
      <point x="537" y="232" type="qcurve"/>
      <point x="447" y="120" type="line" smooth="yes"/>
      <point x="441" y="112"/>
      <point x="441" y="105" type="qcurve"/>
      <point x="441" y="103"/>
      <point x="441" y="98"/>
      <point x="447" y="96" type="qcurve"/>
      <point x="539" y="87" type="line" smooth="yes"/>
      <point x="554" y="86"/>
      <point x="571" y="78"/>
      <point x="579" y="72"/>
      <point x="579" y="71" type="qcurve"/>
      <point x="578" y="-19" type="line"/>
      <point x="408" y="-9"/>
      <point x="308" y="-8" type="qcurve"/>
      <point x="222" y="-9"/>
      <point x="62" y="-19" type="qcurve"/>
      <point x="83" y="72" type="line"/>
      <point x="88" y="75" type="line" smooth="yes"/>
      <point x="100" y="83"/>
      <point x="125" y="87" type="qcurve"/>
      <point x="214" y="97"/>
      <point x="221" y="101"/>
      <point x="599" y="537" type="qcurve"/>
      <point x="478" y="741" type="line"/>
      <point x="360" y="937"/>
      <point x="352" y="945" type="qcurve"/>
      <point x="270" y="954" type="line"/>
      <point x="250" y="957"/>
      <point x="232" y="969"/>
      <point x="232" y="971" type="qcurve"/>
      <point x="233" y="1059" type="line"/>
      <point x="796" y="1059" type="line"/>
      <point x="777" y="971" type="line" smooth="yes"/>
      <point x="776" y="969"/>
      <point x="757" y="958"/>
      <point x="736" y="955" type="qcurve" smooth="yes"/>
      <point x="644" y="943" type="line"/>
      <point x="645" y="943"/>
      <point x="652" y="933" type="qcurve"/>
      <point x="681" y="883"/>
      <point x="727" y="793" type="qcurve" smooth="yes"/>
      <point x="781" y="688" type="line"/>
      <point x="966" y="931" type="line"/>
      <point x="970" y="939" type="line"/>
      <point x="970" y="945"/>
      <point x="961" y="946" type="qcurve" smooth="yes"/>
      <point x="875" y="954" type="line"/>
      <point x="861" y="956"/>
      <point x="853" y="960" type="qcurve"/>
      <point x="836" y="966"/>
      <point x="836" y="970" type="qcurve"/>
      <point x="837" y="1059" type="line"/>
      <point x="1344" y="1059" type="line"/>
      <point x="1325" y="970" type="line"/>
      <point x="1324" y="969"/>
      <point x="1302" y="958"/>
      <point x="1283" y="955" type="qcurve"/>
      <point x="1198" y="945"/>
      <point x="1197" y="944" type="qcurve"/>
      <point x="1188" y="942"/>
      <point x="1180" y="934" type="qcurve"/>
      <point x="853" y="554" type="line"/>
      <point x="992" y="326" type="line" smooth="yes"/>
      <point x="1128" y="102"/>
      <point x="1138" y="96" type="qcurve"/>
      <point x="1215" y="87" type="line" smooth="yes"/>
      <point x="1238" y="84"/>
      <point x="1250" y="75" type="qcurve" smooth="yes"/>
      <point x="1254" y="72" type="line"/>
      <point x="1253" y="-17" type="line"/>
      <point x="1219" y="-17" type="line"/>
      <point x="1086" y="-8"/>
      <point x="972" y="-8" type="qcurve" smooth="yes"/>
      <point x="859" y="-8"/>
    </contour>
  </outline>
</glyph>
<glyph name="y" format="1">
  <advance width="1321"/>
  <unicode hex="0079"/>
  <outline>
    <contour>
      <point x="266" y="-453" type="qcurve" smooth="yes"/>
      <point x="188" y="-453"/>
      <point x="89" y="-424" type="qcurve"/>
      <point x="166" y="-271" type="line"/>
      <point x="249" y="-314"/>
      <point x="310" y="-314" type="qcurve" smooth="yes"/>
      <point x="385" y="-314"/>
      <point x="443" y="-215" type="qcurve"/>
      <point x="554" y="-7" type="line"/>
      <point x="535" y="-7" type="line"/>
      <point x="249" y="944"/>
      <point x="249" y="948" type="qcurve"/>
      <point x="249" y="950"/>
      <point x="251" y="950" type="qcurve"/>
      <point x="257" y="948" type="line"/>
      <point x="158" y="960" type="line"/>
      <point x="128" y="965"/>
      <point x="119" y="974" type="qcurve"/>
      <point x="120" y="1060" type="line"/>
      <point x="694" y="1060" type="line"/>
      <point x="675" y="977" type="line"/>
      <point x="675" y="976"/>
      <point x="667" y="970"/>
      <point x="648" y="962"/>
      <point x="632" y="960" type="qcurve" smooth="yes"/>
      <point x="527" y="947" type="line"/>
      <point x="533" y="947"/>
      <point x="533" y="939" type="qcurve"/>
      <point x="532" y="928" type="line"/>
      <point x="533" y="917" type="line"/>
      <point x="714" y="306" type="line"/>
      <point x="1030" y="921" type="line"/>
      <point x="1032" y="927"/>
      <point x="1034" y="940"/>
      <point x="1038" y="947"/>
      <point x="1042" y="948"/>
      <point x="1043" y="948" type="qcurve"/>
      <point x="1049" y="946" type="line"/>
      <point x="940" y="960" type="line" smooth="yes"/>
      <point x="926" y="962"/>
      <point x="909" y="970"/>
      <point x="905" y="974" type="qcurve" smooth="yes"/>
      <point x="901" y="977" type="line"/>
      <point x="902" y="1060" type="line"/>
      <point x="1416" y="1060" type="line"/>
      <point x="1397" y="977" type="line"/>
      <point x="1397" y="976"/>
      <point x="1389" y="970"/>
      <point x="1370" y="962"/>
      <point x="1354" y="960" type="qcurve" smooth="yes"/>
      <point x="1259" y="948" type="line"/>
      <point x="756" y="-7" type="line"/>
      <point x="757" y="-7" type="line"/>
      <point x="645" y="-217" type="line"/>
      <point x="577" y="-332"/>
      <point x="407" y="-453"/>
    </contour>
  </outline>
</glyph>
<glyph name="z" format="1">
  <advance width="1110"/>
  <unicode hex="007A"/>
  <outline>
    <contour>
      <point x="1029" y="0" type="line"/>
      <point x="79" y="0" type="line"/>
      <point x="90" y="88" type="line"/>
      <point x="780" y="943" type="line"/>
      <point x="714" y="943" type="line" smooth="yes"/>
      <point x="549" y="943"/>
      <point x="416" y="933" type="qcurve"/>
      <point x="422" y="933"/>
      <point x="431" y="936"/>
      <point x="432" y="936" type="qcurve"/>
      <point x="433" y="936"/>
      <point x="433" y="934" type="qcurve"/>
      <point x="381" y="798" type="line" smooth="yes"/>
      <point x="380" y="795"/>
      <point x="358" y="782"/>
      <point x="339" y="779" type="qcurve" smooth="yes"/>
      <point x="212" y="763" type="line"/>
      <point x="249" y="1060" type="line"/>
      <point x="1113" y="1060" type="line"/>
      <point x="1105" y="995" type="line"/>
      <point x="393" y="123" type="line"/>
      <point x="597" y="123" type="line" smooth="yes"/>
      <point x="651" y="123"/>
      <point x="745" y="129" type="qcurve"/>
      <point x="843" y="134" type="line"/>
      <point x="840" y="134"/>
      <point x="831" y="131"/>
      <point x="829" y="132" type="qcurve"/>
      <point x="828" y="132"/>
      <point x="828" y="134" type="qcurve"/>
      <point x="828" y="136"/>
      <point x="907" y="333" type="qcurve" smooth="yes"/>
      <point x="908" y="337"/>
      <point x="930" y="350"/>
      <point x="950" y="353" type="qcurve" smooth="yes"/>
      <point x="1073" y="368" type="line"/>
    </contour>
  </outline>
</glyph>
<glyph name="braceleft" format="1">
  <advance width="842"/>
  <unicode hex="007B"/>
  <outline>
    <contour>
      <point x="646" y="-342" type="line"/>
      <point x="609" y="-335" type="line"/>
      <point x="479" y="-314"/>
      <point x="415" y="-290" type="qcurve" smooth="yes"/>
      <point x="333" y="-259"/>
      <point x="333" y="-172" type="qcurve" smooth="yes"/>
      <point x="333" y="-114"/>
      <point x="348" y="8" type="qcurve" smooth="yes"/>
      <point x="358" y="85"/>
      <point x="381" y="253"/>
      <point x="391" y="333" type="qcurve" smooth="yes"/>
      <point x="408" y="468"/>
      <point x="408" y="537" type="qcurve" smooth="yes"/>
      <point x="408" y="567"/>
      <point x="404" y="584" type="qcurve" smooth="yes"/>
      <point x="397" y="612"/>
      <point x="340" y="648"/>
      <point x="278" y="662" type="qcurve"/>
      <point x="286" y="687" type="line"/>
      <point x="284" y="712" type="line"/>
      <point x="349" y="726"/>
      <point x="415" y="763"/>
      <point x="429" y="791" type="qcurve"/>
      <point x="457" y="858"/>
      <point x="478" y="1042" type="qcurve"/>
      <point x="488" y="1122"/>
      <point x="506" y="1290"/>
      <point x="515" y="1367" type="qcurve" smooth="yes"/>
      <point x="535" y="1536"/>
      <point x="554" y="1582" type="qcurve"/>
      <point x="585" y="1641"/>
      <point x="726" y="1689"/>
      <point x="863" y="1709" type="qcurve"/>
      <point x="898" y="1715" type="line"/>
      <point x="916" y="1641" type="line"/>
      <point x="852" y="1628"/>
      <point x="799" y="1598"/>
      <point x="788" y="1574" type="qcurve" smooth="yes"/>
      <point x="764" y="1517"/>
      <point x="746" y="1357" type="qcurve" smooth="yes"/>
      <point x="727" y="1189" type="line"/>
      <point x="695" y="868"/>
      <point x="670" y="810" type="qcurve"/>
      <point x="638" y="753"/>
      <point x="512" y="698"/>
      <point x="424" y="687" type="qcurve"/>
      <point x="509" y="676"/>
      <point x="565" y="649" type="qcurve" smooth="yes"/>
      <point x="642" y="611"/>
      <point x="642" y="529" type="qcurve" smooth="yes"/>
      <point x="642" y="472"/>
      <point x="626" y="356" type="qcurve"/>
      <point x="616" y="274"/>
      <point x="592" y="97"/>
      <point x="582" y="17" type="qcurve"/>
      <point x="567" y="-90"/>
      <point x="567" y="-150" type="qcurve" smooth="yes"/>
      <point x="567" y="-180"/>
      <point x="571" y="-199" type="qcurve" smooth="yes"/>
      <point x="576" y="-224"/>
      <point x="621" y="-253"/>
      <point x="681" y="-267" type="qcurve"/>
    </contour>
  </outline>
</glyph>
<glyph name="bar" format="1">
  <advance width="1084"/>
  <unicode hex="007C"/>
  <outline>
    <contour>
      <point x="621" y="1577" type="line"/>
      <point x="851" y="1577" type="line"/>
      <point x="606" y="-418" type="line"/>
      <point x="376" y="-418" type="line"/>
    </contour>
  </outline>
</glyph>
<glyph name="braceright" format="1">
  <advance width="842"/>
  <unicode hex="007D"/>
  <outline>
    <contour>
      <point x="181" y="-342" type="line"/>
      <point x="164" y="-267" type="line"/>
      <point x="228" y="-253"/>
      <point x="280" y="-224"/>
      <point x="292" y="-199" type="qcurve"/>
      <point x="315" y="-143"/>
      <point x="333" y="17" type="qcurve"/>
      <point x="343" y="97"/>
      <point x="362" y="274"/>
      <point x="372" y="356" type="qcurve" smooth="yes"/>
      <point x="391" y="520"/>
      <point x="410" y="565" type="qcurve"/>
      <point x="442" y="621"/>
      <point x="568" y="676"/>
      <point x="655" y="687" type="qcurve"/>
      <point x="571" y="698"/>
      <point x="515" y="726" type="qcurve" smooth="yes"/>
      <point x="438" y="763"/>
      <point x="438" y="844" type="qcurve" smooth="yes"/>
      <point x="438" y="900"/>
      <point x="453" y="1019" type="qcurve"/>
      <point x="488" y="1274"/>
      <point x="498" y="1357" type="qcurve" smooth="yes"/>
      <point x="512" y="1465"/>
      <point x="512" y="1527" type="qcurve" smooth="yes"/>
      <point x="512" y="1556"/>
      <point x="509" y="1574" type="qcurve" smooth="yes"/>
      <point x="504" y="1598"/>
      <point x="459" y="1628"/>
      <point x="398" y="1641" type="qcurve"/>
      <point x="434" y="1715" type="line"/>
      <point x="468" y="1709" type="line"/>
      <point x="599" y="1689"/>
      <point x="664" y="1665" type="qcurve" smooth="yes"/>
      <point x="747" y="1634"/>
      <point x="747" y="1549" type="qcurve" smooth="yes"/>
      <point x="747" y="1466"/>
      <point x="710" y="1206" type="qcurve"/>
      <point x="689" y="1042" type="line" smooth="yes"/>
      <point x="672" y="904"/>
      <point x="672" y="843" type="qcurve" smooth="yes"/>
      <point x="672" y="809"/>
      <point x="676" y="791" type="qcurve" smooth="yes"/>
      <point x="683" y="763"/>
      <point x="740" y="726"/>
      <point x="802" y="712" type="qcurve"/>
      <point x="794" y="687" type="line"/>
      <point x="796" y="662" type="line"/>
      <point x="730" y="648"/>
      <point x="664" y="612"/>
      <point x="651" y="584" type="qcurve" smooth="yes"/>
      <point x="622" y="517"/>
      <point x="602" y="333" type="qcurve"/>
      <point x="592" y="253"/>
      <point x="574" y="85"/>
      <point x="565" y="8" type="qcurve" smooth="yes"/>
      <point x="545" y="-161"/>
      <point x="526" y="-207" type="qcurve"/>
      <point x="495" y="-266"/>
      <point x="355" y="-314"/>
      <point x="220" y="-335" type="qcurve"/>
    </contour>
  </outline>
</glyph>
<glyph name="asciitilde" format="1">
  <advance width="1084"/>
  <unicode hex="007E"/>
  <outline>
    <contour>
      <point x="1109" y="949" type="qcurve"/>
      <point x="1083" y="732" type="line"/>
      <point x="1010" y="659"/>
      <point x="864" y="599"/>
      <point x="794" y="599" type="qcurve" smooth="yes"/>
      <point x="720" y="599"/>
      <point x="497" y="696"/>
      <point x="451" y="696" type="qcurve" smooth="yes"/>
      <point x="416" y="696"/>
      <point x="316" y="649"/>
      <point x="154" y="485" type="qcurve"/>
      <point x="180" y="702" type="line"/>
      <point x="254" y="776"/>
      <point x="400" y="837"/>
      <point x="469" y="837" type="qcurve" smooth="yes"/>
      <point x="546" y="837"/>
      <point x="769" y="738"/>
      <point x="811" y="738" type="qcurve" smooth="yes"/>
      <point x="847" y="738"/>
      <point x="947" y="785"/>
    </contour>
  </outline>
</glyph>
<glyph name="exclamdown" format="1">
  <advance width="745"/>
  <unicode hex="00A1"/>
  <outline>
    <contour>
      <point x="436" y="941" type="qcurve" smooth="yes"/>
      <point x="357" y="941"/>
      <point x="322" y="980" type="qcurve" smooth="yes"/>
      <point x="293" y="1012"/>
      <point x="293" y="1061" type="qcurve" smooth="yes"/>
      <point x="293" y="1143"/>
      <point x="348" y="1188" type="qcurve" smooth="yes"/>
      <point x="393" y="1225"/>
      <point x="471" y="1225" type="qcurve" smooth="yes"/>
      <point x="616" y="1225"/>
      <point x="616" y="1110" type="qcurve"/>
      <point x="614" y="1087" type="line" smooth="yes"/>
      <point x="606" y="1020"/>
      <point x="519" y="941"/>
    </contour>
    <contour>
      <point x="432" y="-422" type="qcurve"/>
      <point x="113" y="-422" type="line"/>
      <point x="175" y="-168"/>
      <point x="279" y="453"/>
      <point x="292" y="701" type="qcurve"/>
      <point x="528" y="701" type="line"/>
      <point x="476" y="458"/>
      <point x="432" y="-170"/>
    </contour>
  </outline>
</glyph>
<glyph name="currency" format="1">
  <advance width="1064"/>
  <unicode hex="00A4"/>
  <outline>
    <contour>
      <point x="479" y="548" type="qcurve" smooth="yes"/>
      <point x="510" y="514"/>
      <point x="554" y="500" type="qcurve"/>
      <point x="573" y="495"/>
      <point x="593" y="495" type="qcurve" smooth="yes"/>
      <point x="612" y="495"/>
      <point x="633" y="500" type="qcurve"/>
      <point x="680" y="514"/>
      <point x="719" y="548" type="qcurve" smooth="yes"/>
      <point x="764" y="588"/>
      <point x="789" y="650" type="qcurve"/>
      <point x="804" y="683"/>
      <point x="808" y="717" type="qcurve" smooth="yes"/>
      <point x="812" y="751"/>
      <point x="806" y="784" type="qcurve" smooth="yes"/>
      <point x="796" y="846"/>
      <point x="761" y="886" type="qcurve" smooth="yes"/>
      <point x="730" y="920"/>
      <point x="685" y="933" type="qcurve" smooth="yes"/>
      <point x="666" y="939"/>
      <point x="646" y="939" type="qcurve" smooth="yes"/>
      <point x="628" y="939"/>
      <point x="607" y="933" type="qcurve" smooth="yes"/>
      <point x="559" y="919"/>
      <point x="521" y="886" type="qcurve" smooth="yes"/>
      <point x="477" y="847"/>
      <point x="452" y="786" type="qcurve"/>
      <point x="436" y="751"/>
      <point x="432" y="716" type="qcurve" smooth="yes"/>
      <point x="428" y="683"/>
      <point x="434" y="651" type="qcurve"/>
      <point x="443" y="589"/>
    </contour>
    <contour>
      <point x="349" y="905" type="qcurve"/>
      <point x="248" y="1021" type="line"/>
      <point x="365" y="1127" type="line"/>
      <point x="475" y="1002" type="line"/>
      <point x="486" y="1009"/>
      <point x="551" y="1027" type="qcurve"/>
      <point x="606" y="1044"/>
      <point x="661" y="1044" type="qcurve" smooth="yes"/>
      <point x="712" y="1044"/>
      <point x="761" y="1029" type="qcurve" smooth="yes"/>
      <point x="824" y="1010"/>
      <point x="834" y="1002" type="qcurve"/>
      <point x="975" y="1127" type="line"/>
      <point x="1066" y="1021" type="line"/>
      <point x="938" y="907" type="line"/>
      <point x="971" y="846"/>
      <point x="981" y="793" type="qcurve"/>
      <point x="987" y="755"/>
      <point x="982" y="717" type="qcurve" smooth="yes"/>
      <point x="977" y="680"/>
      <point x="962" y="641" type="qcurve"/>
      <point x="939" y="588"/>
      <point x="891" y="527" type="qcurve"/>
      <point x="992" y="413" type="line"/>
      <point x="874" y="307" type="line"/>
      <point x="765" y="431" type="line"/>
      <point x="752" y="423"/>
      <point x="676" y="402" type="qcurve" smooth="yes"/>
      <point x="633" y="390"/>
      <point x="580" y="390" type="qcurve" smooth="yes"/>
      <point x="528" y="390"/>
      <point x="478" y="404" type="qcurve" smooth="yes"/>
      <point x="415" y="423"/>
      <point x="404" y="431" type="qcurve"/>
      <point x="264" y="307" type="line"/>
      <point x="173" y="413" type="line"/>
      <point x="303" y="528" type="line"/>
      <point x="268" y="588"/>
      <point x="260" y="642" type="qcurve"/>
      <point x="253" y="680"/>
      <point x="258" y="717" type="qcurve" smooth="yes"/>
      <point x="263" y="756"/>
      <point x="279" y="795" type="qcurve" smooth="yes"/>
      <point x="301" y="847"/>
    </contour>
  </outline>
</glyph>
